%TF.GenerationSoftware,KiCad,Pcbnew,9.0.7*%
%TF.CreationDate,2026-05-09T17:10:02-07:00*%
%TF.ProjectId,elec-thruster-control-board,656c6563-2d74-4687-9275-737465722d63,rev?*%
%TF.SameCoordinates,Original*%
%TF.FileFunction,Paste,Top*%
%TF.FilePolarity,Positive*%
%FSLAX46Y46*%
G04 Gerber Fmt 4.6, Leading zero omitted, Abs format (unit mm)*
G04 Created by KiCad (PCBNEW 9.0.7) date 2026-05-09 17:10:02*
%MOMM*%
%LPD*%
G01*
G04 APERTURE LIST*
G04 Aperture macros list*
%AMRoundRect*
0 Rectangle with rounded corners*
0 $1 Rounding radius*
0 $2 $3 $4 $5 $6 $7 $8 $9 X,Y pos of 4 corners*
0 Add a 4 corners polygon primitive as box body*
4,1,4,$2,$3,$4,$5,$6,$7,$8,$9,$2,$3,0*
0 Add four circle primitives for the rounded corners*
1,1,$1+$1,$2,$3*
1,1,$1+$1,$4,$5*
1,1,$1+$1,$6,$7*
1,1,$1+$1,$8,$9*
0 Add four rect primitives between the rounded corners*
20,1,$1+$1,$2,$3,$4,$5,0*
20,1,$1+$1,$4,$5,$6,$7,0*
20,1,$1+$1,$6,$7,$8,$9,0*
20,1,$1+$1,$8,$9,$2,$3,0*%
G04 Aperture macros list end*
%ADD10R,1.420000X1.000000*%
%ADD11R,1.100000X1.250000*%
%ADD12RoundRect,0.250000X-0.475000X0.250000X-0.475000X-0.250000X0.475000X-0.250000X0.475000X0.250000X0*%
%ADD13R,1.000000X1.420000*%
G04 APERTURE END LIST*
D10*
%TO.C,R4*%
X126300000Y-83935000D03*
X126300000Y-82065000D03*
%TD*%
D11*
%TO.C,D8*%
X154500000Y-72575000D03*
X154500000Y-74925000D03*
%TD*%
D10*
%TO.C,R12*%
X152200000Y-113935000D03*
X152200000Y-112065000D03*
%TD*%
D11*
%TO.C,D13*%
X133296900Y-113975000D03*
X133296900Y-111625000D03*
%TD*%
%TO.C,D9*%
X154500000Y-60075000D03*
X154500000Y-62425000D03*
%TD*%
%TO.C,D2*%
X124650000Y-63325000D03*
X124650000Y-65675000D03*
%TD*%
D10*
%TO.C,R16*%
X137800000Y-109700000D03*
X137800000Y-107830000D03*
%TD*%
D12*
%TO.C,C1*%
X154900000Y-112035000D03*
X154900000Y-113935000D03*
%TD*%
D11*
%TO.C,D16*%
X137800000Y-113940000D03*
X137800000Y-111590000D03*
%TD*%
D13*
%TO.C,R20*%
X129835000Y-108100000D03*
X127965000Y-108100000D03*
%TD*%
D10*
%TO.C,R2*%
X126700000Y-65735000D03*
X126700000Y-63865000D03*
%TD*%
D11*
%TO.C,D6*%
X154600000Y-89075000D03*
X154600000Y-91425000D03*
%TD*%
D10*
%TO.C,R9*%
X152400000Y-62435000D03*
X152400000Y-60565000D03*
%TD*%
%TO.C,R11*%
X121100000Y-111565000D03*
X121100000Y-113435000D03*
%TD*%
D11*
%TO.C,D12*%
X121000000Y-107025000D03*
X121000000Y-109375000D03*
%TD*%
D10*
%TO.C,R8*%
X152400000Y-74935000D03*
X152400000Y-73065000D03*
%TD*%
%TO.C,R6*%
X152400000Y-91435000D03*
X152400000Y-89565000D03*
%TD*%
D11*
%TO.C,D1*%
X124500000Y-54575000D03*
X124500000Y-56925000D03*
%TD*%
D12*
%TO.C,C2*%
X125400000Y-110750000D03*
X125400000Y-112650000D03*
%TD*%
D10*
%TO.C,R13*%
X133300000Y-109735000D03*
X133300000Y-107865000D03*
%TD*%
%TO.C,R10*%
X152250000Y-99597500D03*
X152250000Y-97727500D03*
%TD*%
%TO.C,R17*%
X128700000Y-112535000D03*
X128700000Y-110665000D03*
%TD*%
%TO.C,R14*%
X146200000Y-109600000D03*
X146200000Y-107730000D03*
%TD*%
%TO.C,R7*%
X152400000Y-82935000D03*
X152400000Y-81065000D03*
%TD*%
D11*
%TO.C,D4*%
X124250000Y-81575000D03*
X124250000Y-83925000D03*
%TD*%
D10*
%TO.C,R1*%
X126700000Y-56935000D03*
X126700000Y-55065000D03*
%TD*%
D11*
%TO.C,D7*%
X154500000Y-80575000D03*
X154500000Y-82925000D03*
%TD*%
%TO.C,D14*%
X146196900Y-113926250D03*
X146196900Y-111576250D03*
%TD*%
%TO.C,D11*%
X149600000Y-113975000D03*
X149600000Y-111625000D03*
%TD*%
D10*
%TO.C,R15*%
X142100000Y-109700000D03*
X142100000Y-107830000D03*
%TD*%
%TO.C,R18*%
X158000000Y-113935000D03*
X158000000Y-112065000D03*
%TD*%
%TO.C,R5*%
X126700000Y-94435000D03*
X126700000Y-92565000D03*
%TD*%
D11*
%TO.C,D10*%
X155000000Y-97187500D03*
X155000000Y-99537500D03*
%TD*%
D10*
%TO.C,R19*%
X151300000Y-106565000D03*
X151300000Y-108435000D03*
%TD*%
D11*
%TO.C,D3*%
X124500000Y-71075000D03*
X124500000Y-73425000D03*
%TD*%
D10*
%TO.C,R3*%
X126800000Y-73635000D03*
X126800000Y-71765000D03*
%TD*%
D11*
%TO.C,D5*%
X124500000Y-91825000D03*
X124500000Y-94175000D03*
%TD*%
%TO.C,D15*%
X142100000Y-113975000D03*
X142100000Y-111625000D03*
%TD*%
M02*
