%TF.GenerationSoftware,KiCad,Pcbnew,9.0.7*%
%TF.CreationDate,2026-05-09T17:10:02-07:00*%
%TF.ProjectId,elec-thruster-control-board,656c6563-2d74-4687-9275-737465722d63,rev?*%
%TF.SameCoordinates,Original*%
%TF.FileFunction,Soldermask,Top*%
%TF.FilePolarity,Negative*%
%FSLAX46Y46*%
G04 Gerber Fmt 4.6, Leading zero omitted, Abs format (unit mm)*
G04 Created by KiCad (PCBNEW 9.0.7) date 2026-05-09 17:10:02*
%MOMM*%
%LPD*%
G01*
G04 APERTURE LIST*
G04 Aperture macros list*
%AMRoundRect*
0 Rectangle with rounded corners*
0 $1 Rounding radius*
0 $2 $3 $4 $5 $6 $7 $8 $9 X,Y pos of 4 corners*
0 Add a 4 corners polygon primitive as box body*
4,1,4,$2,$3,$4,$5,$6,$7,$8,$9,$2,$3,0*
0 Add four circle primitives for the rounded corners*
1,1,$1+$1,$2,$3*
1,1,$1+$1,$4,$5*
1,1,$1+$1,$6,$7*
1,1,$1+$1,$8,$9*
0 Add four rect primitives between the rounded corners*
20,1,$1+$1,$2,$3,$4,$5,0*
20,1,$1+$1,$4,$5,$6,$7,0*
20,1,$1+$1,$6,$7,$8,$9,0*
20,1,$1+$1,$8,$9,$2,$3,0*%
G04 Aperture macros list end*
%ADD10RoundRect,0.102000X0.710000X-0.500000X0.710000X0.500000X-0.710000X0.500000X-0.710000X-0.500000X0*%
%ADD11RoundRect,0.102000X-0.550000X0.625000X-0.550000X-0.625000X0.550000X-0.625000X0.550000X0.625000X0*%
%ADD12RoundRect,0.250000X0.625000X-0.350000X0.625000X0.350000X-0.625000X0.350000X-0.625000X-0.350000X0*%
%ADD13O,1.750000X1.200000*%
%ADD14RoundRect,0.102000X0.550000X-0.625000X0.550000X0.625000X-0.550000X0.625000X-0.550000X-0.625000X0*%
%ADD15C,5.600000*%
%ADD16RoundRect,0.250000X-0.625000X0.350000X-0.625000X-0.350000X0.625000X-0.350000X0.625000X0.350000X0*%
%ADD17RoundRect,0.250000X-0.475000X0.250000X-0.475000X-0.250000X0.475000X-0.250000X0.475000X0.250000X0*%
%ADD18RoundRect,0.102000X0.500000X0.710000X-0.500000X0.710000X-0.500000X-0.710000X0.500000X-0.710000X0*%
%ADD19R,1.700000X1.700000*%
%ADD20C,1.700000*%
%ADD21RoundRect,0.102000X-0.710000X0.500000X-0.710000X-0.500000X0.710000X-0.500000X0.710000X0.500000X0*%
%ADD22RoundRect,0.250000X0.350000X0.625000X-0.350000X0.625000X-0.350000X-0.625000X0.350000X-0.625000X0*%
%ADD23O,1.200000X1.750000*%
G04 APERTURE END LIST*
D10*
%TO.C,R4*%
X126300000Y-83935000D03*
X126300000Y-82065000D03*
%TD*%
D11*
%TO.C,D8*%
X154500000Y-72575000D03*
X154500000Y-74925000D03*
%TD*%
D12*
%TO.C,J20*%
X162700000Y-73250000D03*
D13*
X162700000Y-71250000D03*
%TD*%
D10*
%TO.C,R12*%
X152200000Y-113935000D03*
X152200000Y-112065000D03*
%TD*%
D14*
%TO.C,D13*%
X133296900Y-113975000D03*
X133296900Y-111625000D03*
%TD*%
D15*
%TO.C,H4*%
X162750000Y-111250000D03*
%TD*%
D11*
%TO.C,D9*%
X154500000Y-60075000D03*
X154500000Y-62425000D03*
%TD*%
%TO.C,D2*%
X124650000Y-63325000D03*
X124650000Y-65675000D03*
%TD*%
D12*
%TO.C,J11*%
X162750000Y-103000000D03*
D13*
X162750000Y-101000000D03*
%TD*%
D16*
%TO.C,J12*%
X116300000Y-71000000D03*
D13*
X116300000Y-73000000D03*
%TD*%
D10*
%TO.C,R16*%
X137800000Y-109700000D03*
X137800000Y-107830000D03*
%TD*%
D17*
%TO.C,C1*%
X154900000Y-112035000D03*
X154900000Y-113935000D03*
%TD*%
D14*
%TO.C,D16*%
X137800000Y-113940000D03*
X137800000Y-111590000D03*
%TD*%
D18*
%TO.C,R20*%
X129835000Y-108100000D03*
X127965000Y-108100000D03*
%TD*%
D19*
%TO.C,J24*%
X158300000Y-84120000D03*
D20*
X158300000Y-81580000D03*
X158300000Y-79040000D03*
X158300000Y-76500000D03*
X158300000Y-73960000D03*
X158300000Y-71420000D03*
%TD*%
D10*
%TO.C,R2*%
X126700000Y-65735000D03*
X126700000Y-63865000D03*
%TD*%
D16*
%TO.C,J2*%
X116300000Y-61000000D03*
D13*
X116300000Y-63000000D03*
%TD*%
D11*
%TO.C,D6*%
X154600000Y-89075000D03*
X154600000Y-91425000D03*
%TD*%
D16*
%TO.C,J5*%
X116250000Y-81000000D03*
D13*
X116250000Y-83000000D03*
%TD*%
D10*
%TO.C,R9*%
X152400000Y-62435000D03*
X152400000Y-60565000D03*
%TD*%
D21*
%TO.C,R11*%
X121100000Y-111565000D03*
X121100000Y-113435000D03*
%TD*%
D11*
%TO.C,D12*%
X121000000Y-107025000D03*
X121000000Y-109375000D03*
%TD*%
D10*
%TO.C,R8*%
X152400000Y-74935000D03*
X152400000Y-73065000D03*
%TD*%
%TO.C,R6*%
X152400000Y-91435000D03*
X152400000Y-89565000D03*
%TD*%
D11*
%TO.C,D1*%
X124500000Y-54575000D03*
X124500000Y-56925000D03*
%TD*%
D19*
%TO.C,J13*%
X147250000Y-103750000D03*
D20*
X144710000Y-103750000D03*
X142170000Y-103750000D03*
X139630000Y-103750000D03*
X137090000Y-103750000D03*
X134550000Y-103750000D03*
X132010000Y-103750000D03*
%TD*%
D19*
%TO.C,J6*%
X148500000Y-51000000D03*
D20*
X148500000Y-53540000D03*
X148500000Y-56080000D03*
X148500000Y-58620000D03*
X148500000Y-61160000D03*
X148500000Y-63700000D03*
X148500000Y-66240000D03*
X148500000Y-68780000D03*
X148500000Y-71320000D03*
X148500000Y-73860000D03*
X148500000Y-76400000D03*
X148500000Y-78940000D03*
X148500000Y-81480000D03*
X148500000Y-84020000D03*
X148500000Y-86560000D03*
X148500000Y-89100000D03*
X148500000Y-91640000D03*
X148500000Y-94180000D03*
X148500000Y-96720000D03*
X148500000Y-99260000D03*
%TD*%
D15*
%TO.C,H2*%
X162750000Y-53300000D03*
%TD*%
D17*
%TO.C,C2*%
X125400000Y-110750000D03*
X125400000Y-112650000D03*
%TD*%
D10*
%TO.C,R13*%
X133300000Y-109735000D03*
X133300000Y-107865000D03*
%TD*%
%TO.C,R10*%
X152250000Y-99597500D03*
X152250000Y-97727500D03*
%TD*%
D15*
%TO.C,H3*%
X116250000Y-111250000D03*
%TD*%
D10*
%TO.C,R17*%
X128700000Y-112535000D03*
X128700000Y-110665000D03*
%TD*%
%TO.C,R14*%
X146200000Y-109600000D03*
X146200000Y-107730000D03*
%TD*%
%TO.C,R7*%
X152400000Y-82935000D03*
X152400000Y-81065000D03*
%TD*%
D12*
%TO.C,J21*%
X162700000Y-63000000D03*
D13*
X162700000Y-61000000D03*
%TD*%
D15*
%TO.C,H1*%
X116250000Y-53300000D03*
%TD*%
D11*
%TO.C,D4*%
X124250000Y-81575000D03*
X124250000Y-83925000D03*
%TD*%
D12*
%TO.C,J19*%
X162750000Y-83000000D03*
D13*
X162750000Y-81000000D03*
%TD*%
D10*
%TO.C,R1*%
X126700000Y-56935000D03*
X126700000Y-55065000D03*
%TD*%
D16*
%TO.C,J16*%
X116300000Y-101000000D03*
D13*
X116300000Y-103000000D03*
%TD*%
D11*
%TO.C,D7*%
X154500000Y-80575000D03*
X154500000Y-82925000D03*
%TD*%
D12*
%TO.C,J18*%
X162750000Y-93000000D03*
D13*
X162750000Y-91000000D03*
%TD*%
D14*
%TO.C,D14*%
X146196900Y-113926250D03*
X146196900Y-111576250D03*
%TD*%
D22*
%TO.C,J1*%
X125500000Y-102850000D03*
D23*
X123500000Y-102850000D03*
%TD*%
D14*
%TO.C,D11*%
X149600000Y-113975000D03*
X149600000Y-111625000D03*
%TD*%
D19*
%TO.C,J4*%
X130750000Y-51010000D03*
D20*
X130750000Y-53550000D03*
X130750000Y-56090000D03*
X130750000Y-58630000D03*
X130750000Y-61170000D03*
X130750000Y-63710000D03*
X130750000Y-66250000D03*
X130750000Y-68790000D03*
X130750000Y-71330000D03*
X130750000Y-73870000D03*
X130750000Y-76410000D03*
X130750000Y-78950000D03*
X130750000Y-81490000D03*
X130750000Y-84030000D03*
X130750000Y-86570000D03*
X130750000Y-89110000D03*
X130750000Y-91650000D03*
X130750000Y-94190000D03*
X130750000Y-96730000D03*
X130750000Y-99270000D03*
%TD*%
D10*
%TO.C,R15*%
X142100000Y-109700000D03*
X142100000Y-107830000D03*
%TD*%
%TO.C,R18*%
X158000000Y-113935000D03*
X158000000Y-112065000D03*
%TD*%
D19*
%TO.C,J22*%
X120800000Y-83780000D03*
D20*
X120800000Y-81240000D03*
X120800000Y-78700000D03*
X120800000Y-76160000D03*
X120800000Y-73620000D03*
X120800000Y-71080000D03*
%TD*%
D10*
%TO.C,R5*%
X126700000Y-94435000D03*
X126700000Y-92565000D03*
%TD*%
D11*
%TO.C,D10*%
X155000000Y-97187500D03*
X155000000Y-99537500D03*
%TD*%
D21*
%TO.C,R19*%
X151300000Y-106565000D03*
X151300000Y-108435000D03*
%TD*%
D11*
%TO.C,D3*%
X124500000Y-71075000D03*
X124500000Y-73425000D03*
%TD*%
D22*
%TO.C,J3*%
X157300000Y-105900000D03*
D23*
X155300000Y-105900000D03*
%TD*%
D10*
%TO.C,R3*%
X126800000Y-73635000D03*
X126800000Y-71765000D03*
%TD*%
D11*
%TO.C,D5*%
X124500000Y-91825000D03*
X124500000Y-94175000D03*
%TD*%
D16*
%TO.C,J15*%
X116250000Y-91000000D03*
D13*
X116250000Y-93000000D03*
%TD*%
D14*
%TO.C,D15*%
X142100000Y-113975000D03*
X142100000Y-111625000D03*
%TD*%
M02*
