M48
; DRILL file {KiCad 9.0.7} date 2026-05-09T17:10:10-0700
; FORMAT={-:-/ absolute / metric / decimal}
; #@! TF.CreationDate,2026-05-09T17:10:10-07:00
; #@! TF.GenerationSoftware,Kicad,Pcbnew,9.0.7
; #@! TF.FileFunction,Plated,1,2,PTH
FMAT,2
METRIC
; #@! TA.AperFunction,Plated,PTH,ViaDrill
T1C0.300
; #@! TA.AperFunction,Plated,PTH,ComponentDrill
T2C0.750
; #@! TA.AperFunction,Plated,PTH,ComponentDrill
T3C1.000
; #@! TA.AperFunction,Plated,PTH,ComponentDrill
T4C3.200
%
G90
G05
T1
X121.0Y-107.025
X124.25Y-81.575
X124.5Y-54.575
X124.5Y-71.075
X124.5Y-91.825
X124.65Y-63.325
X125.4Y-112.65
X128.7Y-112.535
X133.297Y-113.975
X137.8Y-113.94
X142.1Y-113.975
X146.197Y-113.926
X149.6Y-113.975
X154.5Y-60.075
X154.5Y-72.575
X154.5Y-80.575
X154.6Y-89.075
X154.9Y-113.935
X155.0Y-97.188
X158.0Y-113.935
T2
X116.25Y-81.0
X116.25Y-83.0
X116.25Y-91.0
X116.25Y-93.0
X116.3Y-61.0
X116.3Y-63.0
X116.3Y-71.0
X116.3Y-73.0
X116.3Y-101.0
X116.3Y-103.0
X123.5Y-102.85
X125.5Y-102.85
X155.3Y-105.9
X157.3Y-105.9
X162.7Y-61.0
X162.7Y-63.0
X162.7Y-71.25
X162.7Y-73.25
X162.75Y-81.0
X162.75Y-83.0
X162.75Y-91.0
X162.75Y-93.0
X162.75Y-101.0
X162.75Y-103.0
T3
X120.8Y-71.08
X120.8Y-73.62
X120.8Y-76.16
X120.8Y-78.7
X120.8Y-81.24
X120.8Y-83.78
X130.75Y-51.01
X130.75Y-53.55
X130.75Y-56.09
X130.75Y-58.63
X130.75Y-61.17
X130.75Y-63.71
X130.75Y-66.25
X130.75Y-68.79
X130.75Y-71.33
X130.75Y-73.87
X130.75Y-76.41
X130.75Y-78.95
X130.75Y-81.49
X130.75Y-84.03
X130.75Y-86.57
X130.75Y-89.11
X130.75Y-91.65
X130.75Y-94.19
X130.75Y-96.73
X130.75Y-99.27
X132.01Y-103.75
X134.55Y-103.75
X137.09Y-103.75
X139.63Y-103.75
X142.17Y-103.75
X144.71Y-103.75
X147.25Y-103.75
X148.5Y-51.0
X148.5Y-53.54
X148.5Y-56.08
X148.5Y-58.62
X148.5Y-61.16
X148.5Y-63.7
X148.5Y-66.24
X148.5Y-68.78
X148.5Y-71.32
X148.5Y-73.86
X148.5Y-76.4
X148.5Y-78.94
X148.5Y-81.48
X148.5Y-84.02
X148.5Y-86.56
X148.5Y-89.1
X148.5Y-91.64
X148.5Y-94.18
X148.5Y-96.72
X148.5Y-99.26
X158.3Y-71.42
X158.3Y-73.96
X158.3Y-76.5
X158.3Y-79.04
X158.3Y-81.58
X158.3Y-84.12
T4
X116.25Y-53.3
X116.25Y-111.25
X162.75Y-53.3
X162.75Y-111.25
M30
