%TF.GenerationSoftware,KiCad,Pcbnew,9.0.7*%
%TF.CreationDate,2026-05-09T17:10:02-07:00*%
%TF.ProjectId,elec-thruster-control-board,656c6563-2d74-4687-9275-737465722d63,rev?*%
%TF.SameCoordinates,Original*%
%TF.FileFunction,Copper,L2,Bot*%
%TF.FilePolarity,Positive*%
%FSLAX46Y46*%
G04 Gerber Fmt 4.6, Leading zero omitted, Abs format (unit mm)*
G04 Created by KiCad (PCBNEW 9.0.7) date 2026-05-09 17:10:02*
%MOMM*%
%LPD*%
G01*
G04 APERTURE LIST*
G04 Aperture macros list*
%AMRoundRect*
0 Rectangle with rounded corners*
0 $1 Rounding radius*
0 $2 $3 $4 $5 $6 $7 $8 $9 X,Y pos of 4 corners*
0 Add a 4 corners polygon primitive as box body*
4,1,4,$2,$3,$4,$5,$6,$7,$8,$9,$2,$3,0*
0 Add four circle primitives for the rounded corners*
1,1,$1+$1,$2,$3*
1,1,$1+$1,$4,$5*
1,1,$1+$1,$6,$7*
1,1,$1+$1,$8,$9*
0 Add four rect primitives between the rounded corners*
20,1,$1+$1,$2,$3,$4,$5,0*
20,1,$1+$1,$4,$5,$6,$7,0*
20,1,$1+$1,$6,$7,$8,$9,0*
20,1,$1+$1,$8,$9,$2,$3,0*%
G04 Aperture macros list end*
%TA.AperFunction,ComponentPad*%
%ADD10RoundRect,0.250000X0.625000X-0.350000X0.625000X0.350000X-0.625000X0.350000X-0.625000X-0.350000X0*%
%TD*%
%TA.AperFunction,ComponentPad*%
%ADD11O,1.750000X1.200000*%
%TD*%
%TA.AperFunction,ComponentPad*%
%ADD12C,5.600000*%
%TD*%
%TA.AperFunction,ComponentPad*%
%ADD13RoundRect,0.250000X-0.625000X0.350000X-0.625000X-0.350000X0.625000X-0.350000X0.625000X0.350000X0*%
%TD*%
%TA.AperFunction,ComponentPad*%
%ADD14R,1.700000X1.700000*%
%TD*%
%TA.AperFunction,ComponentPad*%
%ADD15C,1.700000*%
%TD*%
%TA.AperFunction,ComponentPad*%
%ADD16RoundRect,0.250000X0.350000X0.625000X-0.350000X0.625000X-0.350000X-0.625000X0.350000X-0.625000X0*%
%TD*%
%TA.AperFunction,ComponentPad*%
%ADD17O,1.200000X1.750000*%
%TD*%
%TA.AperFunction,ViaPad*%
%ADD18C,0.600000*%
%TD*%
G04 APERTURE END LIST*
D10*
%TO.P,J20,1,Pin_1*%
%TO.N,GND*%
X162700000Y-73250000D03*
D11*
%TO.P,J20,2,Pin_2*%
%TO.N,/gp26-pwm5A*%
X162700000Y-71250000D03*
%TD*%
D12*
%TO.P,H4,1*%
%TO.N,N/C*%
X162750000Y-111250000D03*
%TD*%
D10*
%TO.P,J11,1,Pin_1*%
%TO.N,GND*%
X162750000Y-103000000D03*
D11*
%TO.P,J11,2,Pin_2*%
%TO.N,/gp17-pwm0B*%
X162750000Y-101000000D03*
%TD*%
D13*
%TO.P,J12,1,Pin_1*%
%TO.N,GND*%
X116300000Y-71000000D03*
D11*
%TO.P,J12,2,Pin_2*%
%TO.N,/gp2-pwm1A*%
X116300000Y-73000000D03*
%TD*%
D14*
%TO.P,J24,1,Pin_1*%
%TO.N,GND*%
X158300000Y-84120000D03*
D15*
%TO.P,J24,2,Pin_2*%
%TO.N,/gp17-pwm0B*%
X158300000Y-81580000D03*
%TO.P,J24,3,Pin_3*%
%TO.N,/gp19-pwm1B*%
X158300000Y-79040000D03*
%TO.P,J24,4,Pin_4*%
%TO.N,/gp21-pwm2B*%
X158300000Y-76500000D03*
%TO.P,J24,5,Pin_5*%
%TO.N,/gp26-pwm5A*%
X158300000Y-73960000D03*
%TO.P,J24,6,Pin_6*%
%TO.N,/gp27-pwm5B*%
X158300000Y-71420000D03*
%TD*%
D13*
%TO.P,J2,1,Pin_1*%
%TO.N,GND*%
X116300000Y-61000000D03*
D11*
%TO.P,J2,2,Pin_2*%
%TO.N,/gp0-pwm0A*%
X116300000Y-63000000D03*
%TD*%
D13*
%TO.P,J5,1,Pin_1*%
%TO.N,GND*%
X116250000Y-81000000D03*
D11*
%TO.P,J5,2,Pin_2*%
%TO.N,/gp4-pwm2A*%
X116250000Y-83000000D03*
%TD*%
D14*
%TO.P,J13,1,Pin_1*%
%TO.N,Net-(J13-Pin_1)*%
X147250000Y-103750000D03*
D15*
%TO.P,J13,2,Pin_2*%
%TO.N,Net-(J13-Pin_2)*%
X144710000Y-103750000D03*
%TO.P,J13,3,Pin_3*%
%TO.N,Net-(J13-Pin_3)*%
X142170000Y-103750000D03*
%TO.P,J13,4,Pin_4*%
%TO.N,Net-(J13-Pin_4)*%
X139630000Y-103750000D03*
%TO.P,J13,5,Pin_5*%
%TO.N,Net-(J13-Pin_5)*%
X137090000Y-103750000D03*
%TO.P,J13,6,Pin_6*%
%TO.N,Net-(J13-Pin_6)*%
X134550000Y-103750000D03*
%TO.P,J13,7,Pin_7*%
%TO.N,GND*%
X132010000Y-103750000D03*
%TD*%
D14*
%TO.P,J6,1,Pin_1*%
%TO.N,unconnected-(J6-Pin_1-Pad1)*%
X148500000Y-51000000D03*
D15*
%TO.P,J6,2,Pin_2*%
%TO.N,unconnected-(J6-Pin_2-Pad2)*%
X148500000Y-53540000D03*
%TO.P,J6,3,Pin_3*%
%TO.N,GND*%
X148500000Y-56080000D03*
%TO.P,J6,4,Pin_4*%
%TO.N,unconnected-(J6-Pin_4-Pad4)*%
X148500000Y-58620000D03*
%TO.P,J6,5,Pin_5*%
%TO.N,unconnected-(J6-Pin_5-Pad5)*%
X148500000Y-61160000D03*
%TO.P,J6,6,Pin_6*%
%TO.N,unconnected-(J6-Pin_6-Pad6)*%
X148500000Y-63700000D03*
%TO.P,J6,7,Pin_7*%
%TO.N,Net-(J6-Pin_7)*%
X148500000Y-66240000D03*
%TO.P,J6,8,Pin_8*%
%TO.N,GND*%
X148500000Y-68780000D03*
%TO.P,J6,9,Pin_9*%
%TO.N,/gp27-pwm5B*%
X148500000Y-71320000D03*
%TO.P,J6,10,Pin_10*%
%TO.N,/gp26-pwm5A*%
X148500000Y-73860000D03*
%TO.P,J6,11,Pin_11*%
%TO.N,unconnected-(J6-Pin_11-Pad11)*%
X148500000Y-76400000D03*
%TO.P,J6,12,Pin_12*%
%TO.N,Net-(J6-Pin_12)*%
X148500000Y-78940000D03*
%TO.P,J6,13,Pin_13*%
%TO.N,GND*%
X148500000Y-81480000D03*
%TO.P,J6,14,Pin_14*%
%TO.N,/gp21-pwm2B*%
X148500000Y-84020000D03*
%TO.P,J6,15,Pin_15*%
%TO.N,Net-(J6-Pin_15)*%
X148500000Y-86560000D03*
%TO.P,J6,16,Pin_16*%
%TO.N,/gp19-pwm1B*%
X148500000Y-89100000D03*
%TO.P,J6,17,Pin_17*%
%TO.N,Net-(J6-Pin_17)*%
X148500000Y-91640000D03*
%TO.P,J6,18,Pin_18*%
%TO.N,GND*%
X148500000Y-94180000D03*
%TO.P,J6,19,Pin_19*%
%TO.N,/gp17-pwm0B*%
X148500000Y-96720000D03*
%TO.P,J6,20,Pin_20*%
%TO.N,Net-(J6-Pin_20)*%
X148500000Y-99260000D03*
%TD*%
D12*
%TO.P,H2,1*%
%TO.N,N/C*%
X162750000Y-53300000D03*
%TD*%
%TO.P,H3,1*%
%TO.N,N/C*%
X116250000Y-111250000D03*
%TD*%
D10*
%TO.P,J21,1,Pin_1*%
%TO.N,GND*%
X162700000Y-63000000D03*
D11*
%TO.P,J21,2,Pin_2*%
%TO.N,/gp27-pwm5B*%
X162700000Y-61000000D03*
%TD*%
D12*
%TO.P,H1,1*%
%TO.N,N/C*%
X116250000Y-53300000D03*
%TD*%
D10*
%TO.P,J19,1,Pin_1*%
%TO.N,GND*%
X162750000Y-83000000D03*
D11*
%TO.P,J19,2,Pin_2*%
%TO.N,/gp21-pwm2B*%
X162750000Y-81000000D03*
%TD*%
D13*
%TO.P,J16,1,Pin_1*%
%TO.N,GND*%
X116300000Y-101000000D03*
D11*
%TO.P,J16,2,Pin_2*%
%TO.N,/gp8-pwm4A*%
X116300000Y-103000000D03*
%TD*%
D10*
%TO.P,J18,1,Pin_1*%
%TO.N,GND*%
X162750000Y-93000000D03*
D11*
%TO.P,J18,2,Pin_2*%
%TO.N,/gp19-pwm1B*%
X162750000Y-91000000D03*
%TD*%
D16*
%TO.P,J1,1,Pin_1*%
%TO.N,GND*%
X125500000Y-102850000D03*
D17*
%TO.P,J1,2,Pin_2*%
%TO.N,Net-(J1-Pin_2)*%
X123500000Y-102850000D03*
%TD*%
D14*
%TO.P,J4,1,Pin_1*%
%TO.N,/gp0-pwm0A*%
X130750000Y-51010000D03*
D15*
%TO.P,J4,2,Pin_2*%
%TO.N,Net-(J4-Pin_2)*%
X130750000Y-53550000D03*
%TO.P,J4,3,Pin_3*%
%TO.N,GND*%
X130750000Y-56090000D03*
%TO.P,J4,4,Pin_4*%
%TO.N,/gp2-pwm1A*%
X130750000Y-58630000D03*
%TO.P,J4,5,Pin_5*%
%TO.N,Net-(J4-Pin_5)*%
X130750000Y-61170000D03*
%TO.P,J4,6,Pin_6*%
%TO.N,/gp4-pwm2A*%
X130750000Y-63710000D03*
%TO.P,J4,7,Pin_7*%
%TO.N,Net-(J4-Pin_7)*%
X130750000Y-66250000D03*
%TO.P,J4,8,Pin_8*%
%TO.N,GND*%
X130750000Y-68790000D03*
%TO.P,J4,9,Pin_9*%
%TO.N,/gp6-pwm3A*%
X130750000Y-71330000D03*
%TO.P,J4,10,Pin_10*%
%TO.N,Net-(J4-Pin_10)*%
X130750000Y-73870000D03*
%TO.P,J4,11,Pin_11*%
%TO.N,/gp8-pwm4A*%
X130750000Y-76410000D03*
%TO.P,J4,12,Pin_12*%
%TO.N,Net-(J4-Pin_12)*%
X130750000Y-78950000D03*
%TO.P,J4,13,Pin_13*%
%TO.N,GND*%
X130750000Y-81490000D03*
%TO.P,J4,14,Pin_14*%
%TO.N,Net-(J13-Pin_1)*%
X130750000Y-84030000D03*
%TO.P,J4,15,Pin_15*%
%TO.N,Net-(J13-Pin_2)*%
X130750000Y-86570000D03*
%TO.P,J4,16,Pin_16*%
%TO.N,Net-(J13-Pin_3)*%
X130750000Y-89110000D03*
%TO.P,J4,17,Pin_17*%
%TO.N,Net-(J13-Pin_4)*%
X130750000Y-91650000D03*
%TO.P,J4,18,Pin_18*%
%TO.N,GND*%
X130750000Y-94190000D03*
%TO.P,J4,19,Pin_19*%
%TO.N,Net-(J13-Pin_5)*%
X130750000Y-96730000D03*
%TO.P,J4,20,Pin_20*%
%TO.N,Net-(J13-Pin_6)*%
X130750000Y-99270000D03*
%TD*%
D14*
%TO.P,J22,1,Pin_1*%
%TO.N,GND*%
X120800000Y-83780000D03*
D15*
%TO.P,J22,2,Pin_2*%
%TO.N,/gp8-pwm4A*%
X120800000Y-81240000D03*
%TO.P,J22,3,Pin_3*%
%TO.N,/gp6-pwm3A*%
X120800000Y-78700000D03*
%TO.P,J22,4,Pin_4*%
%TO.N,/gp4-pwm2A*%
X120800000Y-76160000D03*
%TO.P,J22,5,Pin_5*%
%TO.N,/gp2-pwm1A*%
X120800000Y-73620000D03*
%TO.P,J22,6,Pin_6*%
%TO.N,/gp0-pwm0A*%
X120800000Y-71080000D03*
%TD*%
D16*
%TO.P,J3,1,Pin_1*%
%TO.N,GND*%
X157300000Y-105900000D03*
D17*
%TO.P,J3,2,Pin_2*%
%TO.N,Net-(J3-Pin_2)*%
X155300000Y-105900000D03*
%TD*%
D13*
%TO.P,J15,1,Pin_1*%
%TO.N,GND*%
X116250000Y-91000000D03*
D11*
%TO.P,J15,2,Pin_2*%
%TO.N,/gp6-pwm3A*%
X116250000Y-93000000D03*
%TD*%
D18*
%TO.N,GND*%
X137800000Y-113940000D03*
X124650000Y-63325000D03*
X128700000Y-112535000D03*
X142100000Y-113975000D03*
X146196900Y-113926250D03*
X154500000Y-80575000D03*
X154500000Y-72575000D03*
X121000000Y-107025000D03*
X154500000Y-60075000D03*
X133296900Y-113975000D03*
X154900000Y-113935000D03*
X124500000Y-71075000D03*
X124500000Y-91825000D03*
X155000000Y-97187500D03*
X125400000Y-112650000D03*
X124500000Y-54575000D03*
X124250000Y-81575000D03*
X158000000Y-113935000D03*
X149600000Y-113975000D03*
X154600000Y-89075000D03*
%TD*%
%TA.AperFunction,Conductor*%
%TO.N,GND*%
G36*
X164053472Y-49300695D02*
G01*
X164345306Y-49317084D01*
X164359103Y-49318638D01*
X164643827Y-49367015D01*
X164657384Y-49370109D01*
X164934899Y-49450060D01*
X164948025Y-49454653D01*
X165214841Y-49565172D01*
X165227355Y-49571198D01*
X165380626Y-49655908D01*
X165480125Y-49710899D01*
X165491899Y-49718297D01*
X165727430Y-49885415D01*
X165738302Y-49894085D01*
X165891831Y-50031287D01*
X165953642Y-50086524D01*
X165963473Y-50096355D01*
X165977499Y-50112050D01*
X166155914Y-50311697D01*
X166164584Y-50322569D01*
X166331702Y-50558100D01*
X166339100Y-50569874D01*
X166478797Y-50822637D01*
X166484830Y-50835165D01*
X166595346Y-51101975D01*
X166599939Y-51115100D01*
X166679890Y-51392615D01*
X166682984Y-51406172D01*
X166731359Y-51690885D01*
X166732916Y-51704703D01*
X166749305Y-51996527D01*
X166749500Y-52003480D01*
X166749500Y-112546519D01*
X166749305Y-112553472D01*
X166732916Y-112845296D01*
X166731359Y-112859114D01*
X166682984Y-113143827D01*
X166679890Y-113157384D01*
X166599939Y-113434899D01*
X166595346Y-113448024D01*
X166484830Y-113714834D01*
X166478797Y-113727362D01*
X166339100Y-113980125D01*
X166331702Y-113991899D01*
X166164584Y-114227430D01*
X166155914Y-114238302D01*
X165963475Y-114453642D01*
X165953642Y-114463475D01*
X165738302Y-114655914D01*
X165727430Y-114664584D01*
X165491899Y-114831702D01*
X165480125Y-114839100D01*
X165227362Y-114978797D01*
X165214834Y-114984830D01*
X164948024Y-115095346D01*
X164934899Y-115099939D01*
X164657384Y-115179890D01*
X164643827Y-115182984D01*
X164359114Y-115231359D01*
X164345296Y-115232916D01*
X164053472Y-115249305D01*
X164046519Y-115249500D01*
X114953481Y-115249500D01*
X114946528Y-115249305D01*
X114654703Y-115232916D01*
X114640885Y-115231359D01*
X114356172Y-115182984D01*
X114342615Y-115179890D01*
X114065100Y-115099939D01*
X114051975Y-115095346D01*
X113785165Y-114984830D01*
X113772637Y-114978797D01*
X113519874Y-114839100D01*
X113508100Y-114831702D01*
X113272569Y-114664584D01*
X113261697Y-114655914D01*
X113046357Y-114463475D01*
X113036524Y-114453642D01*
X112844085Y-114238302D01*
X112835415Y-114227430D01*
X112668297Y-113991899D01*
X112660899Y-113980125D01*
X112521202Y-113727362D01*
X112515172Y-113714841D01*
X112404653Y-113448024D01*
X112400060Y-113434899D01*
X112320109Y-113157384D01*
X112317015Y-113143827D01*
X112283887Y-112948848D01*
X112268638Y-112859103D01*
X112267084Y-112845306D01*
X112250695Y-112553472D01*
X112250500Y-112546519D01*
X112250500Y-111087860D01*
X112949500Y-111087860D01*
X112949500Y-111412139D01*
X112981284Y-111734857D01*
X112981287Y-111734874D01*
X113044545Y-112052902D01*
X113044548Y-112052913D01*
X113138686Y-112363247D01*
X113262786Y-112662849D01*
X113262788Y-112662854D01*
X113415646Y-112948830D01*
X113415657Y-112948848D01*
X113595811Y-113218467D01*
X113595821Y-113218481D01*
X113801546Y-113469158D01*
X114030841Y-113698453D01*
X114030846Y-113698457D01*
X114030847Y-113698458D01*
X114281524Y-113904183D01*
X114551158Y-114084347D01*
X114551167Y-114084352D01*
X114551169Y-114084353D01*
X114837145Y-114237211D01*
X114837147Y-114237211D01*
X114837153Y-114237215D01*
X115136754Y-114361314D01*
X115447077Y-114455449D01*
X115447083Y-114455450D01*
X115447086Y-114455451D01*
X115447097Y-114455454D01*
X115646528Y-114495122D01*
X115765132Y-114518714D01*
X116087857Y-114550500D01*
X116087860Y-114550500D01*
X116412140Y-114550500D01*
X116412143Y-114550500D01*
X116734868Y-114518714D01*
X116892295Y-114487399D01*
X117052902Y-114455454D01*
X117052913Y-114455451D01*
X117052913Y-114455450D01*
X117052923Y-114455449D01*
X117363246Y-114361314D01*
X117662847Y-114237215D01*
X117948842Y-114084347D01*
X118218476Y-113904183D01*
X118469153Y-113698458D01*
X118698458Y-113469153D01*
X118904183Y-113218476D01*
X119084347Y-112948842D01*
X119237215Y-112662847D01*
X119361314Y-112363246D01*
X119455449Y-112052923D01*
X119455451Y-112052913D01*
X119455454Y-112052902D01*
X119487399Y-111892295D01*
X119518714Y-111734868D01*
X119550500Y-111412143D01*
X119550500Y-111087860D01*
X159449500Y-111087860D01*
X159449500Y-111412139D01*
X159481284Y-111734857D01*
X159481287Y-111734874D01*
X159544545Y-112052902D01*
X159544548Y-112052913D01*
X159638686Y-112363247D01*
X159762786Y-112662849D01*
X159762788Y-112662854D01*
X159915646Y-112948830D01*
X159915657Y-112948848D01*
X160095811Y-113218467D01*
X160095821Y-113218481D01*
X160301546Y-113469158D01*
X160530841Y-113698453D01*
X160530846Y-113698457D01*
X160530847Y-113698458D01*
X160781524Y-113904183D01*
X161051158Y-114084347D01*
X161051167Y-114084352D01*
X161051169Y-114084353D01*
X161337145Y-114237211D01*
X161337147Y-114237211D01*
X161337153Y-114237215D01*
X161636754Y-114361314D01*
X161947077Y-114455449D01*
X161947083Y-114455450D01*
X161947086Y-114455451D01*
X161947097Y-114455454D01*
X162146528Y-114495122D01*
X162265132Y-114518714D01*
X162587857Y-114550500D01*
X162587860Y-114550500D01*
X162912140Y-114550500D01*
X162912143Y-114550500D01*
X163234868Y-114518714D01*
X163392295Y-114487399D01*
X163552902Y-114455454D01*
X163552913Y-114455451D01*
X163552913Y-114455450D01*
X163552923Y-114455449D01*
X163863246Y-114361314D01*
X164162847Y-114237215D01*
X164448842Y-114084347D01*
X164718476Y-113904183D01*
X164969153Y-113698458D01*
X165198458Y-113469153D01*
X165404183Y-113218476D01*
X165584347Y-112948842D01*
X165737215Y-112662847D01*
X165861314Y-112363246D01*
X165955449Y-112052923D01*
X165955451Y-112052913D01*
X165955454Y-112052902D01*
X165987399Y-111892295D01*
X166018714Y-111734868D01*
X166050500Y-111412143D01*
X166050500Y-111087857D01*
X166018714Y-110765132D01*
X165995122Y-110646528D01*
X165955454Y-110447097D01*
X165955451Y-110447086D01*
X165955450Y-110447083D01*
X165955449Y-110447077D01*
X165861314Y-110136754D01*
X165737215Y-109837153D01*
X165584347Y-109551158D01*
X165404183Y-109281524D01*
X165198458Y-109030847D01*
X165198457Y-109030846D01*
X165198453Y-109030841D01*
X164969158Y-108801546D01*
X164718481Y-108595821D01*
X164718480Y-108595820D01*
X164718476Y-108595817D01*
X164448842Y-108415653D01*
X164448837Y-108415650D01*
X164448830Y-108415646D01*
X164162854Y-108262788D01*
X164162849Y-108262786D01*
X163863247Y-108138686D01*
X163552913Y-108044548D01*
X163552902Y-108044545D01*
X163234874Y-107981287D01*
X163234857Y-107981284D01*
X162990812Y-107957248D01*
X162912143Y-107949500D01*
X162587857Y-107949500D01*
X162515099Y-107956666D01*
X162265142Y-107981284D01*
X162265125Y-107981287D01*
X161947097Y-108044545D01*
X161947086Y-108044548D01*
X161636752Y-108138686D01*
X161337150Y-108262786D01*
X161337145Y-108262788D01*
X161051169Y-108415646D01*
X161051151Y-108415657D01*
X160781532Y-108595811D01*
X160781518Y-108595821D01*
X160530841Y-108801546D01*
X160301546Y-109030841D01*
X160095821Y-109281518D01*
X160095811Y-109281532D01*
X159915657Y-109551151D01*
X159915646Y-109551169D01*
X159762788Y-109837145D01*
X159762786Y-109837150D01*
X159638686Y-110136752D01*
X159544548Y-110447086D01*
X159544545Y-110447097D01*
X159481287Y-110765125D01*
X159481284Y-110765142D01*
X159449500Y-111087860D01*
X119550500Y-111087860D01*
X119550500Y-111087857D01*
X119518714Y-110765132D01*
X119495122Y-110646528D01*
X119455454Y-110447097D01*
X119455451Y-110447086D01*
X119455450Y-110447083D01*
X119455449Y-110447077D01*
X119361314Y-110136754D01*
X119237215Y-109837153D01*
X119084347Y-109551158D01*
X118904183Y-109281524D01*
X118698458Y-109030847D01*
X118698457Y-109030846D01*
X118698453Y-109030841D01*
X118469158Y-108801546D01*
X118218481Y-108595821D01*
X118218480Y-108595820D01*
X118218476Y-108595817D01*
X117948842Y-108415653D01*
X117948837Y-108415650D01*
X117948830Y-108415646D01*
X117662854Y-108262788D01*
X117662849Y-108262786D01*
X117363247Y-108138686D01*
X117052913Y-108044548D01*
X117052902Y-108044545D01*
X116734874Y-107981287D01*
X116734857Y-107981284D01*
X116490812Y-107957248D01*
X116412143Y-107949500D01*
X116087857Y-107949500D01*
X116015099Y-107956666D01*
X115765142Y-107981284D01*
X115765125Y-107981287D01*
X115447097Y-108044545D01*
X115447086Y-108044548D01*
X115136752Y-108138686D01*
X114837150Y-108262786D01*
X114837145Y-108262788D01*
X114551169Y-108415646D01*
X114551151Y-108415657D01*
X114281532Y-108595811D01*
X114281518Y-108595821D01*
X114030841Y-108801546D01*
X113801546Y-109030841D01*
X113595821Y-109281518D01*
X113595811Y-109281532D01*
X113415657Y-109551151D01*
X113415646Y-109551169D01*
X113262788Y-109837145D01*
X113262786Y-109837150D01*
X113138686Y-110136752D01*
X113044548Y-110447086D01*
X113044545Y-110447097D01*
X112981287Y-110765125D01*
X112981284Y-110765142D01*
X112949500Y-111087860D01*
X112250500Y-111087860D01*
X112250500Y-105538389D01*
X154199500Y-105538389D01*
X154199500Y-106261611D01*
X154226598Y-106432701D01*
X154280127Y-106597445D01*
X154358768Y-106751788D01*
X154460586Y-106891928D01*
X154583072Y-107014414D01*
X154723212Y-107116232D01*
X154877555Y-107194873D01*
X155042299Y-107248402D01*
X155213389Y-107275500D01*
X155213390Y-107275500D01*
X155386610Y-107275500D01*
X155386611Y-107275500D01*
X155557701Y-107248402D01*
X155722445Y-107194873D01*
X155876788Y-107116232D01*
X156016928Y-107014414D01*
X156124836Y-106906505D01*
X156186155Y-106873023D01*
X156255847Y-106878007D01*
X156311781Y-106919878D01*
X156318053Y-106929093D01*
X156357682Y-106993343D01*
X156481654Y-107117315D01*
X156630875Y-107209356D01*
X156630880Y-107209358D01*
X156797302Y-107264505D01*
X156797309Y-107264506D01*
X156900019Y-107274999D01*
X157049999Y-107274999D01*
X157050000Y-107274998D01*
X157050000Y-106180330D01*
X157069745Y-106200075D01*
X157155255Y-106249444D01*
X157250630Y-106275000D01*
X157349370Y-106275000D01*
X157444745Y-106249444D01*
X157530255Y-106200075D01*
X157550000Y-106180330D01*
X157550000Y-107274999D01*
X157699972Y-107274999D01*
X157699986Y-107274998D01*
X157802697Y-107264505D01*
X157969119Y-107209358D01*
X157969124Y-107209356D01*
X158118345Y-107117315D01*
X158242315Y-106993345D01*
X158334356Y-106844124D01*
X158334358Y-106844119D01*
X158389505Y-106677697D01*
X158389506Y-106677690D01*
X158399999Y-106574986D01*
X158400000Y-106574973D01*
X158400000Y-106150000D01*
X157580330Y-106150000D01*
X157600075Y-106130255D01*
X157649444Y-106044745D01*
X157675000Y-105949370D01*
X157675000Y-105850630D01*
X157649444Y-105755255D01*
X157600075Y-105669745D01*
X157580330Y-105650000D01*
X158399999Y-105650000D01*
X158399999Y-105225028D01*
X158399998Y-105225013D01*
X158389505Y-105122302D01*
X158334358Y-104955880D01*
X158334356Y-104955875D01*
X158242315Y-104806654D01*
X158118345Y-104682684D01*
X157969124Y-104590643D01*
X157969119Y-104590641D01*
X157802697Y-104535494D01*
X157802690Y-104535493D01*
X157699986Y-104525000D01*
X157550000Y-104525000D01*
X157550000Y-105619670D01*
X157530255Y-105599925D01*
X157444745Y-105550556D01*
X157349370Y-105525000D01*
X157250630Y-105525000D01*
X157155255Y-105550556D01*
X157069745Y-105599925D01*
X157050000Y-105619670D01*
X157050000Y-104525000D01*
X156900027Y-104525000D01*
X156900012Y-104525001D01*
X156797302Y-104535494D01*
X156630880Y-104590641D01*
X156630875Y-104590643D01*
X156481654Y-104682684D01*
X156357684Y-104806654D01*
X156318053Y-104870907D01*
X156266105Y-104917631D01*
X156197142Y-104928853D01*
X156133060Y-104901010D01*
X156124833Y-104893491D01*
X156016930Y-104785588D01*
X156016928Y-104785586D01*
X155876788Y-104683768D01*
X155722445Y-104605127D01*
X155557701Y-104551598D01*
X155557699Y-104551597D01*
X155557698Y-104551597D01*
X155426271Y-104530781D01*
X155386611Y-104524500D01*
X155213389Y-104524500D01*
X155173728Y-104530781D01*
X155042302Y-104551597D01*
X154877552Y-104605128D01*
X154723211Y-104683768D01*
X154643256Y-104741859D01*
X154583072Y-104785586D01*
X154583070Y-104785588D01*
X154583069Y-104785588D01*
X154460588Y-104908069D01*
X154460588Y-104908070D01*
X154460586Y-104908072D01*
X154453641Y-104917631D01*
X154358768Y-105048211D01*
X154280128Y-105202552D01*
X154226597Y-105367302D01*
X154201621Y-105525000D01*
X154199500Y-105538389D01*
X112250500Y-105538389D01*
X112250500Y-102913389D01*
X114924500Y-102913389D01*
X114924500Y-103086610D01*
X114946418Y-103225000D01*
X114951598Y-103257701D01*
X115005127Y-103422445D01*
X115083768Y-103576788D01*
X115185586Y-103716928D01*
X115308072Y-103839414D01*
X115448212Y-103941232D01*
X115602555Y-104019873D01*
X115767299Y-104073402D01*
X115938389Y-104100500D01*
X115938390Y-104100500D01*
X116661610Y-104100500D01*
X116661611Y-104100500D01*
X116832701Y-104073402D01*
X116997445Y-104019873D01*
X117151788Y-103941232D01*
X117291928Y-103839414D01*
X117414414Y-103716928D01*
X117516232Y-103576788D01*
X117594873Y-103422445D01*
X117648402Y-103257701D01*
X117675500Y-103086611D01*
X117675500Y-102913389D01*
X117648402Y-102742299D01*
X117594873Y-102577555D01*
X117553986Y-102497309D01*
X117549441Y-102488389D01*
X122399500Y-102488389D01*
X122399500Y-103211610D01*
X122421330Y-103349444D01*
X122426598Y-103382701D01*
X122480127Y-103547445D01*
X122558768Y-103701788D01*
X122660586Y-103841928D01*
X122783072Y-103964414D01*
X122923212Y-104066232D01*
X123077555Y-104144873D01*
X123242299Y-104198402D01*
X123413389Y-104225500D01*
X123413390Y-104225500D01*
X123586610Y-104225500D01*
X123586611Y-104225500D01*
X123757701Y-104198402D01*
X123922445Y-104144873D01*
X124076788Y-104066232D01*
X124216928Y-103964414D01*
X124324836Y-103856505D01*
X124386155Y-103823023D01*
X124455847Y-103828007D01*
X124511781Y-103869878D01*
X124518053Y-103879093D01*
X124557682Y-103943343D01*
X124681654Y-104067315D01*
X124830875Y-104159356D01*
X124830880Y-104159358D01*
X124997302Y-104214505D01*
X124997309Y-104214506D01*
X125100019Y-104224999D01*
X125249999Y-104224999D01*
X125250000Y-104224998D01*
X125250000Y-103130330D01*
X125269745Y-103150075D01*
X125355255Y-103199444D01*
X125450630Y-103225000D01*
X125549370Y-103225000D01*
X125644745Y-103199444D01*
X125730255Y-103150075D01*
X125750000Y-103130330D01*
X125750000Y-104224999D01*
X125899972Y-104224999D01*
X125899986Y-104224998D01*
X126002697Y-104214505D01*
X126169119Y-104159358D01*
X126169124Y-104159356D01*
X126318345Y-104067315D01*
X126442315Y-103943345D01*
X126534356Y-103794124D01*
X126534358Y-103794119D01*
X126584185Y-103643753D01*
X130660000Y-103643753D01*
X130660000Y-103856246D01*
X130693242Y-104066127D01*
X130693242Y-104066130D01*
X130758904Y-104268217D01*
X130855375Y-104457550D01*
X130894728Y-104511716D01*
X131527037Y-103879408D01*
X131544075Y-103942993D01*
X131609901Y-104057007D01*
X131702993Y-104150099D01*
X131817007Y-104215925D01*
X131880590Y-104232962D01*
X131248282Y-104865269D01*
X131248282Y-104865270D01*
X131302449Y-104904624D01*
X131491782Y-105001095D01*
X131693870Y-105066757D01*
X131903754Y-105100000D01*
X132116246Y-105100000D01*
X132326127Y-105066757D01*
X132326130Y-105066757D01*
X132528217Y-105001095D01*
X132717554Y-104904622D01*
X132771716Y-104865270D01*
X132771717Y-104865270D01*
X132139408Y-104232962D01*
X132202993Y-104215925D01*
X132317007Y-104150099D01*
X132410099Y-104057007D01*
X132475925Y-103942993D01*
X132492962Y-103879408D01*
X133125270Y-104511717D01*
X133125270Y-104511716D01*
X133164622Y-104457555D01*
X133169232Y-104448507D01*
X133217205Y-104397709D01*
X133285025Y-104380912D01*
X133351161Y-104403447D01*
X133390204Y-104448504D01*
X133394949Y-104457817D01*
X133519890Y-104629786D01*
X133670213Y-104780109D01*
X133842179Y-104905048D01*
X133842181Y-104905049D01*
X133842184Y-104905051D01*
X134031588Y-105001557D01*
X134233757Y-105067246D01*
X134443713Y-105100500D01*
X134443714Y-105100500D01*
X134656286Y-105100500D01*
X134656287Y-105100500D01*
X134866243Y-105067246D01*
X135068412Y-105001557D01*
X135257816Y-104905051D01*
X135344138Y-104842335D01*
X135429786Y-104780109D01*
X135429788Y-104780106D01*
X135429792Y-104780104D01*
X135580104Y-104629792D01*
X135580106Y-104629788D01*
X135580109Y-104629786D01*
X135705048Y-104457820D01*
X135705050Y-104457817D01*
X135705051Y-104457816D01*
X135709514Y-104449054D01*
X135757488Y-104398259D01*
X135825308Y-104381463D01*
X135891444Y-104403999D01*
X135930486Y-104449056D01*
X135934951Y-104457820D01*
X136059890Y-104629786D01*
X136210213Y-104780109D01*
X136382179Y-104905048D01*
X136382181Y-104905049D01*
X136382184Y-104905051D01*
X136571588Y-105001557D01*
X136773757Y-105067246D01*
X136983713Y-105100500D01*
X136983714Y-105100500D01*
X137196286Y-105100500D01*
X137196287Y-105100500D01*
X137406243Y-105067246D01*
X137608412Y-105001557D01*
X137797816Y-104905051D01*
X137884138Y-104842335D01*
X137969786Y-104780109D01*
X137969788Y-104780106D01*
X137969792Y-104780104D01*
X138120104Y-104629792D01*
X138120106Y-104629788D01*
X138120109Y-104629786D01*
X138245048Y-104457820D01*
X138245050Y-104457817D01*
X138245051Y-104457816D01*
X138249514Y-104449054D01*
X138297488Y-104398259D01*
X138365308Y-104381463D01*
X138431444Y-104403999D01*
X138470486Y-104449056D01*
X138474951Y-104457820D01*
X138599890Y-104629786D01*
X138750213Y-104780109D01*
X138922179Y-104905048D01*
X138922181Y-104905049D01*
X138922184Y-104905051D01*
X139111588Y-105001557D01*
X139313757Y-105067246D01*
X139523713Y-105100500D01*
X139523714Y-105100500D01*
X139736286Y-105100500D01*
X139736287Y-105100500D01*
X139946243Y-105067246D01*
X140148412Y-105001557D01*
X140337816Y-104905051D01*
X140424138Y-104842335D01*
X140509786Y-104780109D01*
X140509788Y-104780106D01*
X140509792Y-104780104D01*
X140660104Y-104629792D01*
X140660106Y-104629788D01*
X140660109Y-104629786D01*
X140785048Y-104457820D01*
X140785050Y-104457817D01*
X140785051Y-104457816D01*
X140789514Y-104449054D01*
X140837488Y-104398259D01*
X140905308Y-104381463D01*
X140971444Y-104403999D01*
X141010486Y-104449056D01*
X141014951Y-104457820D01*
X141139890Y-104629786D01*
X141290213Y-104780109D01*
X141462179Y-104905048D01*
X141462181Y-104905049D01*
X141462184Y-104905051D01*
X141651588Y-105001557D01*
X141853757Y-105067246D01*
X142063713Y-105100500D01*
X142063714Y-105100500D01*
X142276286Y-105100500D01*
X142276287Y-105100500D01*
X142486243Y-105067246D01*
X142688412Y-105001557D01*
X142877816Y-104905051D01*
X142964138Y-104842335D01*
X143049786Y-104780109D01*
X143049788Y-104780106D01*
X143049792Y-104780104D01*
X143200104Y-104629792D01*
X143200106Y-104629788D01*
X143200109Y-104629786D01*
X143325048Y-104457820D01*
X143325050Y-104457817D01*
X143325051Y-104457816D01*
X143329514Y-104449054D01*
X143377488Y-104398259D01*
X143445308Y-104381463D01*
X143511444Y-104403999D01*
X143550486Y-104449056D01*
X143554951Y-104457820D01*
X143679890Y-104629786D01*
X143830213Y-104780109D01*
X144002179Y-104905048D01*
X144002181Y-104905049D01*
X144002184Y-104905051D01*
X144191588Y-105001557D01*
X144393757Y-105067246D01*
X144603713Y-105100500D01*
X144603714Y-105100500D01*
X144816286Y-105100500D01*
X144816287Y-105100500D01*
X145026243Y-105067246D01*
X145228412Y-105001557D01*
X145417816Y-104905051D01*
X145589792Y-104780104D01*
X145703329Y-104666566D01*
X145764648Y-104633084D01*
X145834340Y-104638068D01*
X145890274Y-104679939D01*
X145907189Y-104710917D01*
X145956202Y-104842328D01*
X145956206Y-104842335D01*
X146042452Y-104957544D01*
X146042455Y-104957547D01*
X146157664Y-105043793D01*
X146157671Y-105043797D01*
X146292517Y-105094091D01*
X146292516Y-105094091D01*
X146299444Y-105094835D01*
X146352127Y-105100500D01*
X148147872Y-105100499D01*
X148207483Y-105094091D01*
X148342331Y-105043796D01*
X148457546Y-104957546D01*
X148543796Y-104842331D01*
X148594091Y-104707483D01*
X148600500Y-104647873D01*
X148600499Y-102852128D01*
X148594091Y-102792517D01*
X148592810Y-102789083D01*
X148543797Y-102657671D01*
X148543793Y-102657664D01*
X148457547Y-102542455D01*
X148457544Y-102542452D01*
X148342335Y-102456206D01*
X148342328Y-102456202D01*
X148207482Y-102405908D01*
X148207483Y-102405908D01*
X148147883Y-102399501D01*
X148147881Y-102399500D01*
X148147873Y-102399500D01*
X148147864Y-102399500D01*
X146352129Y-102399500D01*
X146352123Y-102399501D01*
X146292516Y-102405908D01*
X146157671Y-102456202D01*
X146157664Y-102456206D01*
X146042455Y-102542452D01*
X146042452Y-102542455D01*
X145956206Y-102657664D01*
X145956203Y-102657669D01*
X145907189Y-102789083D01*
X145865317Y-102845016D01*
X145799853Y-102869433D01*
X145731580Y-102854581D01*
X145703326Y-102833430D01*
X145589786Y-102719890D01*
X145417820Y-102594951D01*
X145228414Y-102498444D01*
X145228413Y-102498443D01*
X145228412Y-102498443D01*
X145026243Y-102432754D01*
X145026241Y-102432753D01*
X145026240Y-102432753D01*
X144864957Y-102407208D01*
X144816287Y-102399500D01*
X144603713Y-102399500D01*
X144555042Y-102407208D01*
X144393760Y-102432753D01*
X144191585Y-102498444D01*
X144002179Y-102594951D01*
X143830213Y-102719890D01*
X143679890Y-102870213D01*
X143554949Y-103042182D01*
X143550484Y-103050946D01*
X143502509Y-103101742D01*
X143434688Y-103118536D01*
X143368553Y-103095998D01*
X143329516Y-103050946D01*
X143325050Y-103042182D01*
X143200109Y-102870213D01*
X143049786Y-102719890D01*
X142877820Y-102594951D01*
X142688414Y-102498444D01*
X142688413Y-102498443D01*
X142688412Y-102498443D01*
X142486243Y-102432754D01*
X142486241Y-102432753D01*
X142486240Y-102432753D01*
X142324957Y-102407208D01*
X142276287Y-102399500D01*
X142063713Y-102399500D01*
X142015042Y-102407208D01*
X141853760Y-102432753D01*
X141651585Y-102498444D01*
X141462179Y-102594951D01*
X141290213Y-102719890D01*
X141139890Y-102870213D01*
X141014949Y-103042182D01*
X141010484Y-103050946D01*
X140962509Y-103101742D01*
X140894688Y-103118536D01*
X140828553Y-103095998D01*
X140789516Y-103050946D01*
X140785050Y-103042182D01*
X140660109Y-102870213D01*
X140509786Y-102719890D01*
X140337820Y-102594951D01*
X140148414Y-102498444D01*
X140148413Y-102498443D01*
X140148412Y-102498443D01*
X139946243Y-102432754D01*
X139946241Y-102432753D01*
X139946240Y-102432753D01*
X139784957Y-102407208D01*
X139736287Y-102399500D01*
X139523713Y-102399500D01*
X139475042Y-102407208D01*
X139313760Y-102432753D01*
X139111585Y-102498444D01*
X138922179Y-102594951D01*
X138750213Y-102719890D01*
X138599890Y-102870213D01*
X138474949Y-103042182D01*
X138470484Y-103050946D01*
X138422509Y-103101742D01*
X138354688Y-103118536D01*
X138288553Y-103095998D01*
X138249516Y-103050946D01*
X138245050Y-103042182D01*
X138120109Y-102870213D01*
X137969786Y-102719890D01*
X137797820Y-102594951D01*
X137608414Y-102498444D01*
X137608413Y-102498443D01*
X137608412Y-102498443D01*
X137406243Y-102432754D01*
X137406241Y-102432753D01*
X137406240Y-102432753D01*
X137244957Y-102407208D01*
X137196287Y-102399500D01*
X136983713Y-102399500D01*
X136935042Y-102407208D01*
X136773760Y-102432753D01*
X136571585Y-102498444D01*
X136382179Y-102594951D01*
X136210213Y-102719890D01*
X136059890Y-102870213D01*
X135934949Y-103042182D01*
X135930484Y-103050946D01*
X135882509Y-103101742D01*
X135814688Y-103118536D01*
X135748553Y-103095998D01*
X135709516Y-103050946D01*
X135705050Y-103042182D01*
X135580109Y-102870213D01*
X135429786Y-102719890D01*
X135257820Y-102594951D01*
X135068414Y-102498444D01*
X135068413Y-102498443D01*
X135068412Y-102498443D01*
X134866243Y-102432754D01*
X134866241Y-102432753D01*
X134866240Y-102432753D01*
X134704957Y-102407208D01*
X134656287Y-102399500D01*
X134443713Y-102399500D01*
X134395042Y-102407208D01*
X134233760Y-102432753D01*
X134031585Y-102498444D01*
X133842179Y-102594951D01*
X133670213Y-102719890D01*
X133519890Y-102870213D01*
X133394949Y-103042182D01*
X133390202Y-103051499D01*
X133342227Y-103102293D01*
X133274405Y-103119087D01*
X133208271Y-103096548D01*
X133169234Y-103051495D01*
X133164626Y-103042452D01*
X133125270Y-102988282D01*
X133125269Y-102988282D01*
X132492962Y-103620590D01*
X132475925Y-103557007D01*
X132410099Y-103442993D01*
X132317007Y-103349901D01*
X132202993Y-103284075D01*
X132139409Y-103267037D01*
X132771716Y-102634728D01*
X132717550Y-102595375D01*
X132528217Y-102498904D01*
X132326129Y-102433242D01*
X132116246Y-102400000D01*
X131903754Y-102400000D01*
X131693872Y-102433242D01*
X131693869Y-102433242D01*
X131491782Y-102498904D01*
X131302439Y-102595380D01*
X131248282Y-102634727D01*
X131248282Y-102634728D01*
X131880591Y-103267037D01*
X131817007Y-103284075D01*
X131702993Y-103349901D01*
X131609901Y-103442993D01*
X131544075Y-103557007D01*
X131527037Y-103620591D01*
X130894728Y-102988282D01*
X130894727Y-102988282D01*
X130855380Y-103042439D01*
X130758904Y-103231782D01*
X130693242Y-103433869D01*
X130693242Y-103433872D01*
X130660000Y-103643753D01*
X126584185Y-103643753D01*
X126589505Y-103627697D01*
X126589506Y-103627690D01*
X126589651Y-103626277D01*
X126589651Y-103626276D01*
X126599999Y-103524986D01*
X126600000Y-103524973D01*
X126600000Y-103100000D01*
X125780330Y-103100000D01*
X125800075Y-103080255D01*
X125849444Y-102994745D01*
X125875000Y-102899370D01*
X125875000Y-102800630D01*
X125849444Y-102705255D01*
X125800075Y-102619745D01*
X125780330Y-102600000D01*
X126599999Y-102600000D01*
X126599999Y-102175028D01*
X126599998Y-102175013D01*
X126589505Y-102072302D01*
X126534358Y-101905880D01*
X126534356Y-101905875D01*
X126442315Y-101756654D01*
X126318345Y-101632684D01*
X126169124Y-101540643D01*
X126169119Y-101540641D01*
X126002697Y-101485494D01*
X126002690Y-101485493D01*
X125899986Y-101475000D01*
X125750000Y-101475000D01*
X125750000Y-102569670D01*
X125730255Y-102549925D01*
X125644745Y-102500556D01*
X125549370Y-102475000D01*
X125450630Y-102475000D01*
X125355255Y-102500556D01*
X125269745Y-102549925D01*
X125250000Y-102569670D01*
X125250000Y-101475000D01*
X125100027Y-101475000D01*
X125100012Y-101475001D01*
X124997302Y-101485494D01*
X124830880Y-101540641D01*
X124830875Y-101540643D01*
X124681654Y-101632684D01*
X124557684Y-101756654D01*
X124518053Y-101820907D01*
X124466105Y-101867631D01*
X124397142Y-101878853D01*
X124333060Y-101851010D01*
X124324833Y-101843491D01*
X124216930Y-101735588D01*
X124216928Y-101735586D01*
X124076788Y-101633768D01*
X124074661Y-101632684D01*
X123922447Y-101555128D01*
X123922446Y-101555127D01*
X123922445Y-101555127D01*
X123757701Y-101501598D01*
X123757699Y-101501597D01*
X123757698Y-101501597D01*
X123626271Y-101480781D01*
X123586611Y-101474500D01*
X123413389Y-101474500D01*
X123373728Y-101480781D01*
X123242302Y-101501597D01*
X123077552Y-101555128D01*
X122923211Y-101633768D01*
X122843256Y-101691859D01*
X122783072Y-101735586D01*
X122783070Y-101735588D01*
X122783069Y-101735588D01*
X122660588Y-101858069D01*
X122660588Y-101858070D01*
X122660586Y-101858072D01*
X122653641Y-101867631D01*
X122558768Y-101998211D01*
X122480128Y-102152552D01*
X122426597Y-102317302D01*
X122399500Y-102488389D01*
X117549441Y-102488389D01*
X117516233Y-102423213D01*
X117499004Y-102399500D01*
X117414414Y-102283072D01*
X117306508Y-102175166D01*
X117273023Y-102113843D01*
X117278007Y-102044151D01*
X117319879Y-101988218D01*
X117329094Y-101981945D01*
X117393345Y-101942315D01*
X117517315Y-101818345D01*
X117609356Y-101669124D01*
X117609358Y-101669119D01*
X117664505Y-101502697D01*
X117664506Y-101502690D01*
X117674999Y-101399986D01*
X117675000Y-101399973D01*
X117675000Y-101250000D01*
X116580330Y-101250000D01*
X116600075Y-101230255D01*
X116649444Y-101144745D01*
X116675000Y-101049370D01*
X116675000Y-100950630D01*
X116665021Y-100913389D01*
X161374500Y-100913389D01*
X161374500Y-101086611D01*
X161401598Y-101257701D01*
X161455127Y-101422445D01*
X161533768Y-101576788D01*
X161635586Y-101716928D01*
X161635588Y-101716930D01*
X161743491Y-101824833D01*
X161776976Y-101886156D01*
X161771992Y-101955848D01*
X161730120Y-102011781D01*
X161720907Y-102018053D01*
X161656654Y-102057684D01*
X161532684Y-102181654D01*
X161440643Y-102330875D01*
X161440641Y-102330880D01*
X161385494Y-102497302D01*
X161385493Y-102497309D01*
X161375001Y-102600007D01*
X161375000Y-102600026D01*
X161375000Y-102750000D01*
X162469670Y-102750000D01*
X162449925Y-102769745D01*
X162400556Y-102855255D01*
X162375000Y-102950630D01*
X162375000Y-103049370D01*
X162400556Y-103144745D01*
X162449925Y-103230255D01*
X162469670Y-103250000D01*
X161375001Y-103250000D01*
X161375001Y-103399986D01*
X161385494Y-103502697D01*
X161440641Y-103669119D01*
X161440643Y-103669124D01*
X161532684Y-103818345D01*
X161656654Y-103942315D01*
X161805875Y-104034356D01*
X161805880Y-104034358D01*
X161972302Y-104089505D01*
X161972309Y-104089506D01*
X162075019Y-104099999D01*
X162499999Y-104099999D01*
X162500000Y-104099998D01*
X162500000Y-103280330D01*
X162519745Y-103300075D01*
X162605255Y-103349444D01*
X162700630Y-103375000D01*
X162799370Y-103375000D01*
X162894745Y-103349444D01*
X162980255Y-103300075D01*
X163000000Y-103280330D01*
X163000000Y-104099999D01*
X163424972Y-104099999D01*
X163424986Y-104099998D01*
X163527697Y-104089505D01*
X163694119Y-104034358D01*
X163694124Y-104034356D01*
X163843345Y-103942315D01*
X163967315Y-103818345D01*
X164059356Y-103669124D01*
X164059358Y-103669119D01*
X164114505Y-103502697D01*
X164114506Y-103502690D01*
X164124999Y-103399986D01*
X164125000Y-103399973D01*
X164125000Y-103250000D01*
X163030330Y-103250000D01*
X163050075Y-103230255D01*
X163099444Y-103144745D01*
X163125000Y-103049370D01*
X163125000Y-102950630D01*
X163099444Y-102855255D01*
X163050075Y-102769745D01*
X163030330Y-102750000D01*
X164124999Y-102750000D01*
X164124999Y-102600028D01*
X164124998Y-102600007D01*
X164114505Y-102497302D01*
X164059358Y-102330880D01*
X164059356Y-102330875D01*
X163967315Y-102181654D01*
X163843343Y-102057682D01*
X163779093Y-102018053D01*
X163732368Y-101966105D01*
X163721145Y-101897143D01*
X163748988Y-101833061D01*
X163756486Y-101824855D01*
X163864414Y-101716928D01*
X163966232Y-101576788D01*
X164044873Y-101422445D01*
X164098402Y-101257701D01*
X164125500Y-101086611D01*
X164125500Y-100913389D01*
X164098402Y-100742299D01*
X164044873Y-100577555D01*
X163966232Y-100423212D01*
X163864414Y-100283072D01*
X163741928Y-100160586D01*
X163601788Y-100058768D01*
X163447445Y-99980127D01*
X163282701Y-99926598D01*
X163282699Y-99926597D01*
X163282698Y-99926597D01*
X163151271Y-99905781D01*
X163111611Y-99899500D01*
X162388389Y-99899500D01*
X162348728Y-99905781D01*
X162217302Y-99926597D01*
X162217299Y-99926598D01*
X162059668Y-99977816D01*
X162052552Y-99980128D01*
X161898211Y-100058768D01*
X161818256Y-100116859D01*
X161758072Y-100160586D01*
X161758070Y-100160588D01*
X161758069Y-100160588D01*
X161635588Y-100283069D01*
X161635588Y-100283070D01*
X161635586Y-100283072D01*
X161623208Y-100300109D01*
X161533768Y-100423211D01*
X161455128Y-100577552D01*
X161401597Y-100742302D01*
X161374500Y-100913389D01*
X116665021Y-100913389D01*
X116649444Y-100855255D01*
X116600075Y-100769745D01*
X116580330Y-100750000D01*
X117674999Y-100750000D01*
X117674999Y-100600028D01*
X117674998Y-100600013D01*
X117664505Y-100497302D01*
X117609358Y-100330880D01*
X117609356Y-100330875D01*
X117517315Y-100181654D01*
X117393345Y-100057684D01*
X117244124Y-99965643D01*
X117244119Y-99965641D01*
X117077697Y-99910494D01*
X117077690Y-99910493D01*
X116974986Y-99900000D01*
X116550000Y-99900000D01*
X116550000Y-100719670D01*
X116530255Y-100699925D01*
X116444745Y-100650556D01*
X116349370Y-100625000D01*
X116250630Y-100625000D01*
X116155255Y-100650556D01*
X116069745Y-100699925D01*
X116050000Y-100719670D01*
X116050000Y-99900000D01*
X115625028Y-99900000D01*
X115625012Y-99900001D01*
X115522302Y-99910494D01*
X115355880Y-99965641D01*
X115355875Y-99965643D01*
X115206654Y-100057684D01*
X115082684Y-100181654D01*
X114990643Y-100330875D01*
X114990641Y-100330880D01*
X114935494Y-100497302D01*
X114935493Y-100497309D01*
X114925000Y-100600013D01*
X114925000Y-100750000D01*
X116019670Y-100750000D01*
X115999925Y-100769745D01*
X115950556Y-100855255D01*
X115925000Y-100950630D01*
X115925000Y-101049370D01*
X115950556Y-101144745D01*
X115999925Y-101230255D01*
X116019670Y-101250000D01*
X114925001Y-101250000D01*
X114925001Y-101399986D01*
X114935494Y-101502697D01*
X114990641Y-101669119D01*
X114990643Y-101669124D01*
X115082684Y-101818345D01*
X115206656Y-101942317D01*
X115270906Y-101981946D01*
X115317631Y-102033893D01*
X115328854Y-102102856D01*
X115301011Y-102166938D01*
X115293492Y-102175166D01*
X115185585Y-102283073D01*
X115083768Y-102423211D01*
X115005128Y-102577552D01*
X114951597Y-102742302D01*
X114924500Y-102913389D01*
X112250500Y-102913389D01*
X112250500Y-92913389D01*
X114874500Y-92913389D01*
X114874500Y-93086611D01*
X114901598Y-93257701D01*
X114955127Y-93422445D01*
X115033768Y-93576788D01*
X115135586Y-93716928D01*
X115258072Y-93839414D01*
X115398212Y-93941232D01*
X115552555Y-94019873D01*
X115717299Y-94073402D01*
X115888389Y-94100500D01*
X115888390Y-94100500D01*
X116611610Y-94100500D01*
X116611611Y-94100500D01*
X116782701Y-94073402D01*
X116947445Y-94019873D01*
X117101788Y-93941232D01*
X117241928Y-93839414D01*
X117364414Y-93716928D01*
X117466232Y-93576788D01*
X117544873Y-93422445D01*
X117598402Y-93257701D01*
X117625500Y-93086611D01*
X117625500Y-92913389D01*
X117598402Y-92742299D01*
X117544873Y-92577555D01*
X117466232Y-92423212D01*
X117364414Y-92283072D01*
X117256508Y-92175166D01*
X117223023Y-92113843D01*
X117228007Y-92044151D01*
X117269879Y-91988218D01*
X117279094Y-91981945D01*
X117343345Y-91942315D01*
X117467315Y-91818345D01*
X117559356Y-91669124D01*
X117559358Y-91669119D01*
X117614505Y-91502697D01*
X117614506Y-91502690D01*
X117624999Y-91399986D01*
X117625000Y-91399973D01*
X117625000Y-91250000D01*
X116530330Y-91250000D01*
X116550075Y-91230255D01*
X116599444Y-91144745D01*
X116625000Y-91049370D01*
X116625000Y-90950630D01*
X116599444Y-90855255D01*
X116550075Y-90769745D01*
X116530330Y-90750000D01*
X117624999Y-90750000D01*
X117624999Y-90600028D01*
X117624998Y-90600013D01*
X117614505Y-90497302D01*
X117559358Y-90330880D01*
X117559356Y-90330875D01*
X117467315Y-90181654D01*
X117343345Y-90057684D01*
X117194124Y-89965643D01*
X117194119Y-89965641D01*
X117027697Y-89910494D01*
X117027690Y-89910493D01*
X116924986Y-89900000D01*
X116500000Y-89900000D01*
X116500000Y-90719670D01*
X116480255Y-90699925D01*
X116394745Y-90650556D01*
X116299370Y-90625000D01*
X116200630Y-90625000D01*
X116105255Y-90650556D01*
X116019745Y-90699925D01*
X116000000Y-90719670D01*
X116000000Y-89900000D01*
X115575028Y-89900000D01*
X115575012Y-89900001D01*
X115472302Y-89910494D01*
X115305880Y-89965641D01*
X115305875Y-89965643D01*
X115156654Y-90057684D01*
X115032684Y-90181654D01*
X114940643Y-90330875D01*
X114940641Y-90330880D01*
X114885494Y-90497302D01*
X114885493Y-90497309D01*
X114875000Y-90600013D01*
X114875000Y-90750000D01*
X115969670Y-90750000D01*
X115949925Y-90769745D01*
X115900556Y-90855255D01*
X115875000Y-90950630D01*
X115875000Y-91049370D01*
X115900556Y-91144745D01*
X115949925Y-91230255D01*
X115969670Y-91250000D01*
X114875001Y-91250000D01*
X114875001Y-91399986D01*
X114885494Y-91502697D01*
X114940641Y-91669119D01*
X114940643Y-91669124D01*
X115032684Y-91818345D01*
X115156656Y-91942317D01*
X115220906Y-91981946D01*
X115267631Y-92033893D01*
X115278854Y-92102856D01*
X115251011Y-92166938D01*
X115243492Y-92175166D01*
X115135585Y-92283073D01*
X115033768Y-92423211D01*
X114955128Y-92577552D01*
X114901597Y-92742302D01*
X114883310Y-92857766D01*
X114874500Y-92913389D01*
X112250500Y-92913389D01*
X112250500Y-82913389D01*
X114874500Y-82913389D01*
X114874500Y-83086610D01*
X114894342Y-83211892D01*
X114901598Y-83257701D01*
X114955127Y-83422445D01*
X115033768Y-83576788D01*
X115135586Y-83716928D01*
X115258072Y-83839414D01*
X115398212Y-83941232D01*
X115552555Y-84019873D01*
X115717299Y-84073402D01*
X115888389Y-84100500D01*
X115888390Y-84100500D01*
X116611610Y-84100500D01*
X116611611Y-84100500D01*
X116782701Y-84073402D01*
X116947445Y-84019873D01*
X117101788Y-83941232D01*
X117241928Y-83839414D01*
X117364414Y-83716928D01*
X117466232Y-83576788D01*
X117544873Y-83422445D01*
X117598402Y-83257701D01*
X117625500Y-83086611D01*
X117625500Y-82913389D01*
X117598402Y-82742299D01*
X117544873Y-82577555D01*
X117466232Y-82423212D01*
X117364414Y-82283072D01*
X117256508Y-82175166D01*
X117223023Y-82113843D01*
X117228007Y-82044151D01*
X117269879Y-81988218D01*
X117279094Y-81981945D01*
X117343345Y-81942315D01*
X117467315Y-81818345D01*
X117559356Y-81669124D01*
X117559358Y-81669119D01*
X117614505Y-81502697D01*
X117614506Y-81502690D01*
X117624999Y-81399986D01*
X117625000Y-81399973D01*
X117625000Y-81250000D01*
X116530330Y-81250000D01*
X116550075Y-81230255D01*
X116599444Y-81144745D01*
X116625000Y-81049370D01*
X116625000Y-80950630D01*
X116599444Y-80855255D01*
X116550075Y-80769745D01*
X116530330Y-80750000D01*
X117624999Y-80750000D01*
X117624999Y-80600028D01*
X117624998Y-80600013D01*
X117614505Y-80497302D01*
X117559358Y-80330880D01*
X117559356Y-80330875D01*
X117467315Y-80181654D01*
X117343345Y-80057684D01*
X117194124Y-79965643D01*
X117194119Y-79965641D01*
X117027697Y-79910494D01*
X117027690Y-79910493D01*
X116924986Y-79900000D01*
X116500000Y-79900000D01*
X116500000Y-80719670D01*
X116480255Y-80699925D01*
X116394745Y-80650556D01*
X116299370Y-80625000D01*
X116200630Y-80625000D01*
X116105255Y-80650556D01*
X116019745Y-80699925D01*
X116000000Y-80719670D01*
X116000000Y-79900000D01*
X115575028Y-79900000D01*
X115575012Y-79900001D01*
X115472302Y-79910494D01*
X115305880Y-79965641D01*
X115305875Y-79965643D01*
X115156654Y-80057684D01*
X115032684Y-80181654D01*
X114940643Y-80330875D01*
X114940641Y-80330880D01*
X114885494Y-80497302D01*
X114885493Y-80497309D01*
X114875000Y-80600013D01*
X114875000Y-80750000D01*
X115969670Y-80750000D01*
X115949925Y-80769745D01*
X115900556Y-80855255D01*
X115875000Y-80950630D01*
X115875000Y-81049370D01*
X115900556Y-81144745D01*
X115949925Y-81230255D01*
X115969670Y-81250000D01*
X114875001Y-81250000D01*
X114875001Y-81399986D01*
X114885494Y-81502697D01*
X114940641Y-81669119D01*
X114940643Y-81669124D01*
X115032684Y-81818345D01*
X115156656Y-81942317D01*
X115220906Y-81981946D01*
X115267631Y-82033893D01*
X115278854Y-82102856D01*
X115251011Y-82166938D01*
X115243492Y-82175166D01*
X115135585Y-82283073D01*
X115033768Y-82423211D01*
X114955128Y-82577552D01*
X114901597Y-82742302D01*
X114874500Y-82913389D01*
X112250500Y-82913389D01*
X112250500Y-72913389D01*
X114924500Y-72913389D01*
X114924500Y-73086611D01*
X114951598Y-73257701D01*
X115005127Y-73422445D01*
X115083768Y-73576788D01*
X115185586Y-73716928D01*
X115308072Y-73839414D01*
X115448212Y-73941232D01*
X115602555Y-74019873D01*
X115767299Y-74073402D01*
X115938389Y-74100500D01*
X115938390Y-74100500D01*
X116661610Y-74100500D01*
X116661611Y-74100500D01*
X116832701Y-74073402D01*
X116997445Y-74019873D01*
X117151788Y-73941232D01*
X117291928Y-73839414D01*
X117414414Y-73716928D01*
X117516232Y-73576788D01*
X117594873Y-73422445D01*
X117648402Y-73257701D01*
X117675500Y-73086611D01*
X117675500Y-72913389D01*
X117675308Y-72912179D01*
X117657618Y-72800486D01*
X117648402Y-72742299D01*
X117594873Y-72577555D01*
X117516232Y-72423212D01*
X117414414Y-72283072D01*
X117306508Y-72175166D01*
X117273023Y-72113843D01*
X117278007Y-72044151D01*
X117319879Y-71988218D01*
X117329094Y-71981945D01*
X117393345Y-71942315D01*
X117517315Y-71818345D01*
X117609356Y-71669124D01*
X117609358Y-71669119D01*
X117664505Y-71502697D01*
X117664506Y-71502690D01*
X117674999Y-71399986D01*
X117675000Y-71399973D01*
X117675000Y-71250000D01*
X116580330Y-71250000D01*
X116600075Y-71230255D01*
X116649444Y-71144745D01*
X116675000Y-71049370D01*
X116675000Y-70973713D01*
X119449500Y-70973713D01*
X119449500Y-71186286D01*
X119482753Y-71396239D01*
X119548444Y-71598414D01*
X119644951Y-71787820D01*
X119769890Y-71959786D01*
X119920213Y-72110109D01*
X120092182Y-72235050D01*
X120100946Y-72239516D01*
X120151742Y-72287491D01*
X120168536Y-72355312D01*
X120145998Y-72421447D01*
X120100946Y-72460484D01*
X120092182Y-72464949D01*
X119920213Y-72589890D01*
X119769890Y-72740213D01*
X119644951Y-72912179D01*
X119548444Y-73101585D01*
X119482753Y-73303760D01*
X119449500Y-73513713D01*
X119449500Y-73726286D01*
X119482753Y-73936239D01*
X119548444Y-74138414D01*
X119644951Y-74327820D01*
X119769890Y-74499786D01*
X119920213Y-74650109D01*
X120092182Y-74775050D01*
X120100946Y-74779516D01*
X120151742Y-74827491D01*
X120168536Y-74895312D01*
X120145998Y-74961447D01*
X120100946Y-75000484D01*
X120092182Y-75004949D01*
X119920213Y-75129890D01*
X119769890Y-75280213D01*
X119644951Y-75452179D01*
X119548444Y-75641585D01*
X119482753Y-75843760D01*
X119449500Y-76053713D01*
X119449500Y-76266286D01*
X119482753Y-76476239D01*
X119548444Y-76678414D01*
X119644951Y-76867820D01*
X119769890Y-77039786D01*
X119920213Y-77190109D01*
X120092182Y-77315050D01*
X120100946Y-77319516D01*
X120151742Y-77367491D01*
X120168536Y-77435312D01*
X120145998Y-77501447D01*
X120100946Y-77540484D01*
X120092182Y-77544949D01*
X119920213Y-77669890D01*
X119769890Y-77820213D01*
X119644951Y-77992179D01*
X119548444Y-78181585D01*
X119482753Y-78383760D01*
X119449500Y-78593713D01*
X119449500Y-78806286D01*
X119482753Y-79016239D01*
X119548444Y-79218414D01*
X119644951Y-79407820D01*
X119769890Y-79579786D01*
X119920213Y-79730109D01*
X120092182Y-79855050D01*
X120100946Y-79859516D01*
X120151742Y-79907491D01*
X120168536Y-79975312D01*
X120145998Y-80041447D01*
X120100946Y-80080484D01*
X120092182Y-80084949D01*
X119920213Y-80209890D01*
X119769890Y-80360213D01*
X119644951Y-80532179D01*
X119548444Y-80721585D01*
X119482753Y-80923760D01*
X119458023Y-81079901D01*
X119449500Y-81133713D01*
X119449500Y-81346287D01*
X119482754Y-81556243D01*
X119534964Y-81716929D01*
X119548444Y-81758414D01*
X119644951Y-81947820D01*
X119769890Y-82119786D01*
X119883818Y-82233714D01*
X119917303Y-82295037D01*
X119912319Y-82364729D01*
X119870447Y-82420662D01*
X119839471Y-82437577D01*
X119707912Y-82486646D01*
X119707906Y-82486649D01*
X119592812Y-82572809D01*
X119592809Y-82572812D01*
X119506649Y-82687906D01*
X119506645Y-82687913D01*
X119456403Y-82822620D01*
X119456401Y-82822627D01*
X119450000Y-82882155D01*
X119450000Y-83530000D01*
X120366988Y-83530000D01*
X120334075Y-83587007D01*
X120300000Y-83714174D01*
X120300000Y-83845826D01*
X120334075Y-83972993D01*
X120366988Y-84030000D01*
X119450000Y-84030000D01*
X119450000Y-84677844D01*
X119456401Y-84737372D01*
X119456403Y-84737379D01*
X119506645Y-84872086D01*
X119506649Y-84872093D01*
X119592809Y-84987187D01*
X119592812Y-84987190D01*
X119707906Y-85073350D01*
X119707913Y-85073354D01*
X119842620Y-85123596D01*
X119842627Y-85123598D01*
X119902155Y-85129999D01*
X119902172Y-85130000D01*
X120550000Y-85130000D01*
X120550000Y-84213012D01*
X120607007Y-84245925D01*
X120734174Y-84280000D01*
X120865826Y-84280000D01*
X120992993Y-84245925D01*
X121050000Y-84213012D01*
X121050000Y-85130000D01*
X121697828Y-85130000D01*
X121697844Y-85129999D01*
X121757372Y-85123598D01*
X121757379Y-85123596D01*
X121892086Y-85073354D01*
X121892093Y-85073350D01*
X122007187Y-84987190D01*
X122007190Y-84987187D01*
X122093350Y-84872093D01*
X122093354Y-84872086D01*
X122143596Y-84737379D01*
X122143598Y-84737372D01*
X122149999Y-84677844D01*
X122150000Y-84677827D01*
X122150000Y-84030000D01*
X121233012Y-84030000D01*
X121265925Y-83972993D01*
X121300000Y-83845826D01*
X121300000Y-83714174D01*
X121265925Y-83587007D01*
X121233012Y-83530000D01*
X122150000Y-83530000D01*
X122150000Y-82882172D01*
X122149999Y-82882155D01*
X122143598Y-82822627D01*
X122143596Y-82822620D01*
X122093354Y-82687913D01*
X122093350Y-82687906D01*
X122007190Y-82572812D01*
X122007187Y-82572809D01*
X121892093Y-82486649D01*
X121892088Y-82486646D01*
X121760528Y-82437577D01*
X121704595Y-82395705D01*
X121680178Y-82330241D01*
X121695030Y-82261968D01*
X121716175Y-82233720D01*
X121830104Y-82119792D01*
X121844121Y-82100500D01*
X121941763Y-81966105D01*
X121955051Y-81947816D01*
X122051557Y-81758412D01*
X122117246Y-81556243D01*
X122150500Y-81346287D01*
X122150500Y-81133713D01*
X122117246Y-80923757D01*
X122051557Y-80721588D01*
X121955051Y-80532184D01*
X121955049Y-80532181D01*
X121955048Y-80532179D01*
X121830109Y-80360213D01*
X121679786Y-80209890D01*
X121507820Y-80084951D01*
X121507115Y-80084591D01*
X121499054Y-80080485D01*
X121448259Y-80032512D01*
X121431463Y-79964692D01*
X121453999Y-79898556D01*
X121499054Y-79859515D01*
X121507816Y-79855051D01*
X121556346Y-79819792D01*
X121679786Y-79730109D01*
X121679788Y-79730106D01*
X121679792Y-79730104D01*
X121830104Y-79579792D01*
X121830106Y-79579788D01*
X121830109Y-79579786D01*
X121955048Y-79407820D01*
X121955047Y-79407820D01*
X121955051Y-79407816D01*
X122051557Y-79218412D01*
X122117246Y-79016243D01*
X122150500Y-78806287D01*
X122150500Y-78593713D01*
X122117246Y-78383757D01*
X122051557Y-78181588D01*
X121955051Y-77992184D01*
X121955049Y-77992181D01*
X121955048Y-77992179D01*
X121830109Y-77820213D01*
X121679786Y-77669890D01*
X121507820Y-77544951D01*
X121507115Y-77544591D01*
X121499054Y-77540485D01*
X121448259Y-77492512D01*
X121431463Y-77424692D01*
X121453999Y-77358556D01*
X121499054Y-77319515D01*
X121507816Y-77315051D01*
X121556346Y-77279792D01*
X121679786Y-77190109D01*
X121679788Y-77190106D01*
X121679792Y-77190104D01*
X121830104Y-77039792D01*
X121830106Y-77039788D01*
X121830109Y-77039786D01*
X121955048Y-76867820D01*
X121955047Y-76867820D01*
X121955051Y-76867816D01*
X122051557Y-76678412D01*
X122117246Y-76476243D01*
X122150500Y-76266287D01*
X122150500Y-76053713D01*
X122117246Y-75843757D01*
X122051557Y-75641588D01*
X121955051Y-75452184D01*
X121955049Y-75452181D01*
X121955048Y-75452179D01*
X121830109Y-75280213D01*
X121679786Y-75129890D01*
X121507820Y-75004951D01*
X121507115Y-75004591D01*
X121499054Y-75000485D01*
X121448259Y-74952512D01*
X121431463Y-74884692D01*
X121453999Y-74818556D01*
X121499054Y-74779515D01*
X121507816Y-74775051D01*
X121556346Y-74739792D01*
X121679786Y-74650109D01*
X121679788Y-74650106D01*
X121679792Y-74650104D01*
X121830104Y-74499792D01*
X121830106Y-74499788D01*
X121830109Y-74499786D01*
X121946558Y-74339506D01*
X121955051Y-74327816D01*
X122051557Y-74138412D01*
X122117246Y-73936243D01*
X122150500Y-73726287D01*
X122150500Y-73513713D01*
X122117246Y-73303757D01*
X122051557Y-73101588D01*
X121955051Y-72912184D01*
X121955049Y-72912181D01*
X121955048Y-72912179D01*
X121830109Y-72740213D01*
X121679786Y-72589890D01*
X121507820Y-72464951D01*
X121507115Y-72464591D01*
X121499054Y-72460485D01*
X121448259Y-72412512D01*
X121431463Y-72344692D01*
X121453999Y-72278556D01*
X121499054Y-72239515D01*
X121507816Y-72235051D01*
X121556346Y-72199792D01*
X121679786Y-72110109D01*
X121679788Y-72110106D01*
X121679792Y-72110104D01*
X121830104Y-71959792D01*
X121830106Y-71959788D01*
X121830109Y-71959786D01*
X121955048Y-71787820D01*
X121955047Y-71787820D01*
X121955051Y-71787816D01*
X122051557Y-71598412D01*
X122117246Y-71396243D01*
X122150500Y-71186287D01*
X122150500Y-70973713D01*
X122117246Y-70763757D01*
X122051557Y-70561588D01*
X121955051Y-70372184D01*
X121955049Y-70372181D01*
X121955048Y-70372179D01*
X121830109Y-70200213D01*
X121679786Y-70049890D01*
X121507820Y-69924951D01*
X121318414Y-69828444D01*
X121318413Y-69828443D01*
X121318412Y-69828443D01*
X121116243Y-69762754D01*
X121116241Y-69762753D01*
X121116240Y-69762753D01*
X120954957Y-69737208D01*
X120906287Y-69729500D01*
X120693713Y-69729500D01*
X120645042Y-69737208D01*
X120483760Y-69762753D01*
X120281585Y-69828444D01*
X120092179Y-69924951D01*
X119920213Y-70049890D01*
X119769890Y-70200213D01*
X119644951Y-70372179D01*
X119548444Y-70561585D01*
X119482753Y-70763760D01*
X119449500Y-70973713D01*
X116675000Y-70973713D01*
X116675000Y-70950630D01*
X116649444Y-70855255D01*
X116600075Y-70769745D01*
X116580330Y-70750000D01*
X117674999Y-70750000D01*
X117674999Y-70600028D01*
X117674998Y-70600013D01*
X117664505Y-70497302D01*
X117609358Y-70330880D01*
X117609356Y-70330875D01*
X117517315Y-70181654D01*
X117393345Y-70057684D01*
X117244124Y-69965643D01*
X117244119Y-69965641D01*
X117077697Y-69910494D01*
X117077690Y-69910493D01*
X116974986Y-69900000D01*
X116550000Y-69900000D01*
X116550000Y-70719670D01*
X116530255Y-70699925D01*
X116444745Y-70650556D01*
X116349370Y-70625000D01*
X116250630Y-70625000D01*
X116155255Y-70650556D01*
X116069745Y-70699925D01*
X116050000Y-70719670D01*
X116050000Y-69900000D01*
X115625028Y-69900000D01*
X115625012Y-69900001D01*
X115522302Y-69910494D01*
X115355880Y-69965641D01*
X115355875Y-69965643D01*
X115206654Y-70057684D01*
X115082684Y-70181654D01*
X114990643Y-70330875D01*
X114990641Y-70330880D01*
X114935494Y-70497302D01*
X114935493Y-70497309D01*
X114925000Y-70600013D01*
X114925000Y-70750000D01*
X116019670Y-70750000D01*
X115999925Y-70769745D01*
X115950556Y-70855255D01*
X115925000Y-70950630D01*
X115925000Y-71049370D01*
X115950556Y-71144745D01*
X115999925Y-71230255D01*
X116019670Y-71250000D01*
X114925001Y-71250000D01*
X114925001Y-71399986D01*
X114935494Y-71502697D01*
X114990641Y-71669119D01*
X114990643Y-71669124D01*
X115082684Y-71818345D01*
X115206656Y-71942317D01*
X115270906Y-71981946D01*
X115317631Y-72033893D01*
X115328854Y-72102856D01*
X115301011Y-72166938D01*
X115293492Y-72175166D01*
X115185585Y-72283073D01*
X115083768Y-72423211D01*
X115005128Y-72577552D01*
X115005127Y-72577554D01*
X115005127Y-72577555D01*
X115004490Y-72579516D01*
X114951597Y-72742302D01*
X114924691Y-72912184D01*
X114924500Y-72913389D01*
X112250500Y-72913389D01*
X112250500Y-62913389D01*
X114924500Y-62913389D01*
X114924500Y-63086611D01*
X114951598Y-63257701D01*
X115005127Y-63422445D01*
X115083768Y-63576788D01*
X115185586Y-63716928D01*
X115308072Y-63839414D01*
X115448212Y-63941232D01*
X115602555Y-64019873D01*
X115767299Y-64073402D01*
X115938389Y-64100500D01*
X115938390Y-64100500D01*
X116661610Y-64100500D01*
X116661611Y-64100500D01*
X116832701Y-64073402D01*
X116997445Y-64019873D01*
X117151788Y-63941232D01*
X117291928Y-63839414D01*
X117414414Y-63716928D01*
X117516232Y-63576788D01*
X117594873Y-63422445D01*
X117648402Y-63257701D01*
X117675500Y-63086611D01*
X117675500Y-62913389D01*
X117648402Y-62742299D01*
X117594873Y-62577555D01*
X117516232Y-62423212D01*
X117414414Y-62283072D01*
X117306508Y-62175166D01*
X117273023Y-62113843D01*
X117278007Y-62044151D01*
X117319879Y-61988218D01*
X117329094Y-61981945D01*
X117393345Y-61942315D01*
X117517315Y-61818345D01*
X117609356Y-61669124D01*
X117609358Y-61669119D01*
X117664505Y-61502697D01*
X117664506Y-61502690D01*
X117674999Y-61399986D01*
X117675000Y-61399973D01*
X117675000Y-61250000D01*
X116580330Y-61250000D01*
X116600075Y-61230255D01*
X116649444Y-61144745D01*
X116675000Y-61049370D01*
X116675000Y-60950630D01*
X116649444Y-60855255D01*
X116600075Y-60769745D01*
X116580330Y-60750000D01*
X117674999Y-60750000D01*
X117674999Y-60600028D01*
X117674998Y-60600013D01*
X117664505Y-60497302D01*
X117609358Y-60330880D01*
X117609356Y-60330875D01*
X117517315Y-60181654D01*
X117393345Y-60057684D01*
X117244124Y-59965643D01*
X117244119Y-59965641D01*
X117077697Y-59910494D01*
X117077690Y-59910493D01*
X116974986Y-59900000D01*
X116550000Y-59900000D01*
X116550000Y-60719670D01*
X116530255Y-60699925D01*
X116444745Y-60650556D01*
X116349370Y-60625000D01*
X116250630Y-60625000D01*
X116155255Y-60650556D01*
X116069745Y-60699925D01*
X116050000Y-60719670D01*
X116050000Y-59900000D01*
X115625028Y-59900000D01*
X115625012Y-59900001D01*
X115522302Y-59910494D01*
X115355880Y-59965641D01*
X115355875Y-59965643D01*
X115206654Y-60057684D01*
X115082684Y-60181654D01*
X114990643Y-60330875D01*
X114990641Y-60330880D01*
X114935494Y-60497302D01*
X114935493Y-60497309D01*
X114925000Y-60600013D01*
X114925000Y-60750000D01*
X116019670Y-60750000D01*
X115999925Y-60769745D01*
X115950556Y-60855255D01*
X115925000Y-60950630D01*
X115925000Y-61049370D01*
X115950556Y-61144745D01*
X115999925Y-61230255D01*
X116019670Y-61250000D01*
X114925001Y-61250000D01*
X114925001Y-61399986D01*
X114935494Y-61502697D01*
X114990641Y-61669119D01*
X114990643Y-61669124D01*
X115082684Y-61818345D01*
X115206656Y-61942317D01*
X115270906Y-61981946D01*
X115317631Y-62033893D01*
X115328854Y-62102856D01*
X115301011Y-62166938D01*
X115293492Y-62175166D01*
X115185585Y-62283073D01*
X115083768Y-62423211D01*
X115005128Y-62577552D01*
X114951597Y-62742302D01*
X114924500Y-62913389D01*
X112250500Y-62913389D01*
X112250500Y-53137860D01*
X112949500Y-53137860D01*
X112949500Y-53462139D01*
X112981284Y-53784857D01*
X112981287Y-53784874D01*
X113044545Y-54102902D01*
X113044548Y-54102913D01*
X113138686Y-54413247D01*
X113203659Y-54570104D01*
X113257377Y-54699792D01*
X113262786Y-54712849D01*
X113262788Y-54712854D01*
X113415646Y-54998830D01*
X113415657Y-54998848D01*
X113595811Y-55268467D01*
X113595821Y-55268481D01*
X113801546Y-55519158D01*
X114030841Y-55748453D01*
X114030846Y-55748457D01*
X114030847Y-55748458D01*
X114281524Y-55954183D01*
X114551158Y-56134347D01*
X114551167Y-56134352D01*
X114551169Y-56134353D01*
X114837145Y-56287211D01*
X114837147Y-56287211D01*
X114837153Y-56287215D01*
X115136754Y-56411314D01*
X115447077Y-56505449D01*
X115447083Y-56505450D01*
X115447086Y-56505451D01*
X115447097Y-56505454D01*
X115646528Y-56545122D01*
X115765132Y-56568714D01*
X116087857Y-56600500D01*
X116087860Y-56600500D01*
X116412140Y-56600500D01*
X116412143Y-56600500D01*
X116734868Y-56568714D01*
X116892295Y-56537399D01*
X117052902Y-56505454D01*
X117052913Y-56505451D01*
X117052913Y-56505450D01*
X117052923Y-56505449D01*
X117363246Y-56411314D01*
X117662847Y-56287215D01*
X117948842Y-56134347D01*
X118218476Y-55954183D01*
X118469153Y-55748458D01*
X118698458Y-55519153D01*
X118904183Y-55268476D01*
X119084347Y-54998842D01*
X119237215Y-54712847D01*
X119361314Y-54413246D01*
X119455449Y-54102923D01*
X119455451Y-54102913D01*
X119455454Y-54102902D01*
X119487399Y-53942295D01*
X119518714Y-53784868D01*
X119550500Y-53462143D01*
X119550500Y-53137857D01*
X119518714Y-52815132D01*
X119487898Y-52660208D01*
X119455454Y-52497097D01*
X119455451Y-52497086D01*
X119455450Y-52497083D01*
X119455449Y-52497077D01*
X119361314Y-52186754D01*
X119237215Y-51887153D01*
X119084347Y-51601158D01*
X118904183Y-51331524D01*
X118698458Y-51080847D01*
X118698457Y-51080846D01*
X118698453Y-51080841D01*
X118469158Y-50851546D01*
X118218481Y-50645821D01*
X118218480Y-50645820D01*
X118218476Y-50645817D01*
X117948842Y-50465653D01*
X117948837Y-50465650D01*
X117948830Y-50465646D01*
X117662854Y-50312788D01*
X117662849Y-50312786D01*
X117446973Y-50223367D01*
X117363247Y-50188686D01*
X117110890Y-50112135D01*
X129399500Y-50112135D01*
X129399500Y-51907870D01*
X129399501Y-51907876D01*
X129405908Y-51967483D01*
X129456202Y-52102328D01*
X129456206Y-52102335D01*
X129542452Y-52217544D01*
X129542455Y-52217547D01*
X129657664Y-52303793D01*
X129657671Y-52303797D01*
X129789082Y-52352810D01*
X129845016Y-52394681D01*
X129869433Y-52460145D01*
X129854582Y-52528418D01*
X129833431Y-52556673D01*
X129719889Y-52670215D01*
X129594951Y-52842179D01*
X129498444Y-53031585D01*
X129432753Y-53233760D01*
X129399500Y-53443713D01*
X129399500Y-53656286D01*
X129431169Y-53856239D01*
X129432754Y-53866243D01*
X129495194Y-54058414D01*
X129498444Y-54068414D01*
X129594951Y-54257820D01*
X129719890Y-54429786D01*
X129870213Y-54580109D01*
X130042179Y-54705048D01*
X130042181Y-54705049D01*
X130042184Y-54705051D01*
X130051493Y-54709794D01*
X130102290Y-54757766D01*
X130119087Y-54825587D01*
X130096552Y-54891722D01*
X130051505Y-54930760D01*
X130042446Y-54935376D01*
X130042440Y-54935380D01*
X129988282Y-54974727D01*
X129988282Y-54974728D01*
X130620591Y-55607037D01*
X130557007Y-55624075D01*
X130442993Y-55689901D01*
X130349901Y-55782993D01*
X130284075Y-55897007D01*
X130267037Y-55960591D01*
X129634728Y-55328282D01*
X129634727Y-55328282D01*
X129595380Y-55382439D01*
X129498904Y-55571782D01*
X129433242Y-55773869D01*
X129433242Y-55773872D01*
X129400000Y-55983753D01*
X129400000Y-56196246D01*
X129433242Y-56406127D01*
X129433242Y-56406130D01*
X129498904Y-56608217D01*
X129595375Y-56797550D01*
X129634728Y-56851716D01*
X130267037Y-56219408D01*
X130284075Y-56282993D01*
X130349901Y-56397007D01*
X130442993Y-56490099D01*
X130557007Y-56555925D01*
X130620590Y-56572962D01*
X129988282Y-57205269D01*
X129988282Y-57205270D01*
X130042452Y-57244626D01*
X130042451Y-57244626D01*
X130051495Y-57249234D01*
X130102292Y-57297208D01*
X130119087Y-57365029D01*
X130096550Y-57431164D01*
X130051499Y-57470202D01*
X130042182Y-57474949D01*
X129870213Y-57599890D01*
X129719890Y-57750213D01*
X129594951Y-57922179D01*
X129498444Y-58111585D01*
X129432753Y-58313760D01*
X129399500Y-58523713D01*
X129399500Y-58736286D01*
X129431169Y-58936239D01*
X129432754Y-58946243D01*
X129495194Y-59138414D01*
X129498444Y-59148414D01*
X129594951Y-59337820D01*
X129719890Y-59509786D01*
X129870213Y-59660109D01*
X130042182Y-59785050D01*
X130050946Y-59789516D01*
X130101742Y-59837491D01*
X130118536Y-59905312D01*
X130095998Y-59971447D01*
X130050946Y-60010484D01*
X130042182Y-60014949D01*
X129870213Y-60139890D01*
X129719890Y-60290213D01*
X129594951Y-60462179D01*
X129498444Y-60651585D01*
X129432753Y-60853760D01*
X129399500Y-61063713D01*
X129399500Y-61276286D01*
X129431169Y-61476239D01*
X129432754Y-61486243D01*
X129495194Y-61678414D01*
X129498444Y-61688414D01*
X129594951Y-61877820D01*
X129719890Y-62049786D01*
X129870213Y-62200109D01*
X130042182Y-62325050D01*
X130050946Y-62329516D01*
X130101742Y-62377491D01*
X130118536Y-62445312D01*
X130095998Y-62511447D01*
X130050946Y-62550484D01*
X130042182Y-62554949D01*
X129870213Y-62679890D01*
X129719890Y-62830213D01*
X129594951Y-63002179D01*
X129498444Y-63191585D01*
X129432753Y-63393760D01*
X129399500Y-63603713D01*
X129399500Y-63816286D01*
X129431744Y-64019871D01*
X129432754Y-64026243D01*
X129495194Y-64218414D01*
X129498444Y-64228414D01*
X129594951Y-64417820D01*
X129719890Y-64589786D01*
X129870213Y-64740109D01*
X130042182Y-64865050D01*
X130050946Y-64869516D01*
X130101742Y-64917491D01*
X130118536Y-64985312D01*
X130095998Y-65051447D01*
X130050946Y-65090484D01*
X130042182Y-65094949D01*
X129870213Y-65219890D01*
X129719890Y-65370213D01*
X129594951Y-65542179D01*
X129498444Y-65731585D01*
X129432753Y-65933760D01*
X129399500Y-66143713D01*
X129399500Y-66356286D01*
X129431169Y-66556239D01*
X129432754Y-66566243D01*
X129495194Y-66758414D01*
X129498444Y-66768414D01*
X129594951Y-66957820D01*
X129719890Y-67129786D01*
X129870213Y-67280109D01*
X130042179Y-67405048D01*
X130042181Y-67405049D01*
X130042184Y-67405051D01*
X130051493Y-67409794D01*
X130102290Y-67457766D01*
X130119087Y-67525587D01*
X130096552Y-67591722D01*
X130051505Y-67630760D01*
X130042446Y-67635376D01*
X130042440Y-67635380D01*
X129988282Y-67674727D01*
X129988282Y-67674728D01*
X130620591Y-68307037D01*
X130557007Y-68324075D01*
X130442993Y-68389901D01*
X130349901Y-68482993D01*
X130284075Y-68597007D01*
X130267037Y-68660591D01*
X129634728Y-68028282D01*
X129634727Y-68028282D01*
X129595380Y-68082439D01*
X129498904Y-68271782D01*
X129433242Y-68473869D01*
X129433242Y-68473872D01*
X129400000Y-68683753D01*
X129400000Y-68896246D01*
X129433242Y-69106127D01*
X129433242Y-69106130D01*
X129498904Y-69308217D01*
X129595375Y-69497550D01*
X129634728Y-69551716D01*
X130267037Y-68919408D01*
X130284075Y-68982993D01*
X130349901Y-69097007D01*
X130442993Y-69190099D01*
X130557007Y-69255925D01*
X130620590Y-69272962D01*
X129988282Y-69905269D01*
X129988282Y-69905270D01*
X130042452Y-69944626D01*
X130042451Y-69944626D01*
X130051495Y-69949234D01*
X130102292Y-69997208D01*
X130119087Y-70065029D01*
X130096550Y-70131164D01*
X130051499Y-70170202D01*
X130042182Y-70174949D01*
X129870213Y-70299890D01*
X129719890Y-70450213D01*
X129594951Y-70622179D01*
X129498444Y-70811585D01*
X129432753Y-71013760D01*
X129399500Y-71223713D01*
X129399500Y-71436286D01*
X129431169Y-71636239D01*
X129432754Y-71646243D01*
X129495194Y-71838414D01*
X129498444Y-71848414D01*
X129594951Y-72037820D01*
X129719890Y-72209786D01*
X129870213Y-72360109D01*
X130042182Y-72485050D01*
X130050946Y-72489516D01*
X130101742Y-72537491D01*
X130118536Y-72605312D01*
X130095998Y-72671447D01*
X130050946Y-72710484D01*
X130042182Y-72714949D01*
X129870213Y-72839890D01*
X129719890Y-72990213D01*
X129594951Y-73162179D01*
X129498444Y-73351585D01*
X129432753Y-73553760D01*
X129399500Y-73763713D01*
X129399500Y-73976286D01*
X129431169Y-74176239D01*
X129432754Y-74186243D01*
X129495194Y-74378414D01*
X129498444Y-74388414D01*
X129594951Y-74577820D01*
X129719890Y-74749786D01*
X129870213Y-74900109D01*
X130042182Y-75025050D01*
X130050946Y-75029516D01*
X130101742Y-75077491D01*
X130118536Y-75145312D01*
X130095998Y-75211447D01*
X130050946Y-75250484D01*
X130042182Y-75254949D01*
X129870213Y-75379890D01*
X129719890Y-75530213D01*
X129594951Y-75702179D01*
X129498444Y-75891585D01*
X129432753Y-76093760D01*
X129399500Y-76303713D01*
X129399500Y-76516286D01*
X129431169Y-76716239D01*
X129432754Y-76726243D01*
X129495194Y-76918414D01*
X129498444Y-76928414D01*
X129594951Y-77117820D01*
X129719890Y-77289786D01*
X129870213Y-77440109D01*
X130042182Y-77565050D01*
X130050946Y-77569516D01*
X130101742Y-77617491D01*
X130118536Y-77685312D01*
X130095998Y-77751447D01*
X130050946Y-77790484D01*
X130042182Y-77794949D01*
X129870213Y-77919890D01*
X129719890Y-78070213D01*
X129594951Y-78242179D01*
X129498444Y-78431585D01*
X129432753Y-78633760D01*
X129399500Y-78843713D01*
X129399500Y-79056286D01*
X129431169Y-79256239D01*
X129432754Y-79266243D01*
X129495194Y-79458414D01*
X129498444Y-79468414D01*
X129594951Y-79657820D01*
X129719890Y-79829786D01*
X129870213Y-79980109D01*
X130042179Y-80105048D01*
X130042181Y-80105049D01*
X130042184Y-80105051D01*
X130051493Y-80109794D01*
X130102290Y-80157766D01*
X130119087Y-80225587D01*
X130096552Y-80291722D01*
X130051505Y-80330760D01*
X130042446Y-80335376D01*
X130042440Y-80335380D01*
X129988282Y-80374727D01*
X129988282Y-80374728D01*
X130620591Y-81007037D01*
X130557007Y-81024075D01*
X130442993Y-81089901D01*
X130349901Y-81182993D01*
X130284075Y-81297007D01*
X130267037Y-81360591D01*
X129634728Y-80728282D01*
X129634727Y-80728282D01*
X129595380Y-80782439D01*
X129498904Y-80971782D01*
X129433242Y-81173869D01*
X129433242Y-81173872D01*
X129400000Y-81383753D01*
X129400000Y-81596246D01*
X129433242Y-81806127D01*
X129433242Y-81806130D01*
X129498904Y-82008217D01*
X129595375Y-82197550D01*
X129634728Y-82251716D01*
X130267037Y-81619408D01*
X130284075Y-81682993D01*
X130349901Y-81797007D01*
X130442993Y-81890099D01*
X130557007Y-81955925D01*
X130620590Y-81972962D01*
X129988282Y-82605269D01*
X129988282Y-82605270D01*
X130042452Y-82644626D01*
X130042451Y-82644626D01*
X130051495Y-82649234D01*
X130102292Y-82697208D01*
X130119087Y-82765029D01*
X130096550Y-82831164D01*
X130051499Y-82870202D01*
X130042182Y-82874949D01*
X129870213Y-82999890D01*
X129719890Y-83150213D01*
X129594951Y-83322179D01*
X129498444Y-83511585D01*
X129432753Y-83713760D01*
X129399500Y-83923713D01*
X129399500Y-84136286D01*
X129431169Y-84336239D01*
X129432754Y-84346243D01*
X129495194Y-84538414D01*
X129498444Y-84548414D01*
X129594951Y-84737820D01*
X129719890Y-84909786D01*
X129870213Y-85060109D01*
X130042182Y-85185050D01*
X130050946Y-85189516D01*
X130101742Y-85237491D01*
X130118536Y-85305312D01*
X130095998Y-85371447D01*
X130050946Y-85410484D01*
X130042182Y-85414949D01*
X129870213Y-85539890D01*
X129719890Y-85690213D01*
X129594951Y-85862179D01*
X129498444Y-86051585D01*
X129432753Y-86253760D01*
X129399500Y-86463713D01*
X129399500Y-86676286D01*
X129431169Y-86876239D01*
X129432754Y-86886243D01*
X129495194Y-87078414D01*
X129498444Y-87088414D01*
X129594951Y-87277820D01*
X129719890Y-87449786D01*
X129870213Y-87600109D01*
X130042182Y-87725050D01*
X130050946Y-87729516D01*
X130101742Y-87777491D01*
X130118536Y-87845312D01*
X130095998Y-87911447D01*
X130050946Y-87950484D01*
X130042182Y-87954949D01*
X129870213Y-88079890D01*
X129719890Y-88230213D01*
X129594951Y-88402179D01*
X129498444Y-88591585D01*
X129432753Y-88793760D01*
X129399500Y-89003713D01*
X129399500Y-89216286D01*
X129431169Y-89416239D01*
X129432754Y-89426243D01*
X129495194Y-89618414D01*
X129498444Y-89628414D01*
X129594951Y-89817820D01*
X129719890Y-89989786D01*
X129870213Y-90140109D01*
X130042182Y-90265050D01*
X130050946Y-90269516D01*
X130101742Y-90317491D01*
X130118536Y-90385312D01*
X130095998Y-90451447D01*
X130050946Y-90490484D01*
X130042182Y-90494949D01*
X129870213Y-90619890D01*
X129719890Y-90770213D01*
X129594951Y-90942179D01*
X129498444Y-91131585D01*
X129432753Y-91333760D01*
X129399500Y-91543713D01*
X129399500Y-91756286D01*
X129431169Y-91956239D01*
X129432754Y-91966243D01*
X129495900Y-92160586D01*
X129498444Y-92168414D01*
X129594951Y-92357820D01*
X129719890Y-92529786D01*
X129870213Y-92680109D01*
X130042179Y-92805048D01*
X130042181Y-92805049D01*
X130042184Y-92805051D01*
X130051493Y-92809794D01*
X130102290Y-92857766D01*
X130119087Y-92925587D01*
X130096552Y-92991722D01*
X130051505Y-93030760D01*
X130042446Y-93035376D01*
X130042440Y-93035380D01*
X129988282Y-93074727D01*
X129988282Y-93074728D01*
X130620591Y-93707037D01*
X130557007Y-93724075D01*
X130442993Y-93789901D01*
X130349901Y-93882993D01*
X130284075Y-93997007D01*
X130267037Y-94060591D01*
X129634728Y-93428282D01*
X129634727Y-93428282D01*
X129595380Y-93482439D01*
X129498904Y-93671782D01*
X129433242Y-93873869D01*
X129433242Y-93873872D01*
X129400000Y-94083753D01*
X129400000Y-94296246D01*
X129433242Y-94506127D01*
X129433242Y-94506130D01*
X129498904Y-94708217D01*
X129595375Y-94897550D01*
X129634728Y-94951716D01*
X130267037Y-94319408D01*
X130284075Y-94382993D01*
X130349901Y-94497007D01*
X130442993Y-94590099D01*
X130557007Y-94655925D01*
X130620590Y-94672962D01*
X129988282Y-95305269D01*
X129988282Y-95305270D01*
X130042452Y-95344626D01*
X130042451Y-95344626D01*
X130051495Y-95349234D01*
X130102292Y-95397208D01*
X130119087Y-95465029D01*
X130096550Y-95531164D01*
X130051499Y-95570202D01*
X130042182Y-95574949D01*
X129870213Y-95699890D01*
X129719890Y-95850213D01*
X129594951Y-96022179D01*
X129498444Y-96211585D01*
X129432753Y-96413760D01*
X129399500Y-96623713D01*
X129399500Y-96836286D01*
X129431169Y-97036239D01*
X129432754Y-97046243D01*
X129495194Y-97238414D01*
X129498444Y-97248414D01*
X129594951Y-97437820D01*
X129719890Y-97609786D01*
X129870213Y-97760109D01*
X130042182Y-97885050D01*
X130050946Y-97889516D01*
X130101742Y-97937491D01*
X130118536Y-98005312D01*
X130095998Y-98071447D01*
X130050946Y-98110484D01*
X130042182Y-98114949D01*
X129870213Y-98239890D01*
X129719890Y-98390213D01*
X129594951Y-98562179D01*
X129498444Y-98751585D01*
X129432753Y-98953760D01*
X129399500Y-99163713D01*
X129399500Y-99376286D01*
X129431169Y-99576239D01*
X129432754Y-99586243D01*
X129495194Y-99778414D01*
X129498444Y-99788414D01*
X129594951Y-99977820D01*
X129719890Y-100149786D01*
X129870213Y-100300109D01*
X130042179Y-100425048D01*
X130042181Y-100425049D01*
X130042184Y-100425051D01*
X130231588Y-100521557D01*
X130433757Y-100587246D01*
X130643713Y-100620500D01*
X130643714Y-100620500D01*
X130856286Y-100620500D01*
X130856287Y-100620500D01*
X131066243Y-100587246D01*
X131268412Y-100521557D01*
X131457816Y-100425051D01*
X131479789Y-100409086D01*
X131629786Y-100300109D01*
X131629788Y-100300106D01*
X131629792Y-100300104D01*
X131780104Y-100149792D01*
X131780106Y-100149788D01*
X131780109Y-100149786D01*
X131905048Y-99977820D01*
X131905047Y-99977820D01*
X131905051Y-99977816D01*
X132001557Y-99788412D01*
X132067246Y-99586243D01*
X132100500Y-99376287D01*
X132100500Y-99163713D01*
X132067246Y-98953757D01*
X132001557Y-98751588D01*
X131905051Y-98562184D01*
X131905049Y-98562181D01*
X131905048Y-98562179D01*
X131780109Y-98390213D01*
X131629786Y-98239890D01*
X131457820Y-98114951D01*
X131457115Y-98114591D01*
X131449054Y-98110485D01*
X131398259Y-98062512D01*
X131381463Y-97994692D01*
X131403999Y-97928556D01*
X131449054Y-97889515D01*
X131457816Y-97885051D01*
X131479789Y-97869086D01*
X131629786Y-97760109D01*
X131629788Y-97760106D01*
X131629792Y-97760104D01*
X131780104Y-97609792D01*
X131780106Y-97609788D01*
X131780109Y-97609786D01*
X131905048Y-97437820D01*
X131905047Y-97437820D01*
X131905051Y-97437816D01*
X132001557Y-97248412D01*
X132067246Y-97046243D01*
X132100500Y-96836287D01*
X132100500Y-96623713D01*
X132067246Y-96413757D01*
X132001557Y-96211588D01*
X131905051Y-96022184D01*
X131905049Y-96022181D01*
X131905048Y-96022179D01*
X131780109Y-95850213D01*
X131629786Y-95699890D01*
X131457817Y-95574949D01*
X131448504Y-95570204D01*
X131397707Y-95522230D01*
X131380912Y-95454409D01*
X131403449Y-95388274D01*
X131448507Y-95349232D01*
X131457555Y-95344622D01*
X131511716Y-95305270D01*
X131511717Y-95305270D01*
X130879408Y-94672962D01*
X130942993Y-94655925D01*
X131057007Y-94590099D01*
X131150099Y-94497007D01*
X131215925Y-94382993D01*
X131232962Y-94319409D01*
X131865270Y-94951717D01*
X131865270Y-94951716D01*
X131904622Y-94897554D01*
X132001095Y-94708217D01*
X132066757Y-94506130D01*
X132066757Y-94506127D01*
X132100000Y-94296246D01*
X132100000Y-94083752D01*
X132099999Y-94083751D01*
X132066757Y-93873872D01*
X132066757Y-93873869D01*
X132001095Y-93671782D01*
X131904624Y-93482449D01*
X131865270Y-93428282D01*
X131865269Y-93428282D01*
X131232962Y-94060590D01*
X131215925Y-93997007D01*
X131150099Y-93882993D01*
X131057007Y-93789901D01*
X130942993Y-93724075D01*
X130879409Y-93707037D01*
X131511716Y-93074728D01*
X131457547Y-93035373D01*
X131457547Y-93035372D01*
X131448500Y-93030763D01*
X131397706Y-92982788D01*
X131380912Y-92914966D01*
X131403451Y-92848832D01*
X131448508Y-92809793D01*
X131457816Y-92805051D01*
X131602511Y-92699925D01*
X131629786Y-92680109D01*
X131629788Y-92680106D01*
X131629792Y-92680104D01*
X131780104Y-92529792D01*
X131780106Y-92529788D01*
X131780109Y-92529786D01*
X131905048Y-92357820D01*
X131905047Y-92357820D01*
X131905051Y-92357816D01*
X132001557Y-92168412D01*
X132067246Y-91966243D01*
X132100500Y-91756287D01*
X132100500Y-91543713D01*
X132067246Y-91333757D01*
X132001557Y-91131588D01*
X131905051Y-90942184D01*
X131905049Y-90942181D01*
X131905048Y-90942179D01*
X131780109Y-90770213D01*
X131629786Y-90619890D01*
X131457820Y-90494951D01*
X131457115Y-90494591D01*
X131449054Y-90490485D01*
X131398259Y-90442512D01*
X131381463Y-90374692D01*
X131403999Y-90308556D01*
X131449054Y-90269515D01*
X131457816Y-90265051D01*
X131572603Y-90181654D01*
X131629786Y-90140109D01*
X131629788Y-90140106D01*
X131629792Y-90140104D01*
X131780104Y-89989792D01*
X131780106Y-89989788D01*
X131780109Y-89989786D01*
X131905048Y-89817820D01*
X131905047Y-89817820D01*
X131905051Y-89817816D01*
X132001557Y-89628412D01*
X132067246Y-89426243D01*
X132100500Y-89216287D01*
X132100500Y-89003713D01*
X132067246Y-88793757D01*
X132001557Y-88591588D01*
X131905051Y-88402184D01*
X131905049Y-88402181D01*
X131905048Y-88402179D01*
X131780109Y-88230213D01*
X131629786Y-88079890D01*
X131457820Y-87954951D01*
X131457115Y-87954591D01*
X131449054Y-87950485D01*
X131398259Y-87902512D01*
X131381463Y-87834692D01*
X131403999Y-87768556D01*
X131449054Y-87729515D01*
X131457816Y-87725051D01*
X131479789Y-87709086D01*
X131629786Y-87600109D01*
X131629788Y-87600106D01*
X131629792Y-87600104D01*
X131780104Y-87449792D01*
X131780106Y-87449788D01*
X131780109Y-87449786D01*
X131905048Y-87277820D01*
X131905047Y-87277820D01*
X131905051Y-87277816D01*
X132001557Y-87088412D01*
X132067246Y-86886243D01*
X132100500Y-86676287D01*
X132100500Y-86463713D01*
X132067246Y-86253757D01*
X132001557Y-86051588D01*
X131905051Y-85862184D01*
X131905049Y-85862181D01*
X131905048Y-85862179D01*
X131780109Y-85690213D01*
X131629786Y-85539890D01*
X131457820Y-85414951D01*
X131457115Y-85414591D01*
X131449054Y-85410485D01*
X131398259Y-85362512D01*
X131381463Y-85294692D01*
X131403999Y-85228556D01*
X131449054Y-85189515D01*
X131457816Y-85185051D01*
X131533589Y-85129999D01*
X131629786Y-85060109D01*
X131629788Y-85060106D01*
X131629792Y-85060104D01*
X131780104Y-84909792D01*
X131780106Y-84909788D01*
X131780109Y-84909786D01*
X131905048Y-84737820D01*
X131905047Y-84737820D01*
X131905051Y-84737816D01*
X132001557Y-84548412D01*
X132067246Y-84346243D01*
X132100500Y-84136287D01*
X132100500Y-83923713D01*
X132067246Y-83713757D01*
X132001557Y-83511588D01*
X131905051Y-83322184D01*
X131905049Y-83322181D01*
X131905048Y-83322179D01*
X131780109Y-83150213D01*
X131629786Y-82999890D01*
X131457817Y-82874949D01*
X131448504Y-82870204D01*
X131397707Y-82822230D01*
X131380912Y-82754409D01*
X131403449Y-82688274D01*
X131448507Y-82649232D01*
X131457555Y-82644622D01*
X131511716Y-82605270D01*
X131511717Y-82605270D01*
X130879408Y-81972962D01*
X130942993Y-81955925D01*
X131057007Y-81890099D01*
X131150099Y-81797007D01*
X131215925Y-81682993D01*
X131232962Y-81619409D01*
X131865270Y-82251717D01*
X131865270Y-82251716D01*
X131904622Y-82197554D01*
X132001095Y-82008217D01*
X132066757Y-81806130D01*
X132066757Y-81806127D01*
X132100000Y-81596246D01*
X132100000Y-81383752D01*
X132099999Y-81383751D01*
X132066757Y-81173872D01*
X132066757Y-81173869D01*
X132001095Y-80971782D01*
X131904624Y-80782449D01*
X131865270Y-80728282D01*
X131865269Y-80728282D01*
X131232962Y-81360590D01*
X131215925Y-81297007D01*
X131150099Y-81182993D01*
X131057007Y-81089901D01*
X130942993Y-81024075D01*
X130879409Y-81007037D01*
X131511716Y-80374728D01*
X131457547Y-80335373D01*
X131457547Y-80335372D01*
X131448500Y-80330763D01*
X131397706Y-80282788D01*
X131380912Y-80214966D01*
X131403451Y-80148832D01*
X131448508Y-80109793D01*
X131457816Y-80105051D01*
X131557658Y-80032512D01*
X131629786Y-79980109D01*
X131629788Y-79980106D01*
X131629792Y-79980104D01*
X131780104Y-79829792D01*
X131780106Y-79829788D01*
X131780109Y-79829786D01*
X131905048Y-79657820D01*
X131905047Y-79657820D01*
X131905051Y-79657816D01*
X132001557Y-79468412D01*
X132067246Y-79266243D01*
X132100500Y-79056287D01*
X132100500Y-78843713D01*
X132067246Y-78633757D01*
X132001557Y-78431588D01*
X131905051Y-78242184D01*
X131905049Y-78242181D01*
X131905048Y-78242179D01*
X131780109Y-78070213D01*
X131629786Y-77919890D01*
X131457820Y-77794951D01*
X131457115Y-77794591D01*
X131449054Y-77790485D01*
X131398259Y-77742512D01*
X131381463Y-77674692D01*
X131403999Y-77608556D01*
X131449054Y-77569515D01*
X131457816Y-77565051D01*
X131479789Y-77549086D01*
X131629786Y-77440109D01*
X131629788Y-77440106D01*
X131629792Y-77440104D01*
X131780104Y-77289792D01*
X131780106Y-77289788D01*
X131780109Y-77289786D01*
X131905048Y-77117820D01*
X131905047Y-77117820D01*
X131905051Y-77117816D01*
X132001557Y-76928412D01*
X132067246Y-76726243D01*
X132100500Y-76516287D01*
X132100500Y-76303713D01*
X132067246Y-76093757D01*
X132001557Y-75891588D01*
X131905051Y-75702184D01*
X131905049Y-75702181D01*
X131905048Y-75702179D01*
X131780109Y-75530213D01*
X131629786Y-75379890D01*
X131457820Y-75254951D01*
X131457115Y-75254591D01*
X131449054Y-75250485D01*
X131398259Y-75202512D01*
X131381463Y-75134692D01*
X131403999Y-75068556D01*
X131449054Y-75029515D01*
X131457816Y-75025051D01*
X131479789Y-75009086D01*
X131629786Y-74900109D01*
X131629788Y-74900106D01*
X131629792Y-74900104D01*
X131780104Y-74749792D01*
X131780106Y-74749788D01*
X131780109Y-74749786D01*
X131905048Y-74577820D01*
X131905047Y-74577820D01*
X131905051Y-74577816D01*
X132001557Y-74388412D01*
X132067246Y-74186243D01*
X132100500Y-73976287D01*
X132100500Y-73763713D01*
X132067246Y-73553757D01*
X132001557Y-73351588D01*
X131905051Y-73162184D01*
X131905049Y-73162181D01*
X131905048Y-73162179D01*
X131780109Y-72990213D01*
X131629786Y-72839890D01*
X131457820Y-72714951D01*
X131457115Y-72714591D01*
X131449054Y-72710485D01*
X131398259Y-72662512D01*
X131381463Y-72594692D01*
X131403999Y-72528556D01*
X131449054Y-72489515D01*
X131457816Y-72485051D01*
X131479789Y-72469086D01*
X131629786Y-72360109D01*
X131629788Y-72360106D01*
X131629792Y-72360104D01*
X131780104Y-72209792D01*
X131780106Y-72209788D01*
X131780109Y-72209786D01*
X131905048Y-72037820D01*
X131905047Y-72037820D01*
X131905051Y-72037816D01*
X132001557Y-71848412D01*
X132067246Y-71646243D01*
X132100500Y-71436287D01*
X132100500Y-71223713D01*
X132067246Y-71013757D01*
X132001557Y-70811588D01*
X131905051Y-70622184D01*
X131905049Y-70622181D01*
X131905048Y-70622179D01*
X131780109Y-70450213D01*
X131629786Y-70299890D01*
X131457817Y-70174949D01*
X131448504Y-70170204D01*
X131397707Y-70122230D01*
X131380912Y-70054409D01*
X131403449Y-69988274D01*
X131448507Y-69949232D01*
X131457555Y-69944622D01*
X131511716Y-69905270D01*
X131511717Y-69905270D01*
X130879408Y-69272962D01*
X130942993Y-69255925D01*
X131057007Y-69190099D01*
X131150099Y-69097007D01*
X131215925Y-68982993D01*
X131232962Y-68919409D01*
X131865270Y-69551717D01*
X131865270Y-69551716D01*
X131904622Y-69497554D01*
X132001095Y-69308217D01*
X132066757Y-69106130D01*
X132066757Y-69106127D01*
X132100000Y-68896246D01*
X132100000Y-68683752D01*
X132099999Y-68683751D01*
X132066757Y-68473872D01*
X132066757Y-68473869D01*
X132001095Y-68271782D01*
X131904624Y-68082449D01*
X131865270Y-68028282D01*
X131865269Y-68028282D01*
X131232962Y-68660590D01*
X131215925Y-68597007D01*
X131150099Y-68482993D01*
X131057007Y-68389901D01*
X130942993Y-68324075D01*
X130879409Y-68307037D01*
X131511716Y-67674728D01*
X131457547Y-67635373D01*
X131457547Y-67635372D01*
X131448500Y-67630763D01*
X131397706Y-67582788D01*
X131380912Y-67514966D01*
X131403451Y-67448832D01*
X131448508Y-67409793D01*
X131457816Y-67405051D01*
X131537007Y-67347515D01*
X131629786Y-67280109D01*
X131629788Y-67280106D01*
X131629792Y-67280104D01*
X131780104Y-67129792D01*
X131780106Y-67129788D01*
X131780109Y-67129786D01*
X131905048Y-66957820D01*
X131905047Y-66957820D01*
X131905051Y-66957816D01*
X132001557Y-66768412D01*
X132067246Y-66566243D01*
X132100500Y-66356287D01*
X132100500Y-66143713D01*
X132067246Y-65933757D01*
X132001557Y-65731588D01*
X131905051Y-65542184D01*
X131905049Y-65542181D01*
X131905048Y-65542179D01*
X131780109Y-65370213D01*
X131629786Y-65219890D01*
X131457820Y-65094951D01*
X131457115Y-65094591D01*
X131449054Y-65090485D01*
X131398259Y-65042512D01*
X131381463Y-64974692D01*
X131403999Y-64908556D01*
X131449054Y-64869515D01*
X131457816Y-64865051D01*
X131479789Y-64849086D01*
X131629786Y-64740109D01*
X131629788Y-64740106D01*
X131629792Y-64740104D01*
X131780104Y-64589792D01*
X131780106Y-64589788D01*
X131780109Y-64589786D01*
X131905048Y-64417820D01*
X131905047Y-64417820D01*
X131905051Y-64417816D01*
X132001557Y-64228412D01*
X132067246Y-64026243D01*
X132100500Y-63816287D01*
X132100500Y-63603713D01*
X132067246Y-63393757D01*
X132001557Y-63191588D01*
X131905051Y-63002184D01*
X131905049Y-63002181D01*
X131905048Y-63002179D01*
X131780109Y-62830213D01*
X131629786Y-62679890D01*
X131457820Y-62554951D01*
X131457115Y-62554591D01*
X131449054Y-62550485D01*
X131398259Y-62502512D01*
X131381463Y-62434692D01*
X131403999Y-62368556D01*
X131449054Y-62329515D01*
X131457816Y-62325051D01*
X131515596Y-62283072D01*
X131629786Y-62200109D01*
X131629788Y-62200106D01*
X131629792Y-62200104D01*
X131780104Y-62049792D01*
X131780106Y-62049788D01*
X131780109Y-62049786D01*
X131905048Y-61877820D01*
X131905047Y-61877820D01*
X131905051Y-61877816D01*
X132001557Y-61688412D01*
X132067246Y-61486243D01*
X132100500Y-61276287D01*
X132100500Y-61063713D01*
X132067246Y-60853757D01*
X132001557Y-60651588D01*
X131905051Y-60462184D01*
X131905049Y-60462181D01*
X131905048Y-60462179D01*
X131780109Y-60290213D01*
X131629786Y-60139890D01*
X131457820Y-60014951D01*
X131457115Y-60014591D01*
X131449054Y-60010485D01*
X131398259Y-59962512D01*
X131381463Y-59894692D01*
X131403999Y-59828556D01*
X131449054Y-59789515D01*
X131457816Y-59785051D01*
X131479789Y-59769086D01*
X131629786Y-59660109D01*
X131629788Y-59660106D01*
X131629792Y-59660104D01*
X131780104Y-59509792D01*
X131780106Y-59509788D01*
X131780109Y-59509786D01*
X131905048Y-59337820D01*
X131905047Y-59337820D01*
X131905051Y-59337816D01*
X132001557Y-59148412D01*
X132067246Y-58946243D01*
X132100500Y-58736287D01*
X132100500Y-58523713D01*
X132067246Y-58313757D01*
X132001557Y-58111588D01*
X131905051Y-57922184D01*
X131905049Y-57922181D01*
X131905048Y-57922179D01*
X131780109Y-57750213D01*
X131629786Y-57599890D01*
X131457817Y-57474949D01*
X131448504Y-57470204D01*
X131397707Y-57422230D01*
X131380912Y-57354409D01*
X131403449Y-57288274D01*
X131448507Y-57249232D01*
X131457555Y-57244622D01*
X131511716Y-57205270D01*
X131511717Y-57205270D01*
X130879408Y-56572962D01*
X130942993Y-56555925D01*
X131057007Y-56490099D01*
X131150099Y-56397007D01*
X131215925Y-56282993D01*
X131232962Y-56219409D01*
X131865270Y-56851717D01*
X131865270Y-56851716D01*
X131904622Y-56797554D01*
X132001095Y-56608217D01*
X132066757Y-56406130D01*
X132066757Y-56406127D01*
X132100000Y-56196246D01*
X132100000Y-55983752D01*
X132099999Y-55983751D01*
X132066757Y-55773872D01*
X132066757Y-55773869D01*
X132001095Y-55571782D01*
X131904624Y-55382449D01*
X131865270Y-55328282D01*
X131865269Y-55328282D01*
X131232962Y-55960590D01*
X131215925Y-55897007D01*
X131150099Y-55782993D01*
X131057007Y-55689901D01*
X130942993Y-55624075D01*
X130879409Y-55607037D01*
X131511716Y-54974728D01*
X131457547Y-54935373D01*
X131457547Y-54935372D01*
X131448500Y-54930763D01*
X131397706Y-54882788D01*
X131380912Y-54814966D01*
X131403451Y-54748832D01*
X131448508Y-54709793D01*
X131457816Y-54705051D01*
X131537007Y-54647515D01*
X131629786Y-54580109D01*
X131629788Y-54580106D01*
X131629792Y-54580104D01*
X131780104Y-54429792D01*
X131780106Y-54429788D01*
X131780109Y-54429786D01*
X131905048Y-54257820D01*
X131905047Y-54257820D01*
X131905051Y-54257816D01*
X132001557Y-54068412D01*
X132067246Y-53866243D01*
X132100500Y-53656287D01*
X132100500Y-53443713D01*
X132067246Y-53233757D01*
X132001557Y-53031588D01*
X131905051Y-52842184D01*
X131905049Y-52842181D01*
X131905048Y-52842179D01*
X131780109Y-52670213D01*
X131666569Y-52556673D01*
X131633084Y-52495350D01*
X131638068Y-52425658D01*
X131679940Y-52369725D01*
X131710915Y-52352810D01*
X131842331Y-52303796D01*
X131957546Y-52217546D01*
X132043796Y-52102331D01*
X132094091Y-51967483D01*
X132100500Y-51907873D01*
X132100499Y-50112128D01*
X132099424Y-50102135D01*
X147149500Y-50102135D01*
X147149500Y-51897870D01*
X147149501Y-51897876D01*
X147155908Y-51957483D01*
X147206202Y-52092328D01*
X147206206Y-52092335D01*
X147292452Y-52207544D01*
X147292455Y-52207547D01*
X147407664Y-52293793D01*
X147407671Y-52293797D01*
X147539082Y-52342810D01*
X147595016Y-52384681D01*
X147619433Y-52450145D01*
X147604582Y-52518418D01*
X147583431Y-52546673D01*
X147469889Y-52660215D01*
X147344951Y-52832179D01*
X147248444Y-53021585D01*
X147182753Y-53223760D01*
X147149500Y-53433713D01*
X147149500Y-53646287D01*
X147182754Y-53856243D01*
X147186003Y-53866243D01*
X147248444Y-54058414D01*
X147344951Y-54247820D01*
X147469890Y-54419786D01*
X147620213Y-54570109D01*
X147792179Y-54695048D01*
X147792181Y-54695049D01*
X147792184Y-54695051D01*
X147801493Y-54699794D01*
X147852290Y-54747766D01*
X147869087Y-54815587D01*
X147846552Y-54881722D01*
X147801505Y-54920760D01*
X147792446Y-54925376D01*
X147792440Y-54925380D01*
X147738282Y-54964727D01*
X147738282Y-54964728D01*
X148370591Y-55597037D01*
X148307007Y-55614075D01*
X148192993Y-55679901D01*
X148099901Y-55772993D01*
X148034075Y-55887007D01*
X148017037Y-55950591D01*
X147384728Y-55318282D01*
X147384727Y-55318282D01*
X147345380Y-55372439D01*
X147248904Y-55561782D01*
X147183242Y-55763869D01*
X147183242Y-55763872D01*
X147150000Y-55973753D01*
X147150000Y-56186246D01*
X147183242Y-56396127D01*
X147183242Y-56396130D01*
X147248904Y-56598217D01*
X147345375Y-56787550D01*
X147384728Y-56841716D01*
X148017037Y-56209408D01*
X148034075Y-56272993D01*
X148099901Y-56387007D01*
X148192993Y-56480099D01*
X148307007Y-56545925D01*
X148370590Y-56562962D01*
X147738282Y-57195269D01*
X147738282Y-57195270D01*
X147792452Y-57234626D01*
X147792451Y-57234626D01*
X147801495Y-57239234D01*
X147852292Y-57287208D01*
X147869087Y-57355029D01*
X147846550Y-57421164D01*
X147801499Y-57460202D01*
X147792182Y-57464949D01*
X147620213Y-57589890D01*
X147469890Y-57740213D01*
X147344951Y-57912179D01*
X147248444Y-58101585D01*
X147182753Y-58303760D01*
X147149500Y-58513713D01*
X147149500Y-58726287D01*
X147182754Y-58936243D01*
X147186003Y-58946243D01*
X147248444Y-59138414D01*
X147344951Y-59327820D01*
X147469890Y-59499786D01*
X147620213Y-59650109D01*
X147792182Y-59775050D01*
X147800946Y-59779516D01*
X147851742Y-59827491D01*
X147868536Y-59895312D01*
X147845998Y-59961447D01*
X147800946Y-60000484D01*
X147792182Y-60004949D01*
X147620213Y-60129890D01*
X147469890Y-60280213D01*
X147344951Y-60452179D01*
X147248444Y-60641585D01*
X147182753Y-60843760D01*
X147149500Y-61053713D01*
X147149500Y-61266286D01*
X147166718Y-61375000D01*
X147182754Y-61476243D01*
X147215423Y-61576788D01*
X147248444Y-61678414D01*
X147344951Y-61867820D01*
X147469890Y-62039786D01*
X147620213Y-62190109D01*
X147792182Y-62315050D01*
X147800946Y-62319516D01*
X147851742Y-62367491D01*
X147868536Y-62435312D01*
X147845998Y-62501447D01*
X147800946Y-62540484D01*
X147792182Y-62544949D01*
X147620213Y-62669890D01*
X147469890Y-62820213D01*
X147344951Y-62992179D01*
X147248444Y-63181585D01*
X147182753Y-63383760D01*
X147152181Y-63576788D01*
X147149500Y-63593713D01*
X147149500Y-63806287D01*
X147182754Y-64016243D01*
X147206558Y-64089505D01*
X147248444Y-64218414D01*
X147344951Y-64407820D01*
X147469890Y-64579786D01*
X147620213Y-64730109D01*
X147792182Y-64855050D01*
X147800946Y-64859516D01*
X147851742Y-64907491D01*
X147868536Y-64975312D01*
X147845998Y-65041447D01*
X147800946Y-65080484D01*
X147792182Y-65084949D01*
X147620213Y-65209890D01*
X147469890Y-65360213D01*
X147344951Y-65532179D01*
X147248444Y-65721585D01*
X147182753Y-65923760D01*
X147149500Y-66133713D01*
X147149500Y-66346287D01*
X147182754Y-66556243D01*
X147186003Y-66566243D01*
X147248444Y-66758414D01*
X147344951Y-66947820D01*
X147469890Y-67119786D01*
X147620213Y-67270109D01*
X147792179Y-67395048D01*
X147792181Y-67395049D01*
X147792184Y-67395051D01*
X147801493Y-67399794D01*
X147852290Y-67447766D01*
X147869087Y-67515587D01*
X147846552Y-67581722D01*
X147801505Y-67620760D01*
X147792446Y-67625376D01*
X147792440Y-67625380D01*
X147738282Y-67664727D01*
X147738282Y-67664728D01*
X148370591Y-68297037D01*
X148307007Y-68314075D01*
X148192993Y-68379901D01*
X148099901Y-68472993D01*
X148034075Y-68587007D01*
X148017037Y-68650591D01*
X147384728Y-68018282D01*
X147384727Y-68018282D01*
X147345380Y-68072439D01*
X147248904Y-68261782D01*
X147183242Y-68463869D01*
X147183242Y-68463872D01*
X147150000Y-68673753D01*
X147150000Y-68886246D01*
X147183242Y-69096127D01*
X147183242Y-69096130D01*
X147248904Y-69298217D01*
X147345375Y-69487550D01*
X147384728Y-69541716D01*
X148017037Y-68909408D01*
X148034075Y-68972993D01*
X148099901Y-69087007D01*
X148192993Y-69180099D01*
X148307007Y-69245925D01*
X148370590Y-69262962D01*
X147738282Y-69895269D01*
X147738282Y-69895270D01*
X147792452Y-69934626D01*
X147792451Y-69934626D01*
X147801495Y-69939234D01*
X147852292Y-69987208D01*
X147869087Y-70055029D01*
X147846550Y-70121164D01*
X147801499Y-70160202D01*
X147792182Y-70164949D01*
X147620213Y-70289890D01*
X147469890Y-70440213D01*
X147344951Y-70612179D01*
X147248444Y-70801585D01*
X147182753Y-71003760D01*
X147149500Y-71213713D01*
X147149500Y-71426286D01*
X147165338Y-71526287D01*
X147182754Y-71636243D01*
X147232003Y-71787816D01*
X147248444Y-71838414D01*
X147344951Y-72027820D01*
X147469890Y-72199786D01*
X147620213Y-72350109D01*
X147792182Y-72475050D01*
X147800946Y-72479516D01*
X147851742Y-72527491D01*
X147868536Y-72595312D01*
X147845998Y-72661447D01*
X147800946Y-72700484D01*
X147792182Y-72704949D01*
X147620213Y-72829890D01*
X147469890Y-72980213D01*
X147344951Y-73152179D01*
X147248444Y-73341585D01*
X147182753Y-73543760D01*
X147149500Y-73753713D01*
X147149500Y-73966286D01*
X147165664Y-74068345D01*
X147182754Y-74176243D01*
X147235801Y-74339505D01*
X147248444Y-74378414D01*
X147344951Y-74567820D01*
X147469890Y-74739786D01*
X147620213Y-74890109D01*
X147792182Y-75015050D01*
X147800946Y-75019516D01*
X147851742Y-75067491D01*
X147868536Y-75135312D01*
X147845998Y-75201447D01*
X147800946Y-75240484D01*
X147792182Y-75244949D01*
X147620213Y-75369890D01*
X147469890Y-75520213D01*
X147344951Y-75692179D01*
X147248444Y-75881585D01*
X147182753Y-76083760D01*
X147149500Y-76293713D01*
X147149500Y-76506286D01*
X147165338Y-76606287D01*
X147182754Y-76716243D01*
X147232003Y-76867816D01*
X147248444Y-76918414D01*
X147344951Y-77107820D01*
X147469890Y-77279786D01*
X147620213Y-77430109D01*
X147792182Y-77555050D01*
X147800946Y-77559516D01*
X147851742Y-77607491D01*
X147868536Y-77675312D01*
X147845998Y-77741447D01*
X147800946Y-77780484D01*
X147792182Y-77784949D01*
X147620213Y-77909890D01*
X147469890Y-78060213D01*
X147344951Y-78232179D01*
X147248444Y-78421585D01*
X147182753Y-78623760D01*
X147149500Y-78833713D01*
X147149500Y-79046286D01*
X147165338Y-79146287D01*
X147182754Y-79256243D01*
X147232003Y-79407816D01*
X147248444Y-79458414D01*
X147344951Y-79647820D01*
X147469890Y-79819786D01*
X147620213Y-79970109D01*
X147792179Y-80095048D01*
X147792181Y-80095049D01*
X147792184Y-80095051D01*
X147801493Y-80099794D01*
X147852290Y-80147766D01*
X147869087Y-80215587D01*
X147846552Y-80281722D01*
X147801505Y-80320760D01*
X147792446Y-80325376D01*
X147792440Y-80325380D01*
X147738282Y-80364727D01*
X147738282Y-80364728D01*
X148370591Y-80997037D01*
X148307007Y-81014075D01*
X148192993Y-81079901D01*
X148099901Y-81172993D01*
X148034075Y-81287007D01*
X148017037Y-81350591D01*
X147384728Y-80718282D01*
X147384727Y-80718282D01*
X147345380Y-80772439D01*
X147248904Y-80961782D01*
X147183242Y-81163869D01*
X147183242Y-81163872D01*
X147150000Y-81373753D01*
X147150000Y-81586246D01*
X147183242Y-81796127D01*
X147183242Y-81796130D01*
X147248904Y-81998217D01*
X147345375Y-82187550D01*
X147384728Y-82241716D01*
X148017037Y-81609408D01*
X148034075Y-81672993D01*
X148099901Y-81787007D01*
X148192993Y-81880099D01*
X148307007Y-81945925D01*
X148370590Y-81962962D01*
X147738282Y-82595269D01*
X147738282Y-82595270D01*
X147792452Y-82634626D01*
X147792451Y-82634626D01*
X147801495Y-82639234D01*
X147852292Y-82687208D01*
X147869087Y-82755029D01*
X147846550Y-82821164D01*
X147801499Y-82860202D01*
X147792182Y-82864949D01*
X147620213Y-82989890D01*
X147469890Y-83140213D01*
X147344951Y-83312179D01*
X147248444Y-83501585D01*
X147182753Y-83703760D01*
X147149500Y-83913713D01*
X147149500Y-84126286D01*
X147179071Y-84312993D01*
X147182754Y-84336243D01*
X147193722Y-84370000D01*
X147248444Y-84538414D01*
X147344951Y-84727820D01*
X147469890Y-84899786D01*
X147620213Y-85050109D01*
X147792182Y-85175050D01*
X147800946Y-85179516D01*
X147851742Y-85227491D01*
X147868536Y-85295312D01*
X147845998Y-85361447D01*
X147800946Y-85400484D01*
X147792182Y-85404949D01*
X147620213Y-85529890D01*
X147469890Y-85680213D01*
X147344951Y-85852179D01*
X147248444Y-86041585D01*
X147182753Y-86243760D01*
X147149500Y-86453713D01*
X147149500Y-86666287D01*
X147182754Y-86876243D01*
X147186003Y-86886243D01*
X147248444Y-87078414D01*
X147344951Y-87267820D01*
X147469890Y-87439786D01*
X147620213Y-87590109D01*
X147792182Y-87715050D01*
X147800946Y-87719516D01*
X147851742Y-87767491D01*
X147868536Y-87835312D01*
X147845998Y-87901447D01*
X147800946Y-87940484D01*
X147792182Y-87944949D01*
X147620213Y-88069890D01*
X147469890Y-88220213D01*
X147344951Y-88392179D01*
X147248444Y-88581585D01*
X147182753Y-88783760D01*
X147149500Y-88993713D01*
X147149500Y-89206287D01*
X147182754Y-89416243D01*
X147186003Y-89426243D01*
X147248444Y-89618414D01*
X147344951Y-89807820D01*
X147469890Y-89979786D01*
X147620213Y-90130109D01*
X147792182Y-90255050D01*
X147800946Y-90259516D01*
X147851742Y-90307491D01*
X147868536Y-90375312D01*
X147845998Y-90441447D01*
X147800946Y-90480484D01*
X147792182Y-90484949D01*
X147620213Y-90609890D01*
X147469890Y-90760213D01*
X147344951Y-90932179D01*
X147248444Y-91121585D01*
X147182753Y-91323760D01*
X147149500Y-91533713D01*
X147149500Y-91746286D01*
X147178058Y-91926598D01*
X147182754Y-91956243D01*
X147220821Y-92073402D01*
X147248444Y-92158414D01*
X147344951Y-92347820D01*
X147469890Y-92519786D01*
X147620213Y-92670109D01*
X147792179Y-92795048D01*
X147792181Y-92795049D01*
X147792184Y-92795051D01*
X147801493Y-92799794D01*
X147852290Y-92847766D01*
X147869087Y-92915587D01*
X147846552Y-92981722D01*
X147801505Y-93020760D01*
X147792446Y-93025376D01*
X147792440Y-93025380D01*
X147738282Y-93064727D01*
X147738282Y-93064728D01*
X148370591Y-93697037D01*
X148307007Y-93714075D01*
X148192993Y-93779901D01*
X148099901Y-93872993D01*
X148034075Y-93987007D01*
X148017037Y-94050591D01*
X147384728Y-93418282D01*
X147384727Y-93418282D01*
X147345380Y-93472439D01*
X147248904Y-93661782D01*
X147183242Y-93863869D01*
X147183242Y-93863872D01*
X147150000Y-94073753D01*
X147150000Y-94286246D01*
X147183242Y-94496127D01*
X147183242Y-94496130D01*
X147248904Y-94698217D01*
X147345375Y-94887550D01*
X147384728Y-94941716D01*
X148017037Y-94309408D01*
X148034075Y-94372993D01*
X148099901Y-94487007D01*
X148192993Y-94580099D01*
X148307007Y-94645925D01*
X148370590Y-94662962D01*
X147738282Y-95295269D01*
X147738282Y-95295270D01*
X147792452Y-95334626D01*
X147792451Y-95334626D01*
X147801495Y-95339234D01*
X147852292Y-95387208D01*
X147869087Y-95455029D01*
X147846550Y-95521164D01*
X147801499Y-95560202D01*
X147792182Y-95564949D01*
X147620213Y-95689890D01*
X147469890Y-95840213D01*
X147344951Y-96012179D01*
X147248444Y-96201585D01*
X147182753Y-96403760D01*
X147149500Y-96613713D01*
X147149500Y-96826287D01*
X147182754Y-97036243D01*
X147186003Y-97046243D01*
X147248444Y-97238414D01*
X147344951Y-97427820D01*
X147469890Y-97599786D01*
X147620213Y-97750109D01*
X147792182Y-97875050D01*
X147800946Y-97879516D01*
X147851742Y-97927491D01*
X147868536Y-97995312D01*
X147845998Y-98061447D01*
X147800946Y-98100484D01*
X147792182Y-98104949D01*
X147620213Y-98229890D01*
X147469890Y-98380213D01*
X147344951Y-98552179D01*
X147248444Y-98741585D01*
X147182753Y-98943760D01*
X147149500Y-99153713D01*
X147149500Y-99366287D01*
X147182754Y-99576243D01*
X147186003Y-99586243D01*
X147248444Y-99778414D01*
X147344951Y-99967820D01*
X147469890Y-100139786D01*
X147620213Y-100290109D01*
X147792179Y-100415048D01*
X147792181Y-100415049D01*
X147792184Y-100415051D01*
X147981588Y-100511557D01*
X148183757Y-100577246D01*
X148393713Y-100610500D01*
X148393714Y-100610500D01*
X148606286Y-100610500D01*
X148606287Y-100610500D01*
X148816243Y-100577246D01*
X149018412Y-100511557D01*
X149207816Y-100415051D01*
X149229789Y-100399086D01*
X149379786Y-100290109D01*
X149379788Y-100290106D01*
X149379792Y-100290104D01*
X149530104Y-100139792D01*
X149530106Y-100139788D01*
X149530109Y-100139786D01*
X149655048Y-99967820D01*
X149655047Y-99967820D01*
X149655051Y-99967816D01*
X149751557Y-99778412D01*
X149817246Y-99576243D01*
X149850500Y-99366287D01*
X149850500Y-99153713D01*
X149817246Y-98943757D01*
X149751557Y-98741588D01*
X149655051Y-98552184D01*
X149655049Y-98552181D01*
X149655048Y-98552179D01*
X149530109Y-98380213D01*
X149379786Y-98229890D01*
X149207820Y-98104951D01*
X149207115Y-98104591D01*
X149199054Y-98100485D01*
X149148259Y-98052512D01*
X149131463Y-97984692D01*
X149153999Y-97918556D01*
X149199054Y-97879515D01*
X149207816Y-97875051D01*
X149229789Y-97859086D01*
X149379786Y-97750109D01*
X149379788Y-97750106D01*
X149379792Y-97750104D01*
X149530104Y-97599792D01*
X149530106Y-97599788D01*
X149530109Y-97599786D01*
X149655048Y-97427820D01*
X149655047Y-97427820D01*
X149655051Y-97427816D01*
X149751557Y-97238412D01*
X149817246Y-97036243D01*
X149850500Y-96826287D01*
X149850500Y-96613713D01*
X149817246Y-96403757D01*
X149751557Y-96201588D01*
X149655051Y-96012184D01*
X149655049Y-96012181D01*
X149655048Y-96012179D01*
X149530109Y-95840213D01*
X149379786Y-95689890D01*
X149207817Y-95564949D01*
X149198504Y-95560204D01*
X149147707Y-95512230D01*
X149130912Y-95444409D01*
X149153449Y-95378274D01*
X149198507Y-95339232D01*
X149207555Y-95334622D01*
X149261716Y-95295270D01*
X149261717Y-95295270D01*
X148629408Y-94662962D01*
X148692993Y-94645925D01*
X148807007Y-94580099D01*
X148900099Y-94487007D01*
X148965925Y-94372993D01*
X148982962Y-94309408D01*
X149615270Y-94941717D01*
X149615270Y-94941716D01*
X149654622Y-94887554D01*
X149751095Y-94698217D01*
X149816757Y-94496130D01*
X149816757Y-94496127D01*
X149850000Y-94286246D01*
X149850000Y-94073753D01*
X149816757Y-93863872D01*
X149816757Y-93863869D01*
X149751095Y-93661782D01*
X149654624Y-93472449D01*
X149615270Y-93418282D01*
X149615269Y-93418282D01*
X148982962Y-94050590D01*
X148965925Y-93987007D01*
X148900099Y-93872993D01*
X148807007Y-93779901D01*
X148692993Y-93714075D01*
X148629409Y-93697037D01*
X149215488Y-93110957D01*
X149261716Y-93064728D01*
X149207547Y-93025373D01*
X149207547Y-93025372D01*
X149198500Y-93020763D01*
X149147706Y-92972788D01*
X149130912Y-92904966D01*
X149153451Y-92838832D01*
X149198508Y-92799793D01*
X149207816Y-92795051D01*
X149338747Y-92699925D01*
X149379786Y-92670109D01*
X149379788Y-92670106D01*
X149379792Y-92670104D01*
X149530104Y-92519792D01*
X149530106Y-92519788D01*
X149530109Y-92519786D01*
X149655048Y-92347820D01*
X149655047Y-92347820D01*
X149655051Y-92347816D01*
X149751557Y-92158412D01*
X149817246Y-91956243D01*
X149850500Y-91746287D01*
X149850500Y-91533713D01*
X149817246Y-91323757D01*
X149751557Y-91121588D01*
X149655051Y-90932184D01*
X149655050Y-90932182D01*
X149641396Y-90913389D01*
X161374500Y-90913389D01*
X161374500Y-91086611D01*
X161401598Y-91257701D01*
X161455127Y-91422445D01*
X161533768Y-91576788D01*
X161635586Y-91716928D01*
X161635588Y-91716930D01*
X161743491Y-91824833D01*
X161776976Y-91886156D01*
X161771992Y-91955848D01*
X161730120Y-92011781D01*
X161720907Y-92018053D01*
X161656654Y-92057684D01*
X161532684Y-92181654D01*
X161440643Y-92330875D01*
X161440641Y-92330880D01*
X161385494Y-92497302D01*
X161385493Y-92497309D01*
X161375000Y-92600013D01*
X161375000Y-92750000D01*
X162469670Y-92750000D01*
X162449925Y-92769745D01*
X162400556Y-92855255D01*
X162375000Y-92950630D01*
X162375000Y-93049370D01*
X162400556Y-93144745D01*
X162449925Y-93230255D01*
X162469670Y-93250000D01*
X161375001Y-93250000D01*
X161375001Y-93399986D01*
X161385494Y-93502697D01*
X161440641Y-93669119D01*
X161440643Y-93669124D01*
X161532684Y-93818345D01*
X161656654Y-93942315D01*
X161805875Y-94034356D01*
X161805880Y-94034358D01*
X161972302Y-94089505D01*
X161972309Y-94089506D01*
X162075019Y-94099999D01*
X162499999Y-94099999D01*
X162500000Y-94099998D01*
X162500000Y-93280330D01*
X162519745Y-93300075D01*
X162605255Y-93349444D01*
X162700630Y-93375000D01*
X162799370Y-93375000D01*
X162894745Y-93349444D01*
X162980255Y-93300075D01*
X163000000Y-93280330D01*
X163000000Y-94099999D01*
X163424972Y-94099999D01*
X163424986Y-94099998D01*
X163527697Y-94089505D01*
X163694119Y-94034358D01*
X163694124Y-94034356D01*
X163843345Y-93942315D01*
X163967315Y-93818345D01*
X164059356Y-93669124D01*
X164059358Y-93669119D01*
X164114505Y-93502697D01*
X164114506Y-93502690D01*
X164124999Y-93399986D01*
X164125000Y-93399973D01*
X164125000Y-93250000D01*
X163030330Y-93250000D01*
X163050075Y-93230255D01*
X163099444Y-93144745D01*
X163125000Y-93049370D01*
X163125000Y-92950630D01*
X163099444Y-92855255D01*
X163050075Y-92769745D01*
X163030330Y-92750000D01*
X164124999Y-92750000D01*
X164124999Y-92600028D01*
X164124998Y-92600013D01*
X164114505Y-92497302D01*
X164059358Y-92330880D01*
X164059356Y-92330875D01*
X163967315Y-92181654D01*
X163843343Y-92057682D01*
X163779093Y-92018053D01*
X163732368Y-91966105D01*
X163721145Y-91897143D01*
X163748988Y-91833061D01*
X163756486Y-91824855D01*
X163864414Y-91716928D01*
X163966232Y-91576788D01*
X164044873Y-91422445D01*
X164098402Y-91257701D01*
X164125500Y-91086611D01*
X164125500Y-90913389D01*
X164098402Y-90742299D01*
X164044873Y-90577555D01*
X163966232Y-90423212D01*
X163864414Y-90283072D01*
X163741928Y-90160586D01*
X163601788Y-90058768D01*
X163447445Y-89980127D01*
X163282701Y-89926598D01*
X163282699Y-89926597D01*
X163282698Y-89926597D01*
X163151271Y-89905781D01*
X163111611Y-89899500D01*
X162388389Y-89899500D01*
X162348728Y-89905781D01*
X162217302Y-89926597D01*
X162217299Y-89926598D01*
X162053605Y-89979786D01*
X162052552Y-89980128D01*
X161898211Y-90058768D01*
X161818256Y-90116859D01*
X161758072Y-90160586D01*
X161758070Y-90160588D01*
X161758069Y-90160588D01*
X161635588Y-90283069D01*
X161635588Y-90283070D01*
X161635586Y-90283072D01*
X161617845Y-90307491D01*
X161533768Y-90423211D01*
X161455128Y-90577552D01*
X161401597Y-90742302D01*
X161374500Y-90913389D01*
X149641396Y-90913389D01*
X149530109Y-90760213D01*
X149379786Y-90609890D01*
X149207820Y-90484951D01*
X149207115Y-90484591D01*
X149199054Y-90480485D01*
X149148259Y-90432512D01*
X149131463Y-90364692D01*
X149153999Y-90298556D01*
X149199054Y-90259515D01*
X149207816Y-90255051D01*
X149308839Y-90181654D01*
X149379786Y-90130109D01*
X149379788Y-90130106D01*
X149379792Y-90130104D01*
X149530104Y-89979792D01*
X149530106Y-89979788D01*
X149530109Y-89979786D01*
X149655048Y-89807820D01*
X149655047Y-89807820D01*
X149655051Y-89807816D01*
X149751557Y-89618412D01*
X149817246Y-89416243D01*
X149850500Y-89206287D01*
X149850500Y-88993713D01*
X149817246Y-88783757D01*
X149751557Y-88581588D01*
X149655051Y-88392184D01*
X149655049Y-88392181D01*
X149655048Y-88392179D01*
X149530109Y-88220213D01*
X149379786Y-88069890D01*
X149207820Y-87944951D01*
X149207115Y-87944591D01*
X149199054Y-87940485D01*
X149148259Y-87892512D01*
X149131463Y-87824692D01*
X149153999Y-87758556D01*
X149199054Y-87719515D01*
X149207816Y-87715051D01*
X149229789Y-87699086D01*
X149379786Y-87590109D01*
X149379788Y-87590106D01*
X149379792Y-87590104D01*
X149530104Y-87439792D01*
X149530106Y-87439788D01*
X149530109Y-87439786D01*
X149655048Y-87267820D01*
X149655047Y-87267820D01*
X149655051Y-87267816D01*
X149751557Y-87078412D01*
X149817246Y-86876243D01*
X149850500Y-86666287D01*
X149850500Y-86453713D01*
X149817246Y-86243757D01*
X149751557Y-86041588D01*
X149655051Y-85852184D01*
X149655049Y-85852181D01*
X149655048Y-85852179D01*
X149530109Y-85680213D01*
X149379786Y-85529890D01*
X149207820Y-85404951D01*
X149207115Y-85404591D01*
X149199054Y-85400485D01*
X149148259Y-85352512D01*
X149131463Y-85284692D01*
X149153999Y-85218556D01*
X149199054Y-85179515D01*
X149207816Y-85175051D01*
X149269825Y-85129999D01*
X149379786Y-85050109D01*
X149379788Y-85050106D01*
X149379792Y-85050104D01*
X149530104Y-84899792D01*
X149530106Y-84899788D01*
X149530109Y-84899786D01*
X149655048Y-84727820D01*
X149655047Y-84727820D01*
X149655051Y-84727816D01*
X149751557Y-84538412D01*
X149817246Y-84336243D01*
X149850500Y-84126287D01*
X149850500Y-83913713D01*
X149817246Y-83703757D01*
X149751557Y-83501588D01*
X149655051Y-83312184D01*
X149655049Y-83312181D01*
X149655048Y-83312179D01*
X149530109Y-83140213D01*
X149379786Y-82989890D01*
X149207817Y-82864949D01*
X149198504Y-82860204D01*
X149147707Y-82812230D01*
X149130912Y-82744409D01*
X149153449Y-82678274D01*
X149198507Y-82639232D01*
X149207555Y-82634622D01*
X149261716Y-82595270D01*
X149261717Y-82595270D01*
X148629408Y-81962962D01*
X148692993Y-81945925D01*
X148807007Y-81880099D01*
X148900099Y-81787007D01*
X148965925Y-81672993D01*
X148982962Y-81609408D01*
X149615270Y-82241717D01*
X149615270Y-82241716D01*
X149654622Y-82187554D01*
X149751095Y-81998217D01*
X149816757Y-81796130D01*
X149816757Y-81796127D01*
X149850000Y-81586246D01*
X149850000Y-81373753D01*
X149816757Y-81163872D01*
X149816757Y-81163869D01*
X149751095Y-80961782D01*
X149654624Y-80772449D01*
X149615270Y-80718282D01*
X149615269Y-80718282D01*
X148982962Y-81350590D01*
X148965925Y-81287007D01*
X148900099Y-81172993D01*
X148807007Y-81079901D01*
X148692993Y-81014075D01*
X148629409Y-80997037D01*
X149261716Y-80364728D01*
X149207547Y-80325373D01*
X149207547Y-80325372D01*
X149198500Y-80320763D01*
X149147706Y-80272788D01*
X149130912Y-80204966D01*
X149153451Y-80138832D01*
X149198508Y-80099793D01*
X149207816Y-80095051D01*
X149293894Y-80032512D01*
X149379786Y-79970109D01*
X149379788Y-79970106D01*
X149379792Y-79970104D01*
X149530104Y-79819792D01*
X149530106Y-79819788D01*
X149530109Y-79819786D01*
X149655048Y-79647820D01*
X149655047Y-79647820D01*
X149655051Y-79647816D01*
X149751557Y-79458412D01*
X149817246Y-79256243D01*
X149850500Y-79046287D01*
X149850500Y-78833713D01*
X149817246Y-78623757D01*
X149751557Y-78421588D01*
X149655051Y-78232184D01*
X149655049Y-78232181D01*
X149655048Y-78232179D01*
X149530109Y-78060213D01*
X149379786Y-77909890D01*
X149207820Y-77784951D01*
X149207115Y-77784591D01*
X149199054Y-77780485D01*
X149148259Y-77732512D01*
X149131463Y-77664692D01*
X149153999Y-77598556D01*
X149199054Y-77559515D01*
X149207816Y-77555051D01*
X149281596Y-77501447D01*
X149379786Y-77430109D01*
X149379788Y-77430106D01*
X149379792Y-77430104D01*
X149530104Y-77279792D01*
X149530106Y-77279788D01*
X149530109Y-77279786D01*
X149655048Y-77107820D01*
X149655047Y-77107820D01*
X149655051Y-77107816D01*
X149751557Y-76918412D01*
X149817246Y-76716243D01*
X149850500Y-76506287D01*
X149850500Y-76293713D01*
X149817246Y-76083757D01*
X149751557Y-75881588D01*
X149655051Y-75692184D01*
X149655049Y-75692181D01*
X149655048Y-75692179D01*
X149530109Y-75520213D01*
X149379786Y-75369890D01*
X149207820Y-75244951D01*
X149207115Y-75244591D01*
X149199054Y-75240485D01*
X149148259Y-75192512D01*
X149131463Y-75124692D01*
X149153999Y-75058556D01*
X149199054Y-75019515D01*
X149207816Y-75015051D01*
X149281596Y-74961447D01*
X149379786Y-74890109D01*
X149379788Y-74890106D01*
X149379792Y-74890104D01*
X149530104Y-74739792D01*
X149530106Y-74739788D01*
X149530109Y-74739786D01*
X149655048Y-74567820D01*
X149655047Y-74567820D01*
X149655051Y-74567816D01*
X149751557Y-74378412D01*
X149817246Y-74176243D01*
X149850500Y-73966287D01*
X149850500Y-73753713D01*
X149817246Y-73543757D01*
X149751557Y-73341588D01*
X149655051Y-73152184D01*
X149655049Y-73152181D01*
X149655048Y-73152179D01*
X149530109Y-72980213D01*
X149379786Y-72829890D01*
X149207820Y-72704951D01*
X149207115Y-72704591D01*
X149199054Y-72700485D01*
X149148259Y-72652512D01*
X149131463Y-72584692D01*
X149153999Y-72518556D01*
X149199054Y-72479515D01*
X149207816Y-72475051D01*
X149281596Y-72421447D01*
X149379786Y-72350109D01*
X149379788Y-72350106D01*
X149379792Y-72350104D01*
X149530104Y-72199792D01*
X149530106Y-72199788D01*
X149530109Y-72199786D01*
X149655048Y-72027820D01*
X149655047Y-72027820D01*
X149655051Y-72027816D01*
X149751557Y-71838412D01*
X149817246Y-71636243D01*
X149850500Y-71426287D01*
X149850500Y-71313713D01*
X156949500Y-71313713D01*
X156949500Y-71526286D01*
X156972649Y-71672447D01*
X156982754Y-71736243D01*
X157044604Y-71926598D01*
X157048444Y-71938414D01*
X157144951Y-72127820D01*
X157269890Y-72299786D01*
X157420213Y-72450109D01*
X157592182Y-72575050D01*
X157600946Y-72579516D01*
X157651742Y-72627491D01*
X157668536Y-72695312D01*
X157645998Y-72761447D01*
X157600946Y-72800484D01*
X157592182Y-72804949D01*
X157420213Y-72929890D01*
X157269890Y-73080213D01*
X157144951Y-73252179D01*
X157048444Y-73441585D01*
X156982753Y-73643760D01*
X156951765Y-73839411D01*
X156949500Y-73853713D01*
X156949500Y-74066287D01*
X156982754Y-74276243D01*
X157003309Y-74339506D01*
X157048444Y-74478414D01*
X157144951Y-74667820D01*
X157269890Y-74839786D01*
X157420213Y-74990109D01*
X157592182Y-75115050D01*
X157600946Y-75119516D01*
X157651742Y-75167491D01*
X157668536Y-75235312D01*
X157645998Y-75301447D01*
X157600946Y-75340484D01*
X157592182Y-75344949D01*
X157420213Y-75469890D01*
X157269890Y-75620213D01*
X157144951Y-75792179D01*
X157048444Y-75981585D01*
X156982753Y-76183760D01*
X156949500Y-76393713D01*
X156949500Y-76606287D01*
X156982754Y-76816243D01*
X156999512Y-76867820D01*
X157048444Y-77018414D01*
X157144951Y-77207820D01*
X157269890Y-77379786D01*
X157420213Y-77530109D01*
X157592182Y-77655050D01*
X157600946Y-77659516D01*
X157651742Y-77707491D01*
X157668536Y-77775312D01*
X157645998Y-77841447D01*
X157600946Y-77880484D01*
X157592182Y-77884949D01*
X157420213Y-78009890D01*
X157269890Y-78160213D01*
X157144951Y-78332179D01*
X157048444Y-78521585D01*
X156982753Y-78723760D01*
X156949500Y-78933713D01*
X156949500Y-79146287D01*
X156982754Y-79356243D01*
X156999512Y-79407820D01*
X157048444Y-79558414D01*
X157144951Y-79747820D01*
X157269890Y-79919786D01*
X157420213Y-80070109D01*
X157592182Y-80195050D01*
X157600946Y-80199516D01*
X157651742Y-80247491D01*
X157668536Y-80315312D01*
X157645998Y-80381447D01*
X157600946Y-80420484D01*
X157592182Y-80424949D01*
X157420213Y-80549890D01*
X157269890Y-80700213D01*
X157144951Y-80872179D01*
X157048444Y-81061585D01*
X157048443Y-81061587D01*
X157048443Y-81061588D01*
X157039244Y-81089901D01*
X156982753Y-81263760D01*
X156949500Y-81473713D01*
X156949500Y-81686286D01*
X156971443Y-81824833D01*
X156982754Y-81896243D01*
X157030812Y-82044151D01*
X157048444Y-82098414D01*
X157144951Y-82287820D01*
X157269890Y-82459786D01*
X157383818Y-82573714D01*
X157417303Y-82635037D01*
X157412319Y-82704729D01*
X157370447Y-82760662D01*
X157339471Y-82777577D01*
X157207912Y-82826646D01*
X157207906Y-82826649D01*
X157092812Y-82912809D01*
X157092809Y-82912812D01*
X157006649Y-83027906D01*
X157006645Y-83027913D01*
X156956403Y-83162620D01*
X156956401Y-83162627D01*
X156950000Y-83222155D01*
X156950000Y-83870000D01*
X157866988Y-83870000D01*
X157834075Y-83927007D01*
X157800000Y-84054174D01*
X157800000Y-84185826D01*
X157834075Y-84312993D01*
X157866988Y-84370000D01*
X156950000Y-84370000D01*
X156950000Y-85017844D01*
X156956401Y-85077372D01*
X156956403Y-85077379D01*
X157006645Y-85212086D01*
X157006649Y-85212093D01*
X157092809Y-85327187D01*
X157092812Y-85327190D01*
X157207906Y-85413350D01*
X157207913Y-85413354D01*
X157342620Y-85463596D01*
X157342627Y-85463598D01*
X157402155Y-85469999D01*
X157402172Y-85470000D01*
X158050000Y-85470000D01*
X158050000Y-84553012D01*
X158107007Y-84585925D01*
X158234174Y-84620000D01*
X158365826Y-84620000D01*
X158492993Y-84585925D01*
X158550000Y-84553012D01*
X158550000Y-85470000D01*
X159197828Y-85470000D01*
X159197844Y-85469999D01*
X159257372Y-85463598D01*
X159257379Y-85463596D01*
X159392086Y-85413354D01*
X159392093Y-85413350D01*
X159507187Y-85327190D01*
X159507190Y-85327187D01*
X159593350Y-85212093D01*
X159593354Y-85212086D01*
X159643596Y-85077379D01*
X159643598Y-85077372D01*
X159649999Y-85017844D01*
X159650000Y-85017827D01*
X159650000Y-84370000D01*
X158733012Y-84370000D01*
X158765925Y-84312993D01*
X158800000Y-84185826D01*
X158800000Y-84054174D01*
X158765925Y-83927007D01*
X158733012Y-83870000D01*
X159650000Y-83870000D01*
X159650000Y-83222172D01*
X159649999Y-83222169D01*
X159648895Y-83211892D01*
X159648895Y-83211889D01*
X159643598Y-83162626D01*
X159643596Y-83162620D01*
X159593354Y-83027913D01*
X159593350Y-83027906D01*
X159507190Y-82912812D01*
X159507187Y-82912809D01*
X159392093Y-82826649D01*
X159392088Y-82826646D01*
X159260528Y-82777577D01*
X159204595Y-82735705D01*
X159180178Y-82670241D01*
X159195030Y-82601968D01*
X159216175Y-82573720D01*
X159330104Y-82459792D01*
X159356682Y-82423211D01*
X159455048Y-82287820D01*
X159455047Y-82287820D01*
X159455051Y-82287816D01*
X159551557Y-82098412D01*
X159617246Y-81896243D01*
X159650500Y-81686287D01*
X159650500Y-81473713D01*
X159617246Y-81263757D01*
X159551557Y-81061588D01*
X159476046Y-80913389D01*
X161374500Y-80913389D01*
X161374500Y-81086610D01*
X161388181Y-81172993D01*
X161401598Y-81257701D01*
X161455127Y-81422445D01*
X161533768Y-81576788D01*
X161635586Y-81716928D01*
X161635588Y-81716930D01*
X161743491Y-81824833D01*
X161776976Y-81886156D01*
X161771992Y-81955848D01*
X161730120Y-82011781D01*
X161720907Y-82018053D01*
X161656654Y-82057684D01*
X161532684Y-82181654D01*
X161440643Y-82330875D01*
X161440641Y-82330880D01*
X161385494Y-82497302D01*
X161385493Y-82497309D01*
X161375000Y-82600013D01*
X161375000Y-82750000D01*
X162469670Y-82750000D01*
X162449925Y-82769745D01*
X162400556Y-82855255D01*
X162375000Y-82950630D01*
X162375000Y-83049370D01*
X162400556Y-83144745D01*
X162449925Y-83230255D01*
X162469670Y-83250000D01*
X161375001Y-83250000D01*
X161375001Y-83399986D01*
X161385494Y-83502697D01*
X161440641Y-83669119D01*
X161440643Y-83669124D01*
X161532684Y-83818345D01*
X161656654Y-83942315D01*
X161805875Y-84034356D01*
X161805880Y-84034358D01*
X161972302Y-84089505D01*
X161972309Y-84089506D01*
X162075019Y-84099999D01*
X162499999Y-84099999D01*
X162500000Y-84099998D01*
X162500000Y-83280330D01*
X162519745Y-83300075D01*
X162605255Y-83349444D01*
X162700630Y-83375000D01*
X162799370Y-83375000D01*
X162894745Y-83349444D01*
X162980255Y-83300075D01*
X163000000Y-83280330D01*
X163000000Y-84099999D01*
X163424972Y-84099999D01*
X163424986Y-84099998D01*
X163527697Y-84089505D01*
X163694119Y-84034358D01*
X163694124Y-84034356D01*
X163843345Y-83942315D01*
X163967315Y-83818345D01*
X164059356Y-83669124D01*
X164059358Y-83669119D01*
X164114505Y-83502697D01*
X164114506Y-83502690D01*
X164124999Y-83399986D01*
X164125000Y-83399973D01*
X164125000Y-83250000D01*
X163030330Y-83250000D01*
X163050075Y-83230255D01*
X163099444Y-83144745D01*
X163125000Y-83049370D01*
X163125000Y-82950630D01*
X163099444Y-82855255D01*
X163050075Y-82769745D01*
X163030330Y-82750000D01*
X164124999Y-82750000D01*
X164124999Y-82600028D01*
X164124998Y-82600013D01*
X164114505Y-82497302D01*
X164059358Y-82330880D01*
X164059356Y-82330875D01*
X163967315Y-82181654D01*
X163843343Y-82057682D01*
X163779093Y-82018053D01*
X163732368Y-81966105D01*
X163721145Y-81897143D01*
X163748988Y-81833061D01*
X163756486Y-81824855D01*
X163864414Y-81716928D01*
X163966232Y-81576788D01*
X164044873Y-81422445D01*
X164098402Y-81257701D01*
X164125500Y-81086611D01*
X164125500Y-80913389D01*
X164098402Y-80742299D01*
X164044873Y-80577555D01*
X163966232Y-80423212D01*
X163864414Y-80283072D01*
X163741928Y-80160586D01*
X163601788Y-80058768D01*
X163447445Y-79980127D01*
X163282701Y-79926598D01*
X163282699Y-79926597D01*
X163282698Y-79926597D01*
X163151271Y-79905781D01*
X163111611Y-79899500D01*
X162388389Y-79899500D01*
X162348728Y-79905781D01*
X162217302Y-79926597D01*
X162052552Y-79980128D01*
X161898211Y-80058768D01*
X161848273Y-80095051D01*
X161758072Y-80160586D01*
X161758070Y-80160588D01*
X161758069Y-80160588D01*
X161635588Y-80283069D01*
X161635588Y-80283070D01*
X161635586Y-80283072D01*
X161602622Y-80328443D01*
X161533768Y-80423211D01*
X161455128Y-80577552D01*
X161401597Y-80742302D01*
X161374500Y-80913389D01*
X159476046Y-80913389D01*
X159455051Y-80872184D01*
X159455049Y-80872181D01*
X159455048Y-80872179D01*
X159330109Y-80700213D01*
X159179786Y-80549890D01*
X159007820Y-80424951D01*
X159004405Y-80423211D01*
X158999054Y-80420485D01*
X158948259Y-80372512D01*
X158931463Y-80304692D01*
X158953999Y-80238556D01*
X158999054Y-80199515D01*
X159007816Y-80195051D01*
X159059135Y-80157766D01*
X159179786Y-80070109D01*
X159179788Y-80070106D01*
X159179792Y-80070104D01*
X159330104Y-79919792D01*
X159330106Y-79919788D01*
X159330109Y-79919786D01*
X159455048Y-79747820D01*
X159455047Y-79747820D01*
X159455051Y-79747816D01*
X159551557Y-79558412D01*
X159617246Y-79356243D01*
X159650500Y-79146287D01*
X159650500Y-78933713D01*
X159617246Y-78723757D01*
X159551557Y-78521588D01*
X159455051Y-78332184D01*
X159455049Y-78332181D01*
X159455048Y-78332179D01*
X159330109Y-78160213D01*
X159179786Y-78009890D01*
X159007820Y-77884951D01*
X159007115Y-77884591D01*
X158999054Y-77880485D01*
X158948259Y-77832512D01*
X158931463Y-77764692D01*
X158953999Y-77698556D01*
X158999054Y-77659515D01*
X159007816Y-77655051D01*
X159059513Y-77617491D01*
X159179786Y-77530109D01*
X159179788Y-77530106D01*
X159179792Y-77530104D01*
X159330104Y-77379792D01*
X159330106Y-77379788D01*
X159330109Y-77379786D01*
X159455048Y-77207820D01*
X159455047Y-77207820D01*
X159455051Y-77207816D01*
X159551557Y-77018412D01*
X159617246Y-76816243D01*
X159650500Y-76606287D01*
X159650500Y-76393713D01*
X159617246Y-76183757D01*
X159551557Y-75981588D01*
X159455051Y-75792184D01*
X159455049Y-75792181D01*
X159455048Y-75792179D01*
X159330109Y-75620213D01*
X159179786Y-75469890D01*
X159007820Y-75344951D01*
X159007115Y-75344591D01*
X158999054Y-75340485D01*
X158948259Y-75292512D01*
X158931463Y-75224692D01*
X158953999Y-75158556D01*
X158999054Y-75119515D01*
X159007816Y-75115051D01*
X159059513Y-75077491D01*
X159179786Y-74990109D01*
X159179788Y-74990106D01*
X159179792Y-74990104D01*
X159330104Y-74839792D01*
X159330106Y-74839788D01*
X159330109Y-74839786D01*
X159455048Y-74667820D01*
X159455047Y-74667820D01*
X159455051Y-74667816D01*
X159551557Y-74478412D01*
X159617246Y-74276243D01*
X159650500Y-74066287D01*
X159650500Y-73853713D01*
X159617246Y-73643757D01*
X159551557Y-73441588D01*
X159551555Y-73441585D01*
X159551555Y-73441583D01*
X159455048Y-73252179D01*
X159330109Y-73080213D01*
X159179786Y-72929890D01*
X159007820Y-72804951D01*
X159007115Y-72804591D01*
X158999054Y-72800485D01*
X158948259Y-72752512D01*
X158931463Y-72684692D01*
X158953999Y-72618556D01*
X158999054Y-72579515D01*
X159007816Y-72575051D01*
X159059513Y-72537491D01*
X159179786Y-72450109D01*
X159179788Y-72450106D01*
X159179792Y-72450104D01*
X159330104Y-72299792D01*
X159330106Y-72299788D01*
X159330109Y-72299786D01*
X159455048Y-72127820D01*
X159455047Y-72127820D01*
X159455051Y-72127816D01*
X159551557Y-71938412D01*
X159617246Y-71736243D01*
X159650500Y-71526287D01*
X159650500Y-71313713D01*
X159640409Y-71250000D01*
X159628992Y-71177915D01*
X159626691Y-71163389D01*
X161324500Y-71163389D01*
X161324500Y-71336611D01*
X161351598Y-71507701D01*
X161405127Y-71672445D01*
X161483768Y-71826788D01*
X161585586Y-71966928D01*
X161585588Y-71966930D01*
X161693491Y-72074833D01*
X161726976Y-72136156D01*
X161721992Y-72205848D01*
X161680120Y-72261781D01*
X161670907Y-72268053D01*
X161606654Y-72307684D01*
X161482684Y-72431654D01*
X161390643Y-72580875D01*
X161390641Y-72580880D01*
X161335494Y-72747302D01*
X161335493Y-72747309D01*
X161325000Y-72850013D01*
X161325000Y-73000000D01*
X162419670Y-73000000D01*
X162399925Y-73019745D01*
X162350556Y-73105255D01*
X162325000Y-73200630D01*
X162325000Y-73299370D01*
X162350556Y-73394745D01*
X162399925Y-73480255D01*
X162419670Y-73500000D01*
X161325001Y-73500000D01*
X161325001Y-73649986D01*
X161335494Y-73752697D01*
X161390641Y-73919119D01*
X161390643Y-73919124D01*
X161482684Y-74068345D01*
X161606654Y-74192315D01*
X161755875Y-74284356D01*
X161755880Y-74284358D01*
X161922302Y-74339505D01*
X161922309Y-74339506D01*
X162025019Y-74349999D01*
X162449999Y-74349999D01*
X162450000Y-74349998D01*
X162450000Y-73530330D01*
X162469745Y-73550075D01*
X162555255Y-73599444D01*
X162650630Y-73625000D01*
X162749370Y-73625000D01*
X162844745Y-73599444D01*
X162930255Y-73550075D01*
X162950000Y-73530330D01*
X162950000Y-74349999D01*
X163374972Y-74349999D01*
X163374986Y-74349998D01*
X163477697Y-74339505D01*
X163644119Y-74284358D01*
X163644124Y-74284356D01*
X163793345Y-74192315D01*
X163917315Y-74068345D01*
X164009356Y-73919124D01*
X164009358Y-73919119D01*
X164064505Y-73752697D01*
X164064506Y-73752690D01*
X164074999Y-73649986D01*
X164075000Y-73649973D01*
X164075000Y-73500000D01*
X162980330Y-73500000D01*
X163000075Y-73480255D01*
X163049444Y-73394745D01*
X163075000Y-73299370D01*
X163075000Y-73200630D01*
X163049444Y-73105255D01*
X163000075Y-73019745D01*
X162980330Y-73000000D01*
X164074999Y-73000000D01*
X164074999Y-72850028D01*
X164074998Y-72850013D01*
X164064505Y-72747302D01*
X164009358Y-72580880D01*
X164009356Y-72580875D01*
X163917315Y-72431654D01*
X163793343Y-72307682D01*
X163729093Y-72268053D01*
X163682368Y-72216105D01*
X163671145Y-72147143D01*
X163698988Y-72083061D01*
X163706486Y-72074855D01*
X163814414Y-71966928D01*
X163916232Y-71826788D01*
X163994873Y-71672445D01*
X164048402Y-71507701D01*
X164075500Y-71336611D01*
X164075500Y-71163389D01*
X164048402Y-70992299D01*
X163994873Y-70827555D01*
X163916232Y-70673212D01*
X163814414Y-70533072D01*
X163691928Y-70410586D01*
X163551788Y-70308768D01*
X163397445Y-70230127D01*
X163232701Y-70176598D01*
X163232699Y-70176597D01*
X163232698Y-70176597D01*
X163101271Y-70155781D01*
X163061611Y-70149500D01*
X162338389Y-70149500D01*
X162298728Y-70155781D01*
X162167302Y-70176597D01*
X162002552Y-70230128D01*
X161848211Y-70308768D01*
X161768256Y-70366859D01*
X161708072Y-70410586D01*
X161708070Y-70410588D01*
X161708069Y-70410588D01*
X161585588Y-70533069D01*
X161585588Y-70533070D01*
X161585586Y-70533072D01*
X161580398Y-70540213D01*
X161483768Y-70673211D01*
X161405128Y-70827552D01*
X161351597Y-70992302D01*
X161333945Y-71103757D01*
X161324500Y-71163389D01*
X159626691Y-71163389D01*
X159617246Y-71103760D01*
X159617246Y-71103757D01*
X159551557Y-70901588D01*
X159455051Y-70712184D01*
X159455049Y-70712181D01*
X159455048Y-70712179D01*
X159330109Y-70540213D01*
X159179786Y-70389890D01*
X159007820Y-70264951D01*
X158818414Y-70168444D01*
X158818413Y-70168443D01*
X158818412Y-70168443D01*
X158616243Y-70102754D01*
X158616241Y-70102753D01*
X158616240Y-70102753D01*
X158454957Y-70077208D01*
X158406287Y-70069500D01*
X158193713Y-70069500D01*
X158145042Y-70077208D01*
X157983760Y-70102753D01*
X157781585Y-70168444D01*
X157592179Y-70264951D01*
X157420213Y-70389890D01*
X157269890Y-70540213D01*
X157144951Y-70712179D01*
X157048444Y-70901585D01*
X156982753Y-71103760D01*
X156949500Y-71313713D01*
X149850500Y-71313713D01*
X149850500Y-71213713D01*
X149817246Y-71003757D01*
X149751557Y-70801588D01*
X149655051Y-70612184D01*
X149655049Y-70612181D01*
X149655048Y-70612179D01*
X149530109Y-70440213D01*
X149379786Y-70289890D01*
X149207817Y-70164949D01*
X149198504Y-70160204D01*
X149147707Y-70112230D01*
X149130912Y-70044409D01*
X149153449Y-69978274D01*
X149198507Y-69939232D01*
X149207555Y-69934622D01*
X149261716Y-69895270D01*
X149261717Y-69895270D01*
X148629408Y-69262962D01*
X148692993Y-69245925D01*
X148807007Y-69180099D01*
X148900099Y-69087007D01*
X148965925Y-68972993D01*
X148982962Y-68909408D01*
X149615270Y-69541717D01*
X149615270Y-69541716D01*
X149654622Y-69487554D01*
X149751095Y-69298217D01*
X149816757Y-69096130D01*
X149816757Y-69096127D01*
X149850000Y-68886246D01*
X149850000Y-68673753D01*
X149816757Y-68463872D01*
X149816757Y-68463869D01*
X149751095Y-68261782D01*
X149654624Y-68072449D01*
X149615270Y-68018282D01*
X149615269Y-68018282D01*
X148982962Y-68650590D01*
X148965925Y-68587007D01*
X148900099Y-68472993D01*
X148807007Y-68379901D01*
X148692993Y-68314075D01*
X148629409Y-68297037D01*
X149261716Y-67664728D01*
X149207547Y-67625373D01*
X149207547Y-67625372D01*
X149198500Y-67620763D01*
X149147706Y-67572788D01*
X149130912Y-67504966D01*
X149153451Y-67438832D01*
X149198508Y-67399793D01*
X149207816Y-67395051D01*
X149287007Y-67337515D01*
X149379786Y-67270109D01*
X149379788Y-67270106D01*
X149379792Y-67270104D01*
X149530104Y-67119792D01*
X149530106Y-67119788D01*
X149530109Y-67119786D01*
X149655048Y-66947820D01*
X149655047Y-66947820D01*
X149655051Y-66947816D01*
X149751557Y-66758412D01*
X149817246Y-66556243D01*
X149850500Y-66346287D01*
X149850500Y-66133713D01*
X149817246Y-65923757D01*
X149751557Y-65721588D01*
X149655051Y-65532184D01*
X149655049Y-65532181D01*
X149655048Y-65532179D01*
X149530109Y-65360213D01*
X149379786Y-65209890D01*
X149207820Y-65084951D01*
X149207115Y-65084591D01*
X149199054Y-65080485D01*
X149148259Y-65032512D01*
X149131463Y-64964692D01*
X149153999Y-64898556D01*
X149199054Y-64859515D01*
X149207816Y-64855051D01*
X149229789Y-64839086D01*
X149379786Y-64730109D01*
X149379788Y-64730106D01*
X149379792Y-64730104D01*
X149530104Y-64579792D01*
X149530106Y-64579788D01*
X149530109Y-64579786D01*
X149655048Y-64407820D01*
X149655047Y-64407820D01*
X149655051Y-64407816D01*
X149751557Y-64218412D01*
X149817246Y-64016243D01*
X149850500Y-63806287D01*
X149850500Y-63593713D01*
X149817246Y-63383757D01*
X149751557Y-63181588D01*
X149655051Y-62992184D01*
X149655049Y-62992181D01*
X149655048Y-62992179D01*
X149530109Y-62820213D01*
X149379786Y-62669890D01*
X149207820Y-62544951D01*
X149207115Y-62544591D01*
X149199054Y-62540485D01*
X149148259Y-62492512D01*
X149131463Y-62424692D01*
X149153999Y-62358556D01*
X149199054Y-62319515D01*
X149207816Y-62315051D01*
X149251832Y-62283072D01*
X149379786Y-62190109D01*
X149379788Y-62190106D01*
X149379792Y-62190104D01*
X149530104Y-62039792D01*
X149530106Y-62039788D01*
X149530109Y-62039786D01*
X149655048Y-61867820D01*
X149655047Y-61867820D01*
X149655051Y-61867816D01*
X149751557Y-61678412D01*
X149817246Y-61476243D01*
X149850500Y-61266287D01*
X149850500Y-61053713D01*
X149828275Y-60913389D01*
X161324500Y-60913389D01*
X161324500Y-61086611D01*
X161351598Y-61257701D01*
X161405127Y-61422445D01*
X161483768Y-61576788D01*
X161585586Y-61716928D01*
X161585588Y-61716930D01*
X161693491Y-61824833D01*
X161726976Y-61886156D01*
X161721992Y-61955848D01*
X161680120Y-62011781D01*
X161670907Y-62018053D01*
X161606654Y-62057684D01*
X161482684Y-62181654D01*
X161390643Y-62330875D01*
X161390641Y-62330880D01*
X161335494Y-62497302D01*
X161335493Y-62497309D01*
X161325000Y-62600013D01*
X161325000Y-62750000D01*
X162419670Y-62750000D01*
X162399925Y-62769745D01*
X162350556Y-62855255D01*
X162325000Y-62950630D01*
X162325000Y-63049370D01*
X162350556Y-63144745D01*
X162399925Y-63230255D01*
X162419670Y-63250000D01*
X161325001Y-63250000D01*
X161325001Y-63399986D01*
X161335494Y-63502697D01*
X161390641Y-63669119D01*
X161390643Y-63669124D01*
X161482684Y-63818345D01*
X161606654Y-63942315D01*
X161755875Y-64034356D01*
X161755880Y-64034358D01*
X161922302Y-64089505D01*
X161922309Y-64089506D01*
X162025019Y-64099999D01*
X162449999Y-64099999D01*
X162450000Y-64099998D01*
X162450000Y-63280330D01*
X162469745Y-63300075D01*
X162555255Y-63349444D01*
X162650630Y-63375000D01*
X162749370Y-63375000D01*
X162844745Y-63349444D01*
X162930255Y-63300075D01*
X162950000Y-63280330D01*
X162950000Y-64099999D01*
X163374972Y-64099999D01*
X163374986Y-64099998D01*
X163477697Y-64089505D01*
X163644119Y-64034358D01*
X163644124Y-64034356D01*
X163793345Y-63942315D01*
X163917315Y-63818345D01*
X164009356Y-63669124D01*
X164009358Y-63669119D01*
X164064505Y-63502697D01*
X164064506Y-63502690D01*
X164074999Y-63399986D01*
X164075000Y-63399973D01*
X164075000Y-63250000D01*
X162980330Y-63250000D01*
X163000075Y-63230255D01*
X163049444Y-63144745D01*
X163075000Y-63049370D01*
X163075000Y-62950630D01*
X163049444Y-62855255D01*
X163000075Y-62769745D01*
X162980330Y-62750000D01*
X164074999Y-62750000D01*
X164074999Y-62600028D01*
X164074998Y-62600013D01*
X164064505Y-62497302D01*
X164009358Y-62330880D01*
X164009356Y-62330875D01*
X163917315Y-62181654D01*
X163793343Y-62057682D01*
X163729093Y-62018053D01*
X163682368Y-61966105D01*
X163671145Y-61897143D01*
X163698988Y-61833061D01*
X163706486Y-61824855D01*
X163814414Y-61716928D01*
X163916232Y-61576788D01*
X163994873Y-61422445D01*
X164048402Y-61257701D01*
X164075500Y-61086611D01*
X164075500Y-60913389D01*
X164048402Y-60742299D01*
X163994873Y-60577555D01*
X163916232Y-60423212D01*
X163814414Y-60283072D01*
X163691928Y-60160586D01*
X163551788Y-60058768D01*
X163457028Y-60010486D01*
X163397447Y-59980128D01*
X163397446Y-59980127D01*
X163397445Y-59980127D01*
X163232701Y-59926598D01*
X163232699Y-59926597D01*
X163232698Y-59926597D01*
X163101271Y-59905781D01*
X163061611Y-59899500D01*
X162338389Y-59899500D01*
X162298728Y-59905781D01*
X162167302Y-59926597D01*
X162002552Y-59980128D01*
X161848211Y-60058768D01*
X161768256Y-60116859D01*
X161708072Y-60160586D01*
X161708070Y-60160588D01*
X161708069Y-60160588D01*
X161585588Y-60283069D01*
X161585588Y-60283070D01*
X161585586Y-60283072D01*
X161580398Y-60290213D01*
X161483768Y-60423211D01*
X161405128Y-60577552D01*
X161351597Y-60742302D01*
X161324500Y-60913389D01*
X149828275Y-60913389D01*
X149819067Y-60855255D01*
X149817247Y-60843761D01*
X149817246Y-60843760D01*
X149817246Y-60843757D01*
X149751557Y-60641588D01*
X149655051Y-60452184D01*
X149655049Y-60452181D01*
X149655048Y-60452179D01*
X149530109Y-60280213D01*
X149379786Y-60129890D01*
X149207820Y-60004951D01*
X149207115Y-60004591D01*
X149199054Y-60000485D01*
X149148259Y-59952512D01*
X149131463Y-59884692D01*
X149153999Y-59818556D01*
X149199054Y-59779515D01*
X149207816Y-59775051D01*
X149229789Y-59759086D01*
X149379786Y-59650109D01*
X149379788Y-59650106D01*
X149379792Y-59650104D01*
X149530104Y-59499792D01*
X149530106Y-59499788D01*
X149530109Y-59499786D01*
X149655048Y-59327820D01*
X149655047Y-59327820D01*
X149655051Y-59327816D01*
X149751557Y-59138412D01*
X149817246Y-58936243D01*
X149850500Y-58726287D01*
X149850500Y-58513713D01*
X149817246Y-58303757D01*
X149751557Y-58101588D01*
X149655051Y-57912184D01*
X149655049Y-57912181D01*
X149655048Y-57912179D01*
X149530109Y-57740213D01*
X149379786Y-57589890D01*
X149207817Y-57464949D01*
X149198504Y-57460204D01*
X149147707Y-57412230D01*
X149130912Y-57344409D01*
X149153449Y-57278274D01*
X149198507Y-57239232D01*
X149207555Y-57234622D01*
X149261716Y-57195270D01*
X149261717Y-57195270D01*
X148629408Y-56562962D01*
X148692993Y-56545925D01*
X148807007Y-56480099D01*
X148900099Y-56387007D01*
X148965925Y-56272993D01*
X148982962Y-56209409D01*
X149615270Y-56841717D01*
X149615270Y-56841716D01*
X149654622Y-56787554D01*
X149751095Y-56598217D01*
X149816757Y-56396130D01*
X149816757Y-56396127D01*
X149850000Y-56186246D01*
X149850000Y-55973753D01*
X149816757Y-55763872D01*
X149816757Y-55763869D01*
X149751095Y-55561782D01*
X149654624Y-55372449D01*
X149615270Y-55318282D01*
X149615269Y-55318282D01*
X148982962Y-55950590D01*
X148965925Y-55887007D01*
X148900099Y-55772993D01*
X148807007Y-55679901D01*
X148692993Y-55614075D01*
X148629409Y-55597037D01*
X149261716Y-54964728D01*
X149207547Y-54925373D01*
X149207547Y-54925372D01*
X149198500Y-54920763D01*
X149147706Y-54872788D01*
X149130912Y-54804966D01*
X149153451Y-54738832D01*
X149198508Y-54699793D01*
X149207816Y-54695051D01*
X149287007Y-54637515D01*
X149379786Y-54570109D01*
X149379788Y-54570106D01*
X149379792Y-54570104D01*
X149530104Y-54419792D01*
X149530106Y-54419788D01*
X149530109Y-54419786D01*
X149655048Y-54247820D01*
X149655047Y-54247820D01*
X149655051Y-54247816D01*
X149751557Y-54058412D01*
X149817246Y-53856243D01*
X149850500Y-53646287D01*
X149850500Y-53433713D01*
X149817246Y-53223757D01*
X149789336Y-53137860D01*
X159449500Y-53137860D01*
X159449500Y-53462139D01*
X159481284Y-53784857D01*
X159481287Y-53784874D01*
X159544545Y-54102902D01*
X159544548Y-54102913D01*
X159638686Y-54413247D01*
X159703659Y-54570104D01*
X159757377Y-54699792D01*
X159762786Y-54712849D01*
X159762788Y-54712854D01*
X159915646Y-54998830D01*
X159915657Y-54998848D01*
X160095811Y-55268467D01*
X160095821Y-55268481D01*
X160301546Y-55519158D01*
X160530841Y-55748453D01*
X160530846Y-55748457D01*
X160530847Y-55748458D01*
X160781524Y-55954183D01*
X161051158Y-56134347D01*
X161051167Y-56134352D01*
X161051169Y-56134353D01*
X161337145Y-56287211D01*
X161337147Y-56287211D01*
X161337153Y-56287215D01*
X161636754Y-56411314D01*
X161947077Y-56505449D01*
X161947083Y-56505450D01*
X161947086Y-56505451D01*
X161947097Y-56505454D01*
X162146528Y-56545122D01*
X162265132Y-56568714D01*
X162587857Y-56600500D01*
X162587860Y-56600500D01*
X162912140Y-56600500D01*
X162912143Y-56600500D01*
X163234868Y-56568714D01*
X163392295Y-56537399D01*
X163552902Y-56505454D01*
X163552913Y-56505451D01*
X163552913Y-56505450D01*
X163552923Y-56505449D01*
X163863246Y-56411314D01*
X164162847Y-56287215D01*
X164448842Y-56134347D01*
X164718476Y-55954183D01*
X164969153Y-55748458D01*
X165198458Y-55519153D01*
X165404183Y-55268476D01*
X165584347Y-54998842D01*
X165737215Y-54712847D01*
X165861314Y-54413246D01*
X165955449Y-54102923D01*
X165955451Y-54102913D01*
X165955454Y-54102902D01*
X165987399Y-53942295D01*
X166018714Y-53784868D01*
X166050500Y-53462143D01*
X166050500Y-53137857D01*
X166018714Y-52815132D01*
X165987898Y-52660208D01*
X165955454Y-52497097D01*
X165955451Y-52497086D01*
X165955450Y-52497083D01*
X165955449Y-52497077D01*
X165861314Y-52186754D01*
X165737215Y-51887153D01*
X165584347Y-51601158D01*
X165404183Y-51331524D01*
X165198458Y-51080847D01*
X165198457Y-51080846D01*
X165198453Y-51080841D01*
X164969158Y-50851546D01*
X164718481Y-50645821D01*
X164718480Y-50645820D01*
X164718476Y-50645817D01*
X164448842Y-50465653D01*
X164448837Y-50465650D01*
X164448830Y-50465646D01*
X164162854Y-50312788D01*
X164162849Y-50312786D01*
X163863247Y-50188686D01*
X163552913Y-50094548D01*
X163552902Y-50094545D01*
X163234874Y-50031287D01*
X163234857Y-50031284D01*
X162990812Y-50007248D01*
X162912143Y-49999500D01*
X162587857Y-49999500D01*
X162515099Y-50006666D01*
X162265142Y-50031284D01*
X162265125Y-50031287D01*
X161947097Y-50094545D01*
X161947086Y-50094548D01*
X161636752Y-50188686D01*
X161337150Y-50312786D01*
X161337145Y-50312788D01*
X161051169Y-50465646D01*
X161051151Y-50465657D01*
X160781532Y-50645811D01*
X160781518Y-50645821D01*
X160530841Y-50851546D01*
X160301546Y-51080841D01*
X160095821Y-51331518D01*
X160095811Y-51331532D01*
X159915657Y-51601151D01*
X159915646Y-51601169D01*
X159762788Y-51887145D01*
X159762786Y-51887150D01*
X159638686Y-52186752D01*
X159544548Y-52497086D01*
X159544545Y-52497097D01*
X159481287Y-52815125D01*
X159481284Y-52815142D01*
X159449500Y-53137860D01*
X149789336Y-53137860D01*
X149751557Y-53021588D01*
X149655051Y-52832184D01*
X149655049Y-52832181D01*
X149655048Y-52832179D01*
X149530109Y-52660213D01*
X149416569Y-52546673D01*
X149383084Y-52485350D01*
X149388068Y-52415658D01*
X149429940Y-52359725D01*
X149460915Y-52342810D01*
X149592331Y-52293796D01*
X149707546Y-52207546D01*
X149793796Y-52092331D01*
X149844091Y-51957483D01*
X149850500Y-51897873D01*
X149850499Y-50102128D01*
X149844091Y-50042517D01*
X149839902Y-50031287D01*
X149793797Y-49907671D01*
X149793793Y-49907664D01*
X149707547Y-49792455D01*
X149707544Y-49792452D01*
X149592335Y-49706206D01*
X149592328Y-49706202D01*
X149457482Y-49655908D01*
X149457483Y-49655908D01*
X149397883Y-49649501D01*
X149397881Y-49649500D01*
X149397873Y-49649500D01*
X149397864Y-49649500D01*
X147602129Y-49649500D01*
X147602123Y-49649501D01*
X147542516Y-49655908D01*
X147407671Y-49706202D01*
X147407664Y-49706206D01*
X147292455Y-49792452D01*
X147292452Y-49792455D01*
X147206206Y-49907664D01*
X147206202Y-49907671D01*
X147155908Y-50042517D01*
X147150237Y-50095268D01*
X147149501Y-50102123D01*
X147149500Y-50102135D01*
X132099424Y-50102135D01*
X132099423Y-50102123D01*
X132098562Y-50094116D01*
X132094091Y-50052517D01*
X132043796Y-49917669D01*
X132043795Y-49917668D01*
X132043793Y-49917664D01*
X131957547Y-49802455D01*
X131957544Y-49802452D01*
X131842335Y-49716206D01*
X131842328Y-49716202D01*
X131707482Y-49665908D01*
X131707483Y-49665908D01*
X131647883Y-49659501D01*
X131647881Y-49659500D01*
X131647873Y-49659500D01*
X131647864Y-49659500D01*
X129852129Y-49659500D01*
X129852123Y-49659501D01*
X129792516Y-49665908D01*
X129657671Y-49716202D01*
X129657664Y-49716206D01*
X129542455Y-49802452D01*
X129542452Y-49802455D01*
X129456206Y-49917664D01*
X129456202Y-49917671D01*
X129405908Y-50052517D01*
X129399501Y-50112116D01*
X129399500Y-50112135D01*
X117110890Y-50112135D01*
X117052913Y-50094548D01*
X117052902Y-50094545D01*
X116734874Y-50031287D01*
X116734857Y-50031284D01*
X116490812Y-50007248D01*
X116412143Y-49999500D01*
X116087857Y-49999500D01*
X116015099Y-50006666D01*
X115765142Y-50031284D01*
X115765125Y-50031287D01*
X115447097Y-50094545D01*
X115447086Y-50094548D01*
X115136752Y-50188686D01*
X114837150Y-50312786D01*
X114837145Y-50312788D01*
X114551169Y-50465646D01*
X114551151Y-50465657D01*
X114281532Y-50645811D01*
X114281518Y-50645821D01*
X114030841Y-50851546D01*
X113801546Y-51080841D01*
X113595821Y-51331518D01*
X113595811Y-51331532D01*
X113415657Y-51601151D01*
X113415646Y-51601169D01*
X113262788Y-51887145D01*
X113262786Y-51887150D01*
X113138686Y-52186752D01*
X113044548Y-52497086D01*
X113044545Y-52497097D01*
X112981287Y-52815125D01*
X112981284Y-52815142D01*
X112949500Y-53137860D01*
X112250500Y-53137860D01*
X112250500Y-52003480D01*
X112250695Y-51996527D01*
X112255673Y-51907883D01*
X112267084Y-51704691D01*
X112268638Y-51690898D01*
X112317015Y-51406167D01*
X112320109Y-51392615D01*
X112400060Y-51115100D01*
X112404653Y-51101975D01*
X112405568Y-51099767D01*
X112515175Y-50835151D01*
X112521195Y-50822651D01*
X112660902Y-50569868D01*
X112668297Y-50558100D01*
X112733897Y-50465646D01*
X112835422Y-50322559D01*
X112844077Y-50311705D01*
X113036534Y-50096346D01*
X113046346Y-50086534D01*
X113261705Y-49894077D01*
X113272559Y-49885422D01*
X113508105Y-49718293D01*
X113519868Y-49710902D01*
X113772651Y-49571195D01*
X113785151Y-49565175D01*
X114051979Y-49454651D01*
X114065096Y-49450061D01*
X114342621Y-49370107D01*
X114356167Y-49367015D01*
X114640898Y-49318638D01*
X114654691Y-49317084D01*
X114946528Y-49300695D01*
X114953481Y-49300500D01*
X115015892Y-49300500D01*
X163984108Y-49300500D01*
X164046519Y-49300500D01*
X164053472Y-49300695D01*
G37*
%TD.AperFunction*%
%TD*%
M02*
