%TF.GenerationSoftware,KiCad,Pcbnew,9.0.7*%
%TF.CreationDate,2026-05-09T17:10:02-07:00*%
%TF.ProjectId,elec-thruster-control-board,656c6563-2d74-4687-9275-737465722d63,rev?*%
%TF.SameCoordinates,Original*%
%TF.FileFunction,Soldermask,Bot*%
%TF.FilePolarity,Negative*%
%FSLAX46Y46*%
G04 Gerber Fmt 4.6, Leading zero omitted, Abs format (unit mm)*
G04 Created by KiCad (PCBNEW 9.0.7) date 2026-05-09 17:10:02*
%MOMM*%
%LPD*%
G01*
G04 APERTURE LIST*
G04 Aperture macros list*
%AMRoundRect*
0 Rectangle with rounded corners*
0 $1 Rounding radius*
0 $2 $3 $4 $5 $6 $7 $8 $9 X,Y pos of 4 corners*
0 Add a 4 corners polygon primitive as box body*
4,1,4,$2,$3,$4,$5,$6,$7,$8,$9,$2,$3,0*
0 Add four circle primitives for the rounded corners*
1,1,$1+$1,$2,$3*
1,1,$1+$1,$4,$5*
1,1,$1+$1,$6,$7*
1,1,$1+$1,$8,$9*
0 Add four rect primitives between the rounded corners*
20,1,$1+$1,$2,$3,$4,$5,0*
20,1,$1+$1,$4,$5,$6,$7,0*
20,1,$1+$1,$6,$7,$8,$9,0*
20,1,$1+$1,$8,$9,$2,$3,0*%
G04 Aperture macros list end*
%ADD10RoundRect,0.250000X0.625000X-0.350000X0.625000X0.350000X-0.625000X0.350000X-0.625000X-0.350000X0*%
%ADD11O,1.750000X1.200000*%
%ADD12C,5.600000*%
%ADD13RoundRect,0.250000X-0.625000X0.350000X-0.625000X-0.350000X0.625000X-0.350000X0.625000X0.350000X0*%
%ADD14R,1.700000X1.700000*%
%ADD15C,1.700000*%
%ADD16RoundRect,0.250000X0.350000X0.625000X-0.350000X0.625000X-0.350000X-0.625000X0.350000X-0.625000X0*%
%ADD17O,1.200000X1.750000*%
G04 APERTURE END LIST*
D10*
%TO.C,J20*%
X162700000Y-73250000D03*
D11*
X162700000Y-71250000D03*
%TD*%
D12*
%TO.C,H4*%
X162750000Y-111250000D03*
%TD*%
D10*
%TO.C,J11*%
X162750000Y-103000000D03*
D11*
X162750000Y-101000000D03*
%TD*%
D13*
%TO.C,J12*%
X116300000Y-71000000D03*
D11*
X116300000Y-73000000D03*
%TD*%
D14*
%TO.C,J24*%
X158300000Y-84120000D03*
D15*
X158300000Y-81580000D03*
X158300000Y-79040000D03*
X158300000Y-76500000D03*
X158300000Y-73960000D03*
X158300000Y-71420000D03*
%TD*%
D13*
%TO.C,J2*%
X116300000Y-61000000D03*
D11*
X116300000Y-63000000D03*
%TD*%
D13*
%TO.C,J5*%
X116250000Y-81000000D03*
D11*
X116250000Y-83000000D03*
%TD*%
D14*
%TO.C,J13*%
X147250000Y-103750000D03*
D15*
X144710000Y-103750000D03*
X142170000Y-103750000D03*
X139630000Y-103750000D03*
X137090000Y-103750000D03*
X134550000Y-103750000D03*
X132010000Y-103750000D03*
%TD*%
D14*
%TO.C,J6*%
X148500000Y-51000000D03*
D15*
X148500000Y-53540000D03*
X148500000Y-56080000D03*
X148500000Y-58620000D03*
X148500000Y-61160000D03*
X148500000Y-63700000D03*
X148500000Y-66240000D03*
X148500000Y-68780000D03*
X148500000Y-71320000D03*
X148500000Y-73860000D03*
X148500000Y-76400000D03*
X148500000Y-78940000D03*
X148500000Y-81480000D03*
X148500000Y-84020000D03*
X148500000Y-86560000D03*
X148500000Y-89100000D03*
X148500000Y-91640000D03*
X148500000Y-94180000D03*
X148500000Y-96720000D03*
X148500000Y-99260000D03*
%TD*%
D12*
%TO.C,H2*%
X162750000Y-53300000D03*
%TD*%
%TO.C,H3*%
X116250000Y-111250000D03*
%TD*%
D10*
%TO.C,J21*%
X162700000Y-63000000D03*
D11*
X162700000Y-61000000D03*
%TD*%
D12*
%TO.C,H1*%
X116250000Y-53300000D03*
%TD*%
D10*
%TO.C,J19*%
X162750000Y-83000000D03*
D11*
X162750000Y-81000000D03*
%TD*%
D13*
%TO.C,J16*%
X116300000Y-101000000D03*
D11*
X116300000Y-103000000D03*
%TD*%
D10*
%TO.C,J18*%
X162750000Y-93000000D03*
D11*
X162750000Y-91000000D03*
%TD*%
D16*
%TO.C,J1*%
X125500000Y-102850000D03*
D17*
X123500000Y-102850000D03*
%TD*%
D14*
%TO.C,J4*%
X130750000Y-51010000D03*
D15*
X130750000Y-53550000D03*
X130750000Y-56090000D03*
X130750000Y-58630000D03*
X130750000Y-61170000D03*
X130750000Y-63710000D03*
X130750000Y-66250000D03*
X130750000Y-68790000D03*
X130750000Y-71330000D03*
X130750000Y-73870000D03*
X130750000Y-76410000D03*
X130750000Y-78950000D03*
X130750000Y-81490000D03*
X130750000Y-84030000D03*
X130750000Y-86570000D03*
X130750000Y-89110000D03*
X130750000Y-91650000D03*
X130750000Y-94190000D03*
X130750000Y-96730000D03*
X130750000Y-99270000D03*
%TD*%
D14*
%TO.C,J22*%
X120800000Y-83780000D03*
D15*
X120800000Y-81240000D03*
X120800000Y-78700000D03*
X120800000Y-76160000D03*
X120800000Y-73620000D03*
X120800000Y-71080000D03*
%TD*%
D16*
%TO.C,J3*%
X157300000Y-105900000D03*
D17*
X155300000Y-105900000D03*
%TD*%
D13*
%TO.C,J15*%
X116250000Y-91000000D03*
D11*
X116250000Y-93000000D03*
%TD*%
M02*
